PretendardCJK.glyphspackage
{
color = (204,240,242,1);
glyphname = plus;
kernLeft = hyphen;
kernRight = hyphen;
layers = (
{
guides = (
{
orientation = center;
pos = (260,832);
}
);
layerId = "5C20EF92-B63D-42A8-8878-93C2863E0093";
shapes = (
{
closed = 1;
nodes = (
(1200,92,l),
(1200,1572,l),
(752,1572,l),
(752,92,l)
);
},
{
closed = 1;
nodes = (
(1716,608,l),
(1716,1056,l),
(236,1056,l),
(236,608,l)
);
}
);
width = 1952;
},
{
guides = (
{
pos = (132,1384);
}
);
layerId = "B1F27B51-9973-4381-9301-4FE46FE1CA59";
shapes = (
{
closed = 1;
nodes = (
(896,220,l),
(896,1380,l),
(832,1380,l),
(832,220,l)
);
},
{
closed = 1;
nodes = (
(1444,768,l),
(1444,832,l),
(284,832,l),
(284,768,l)
);
}
);
width = 1728;
},
{
associatedMasterId = "CD0E3B44-F66A-4791-B84C-A1128DC61275";
layerId = "50846A7E-8027-4DEE-AE37-0EF3869105A7";
shapes = (
{
closed = 1;
nodes = (
(1012,138,l),
(1012,1462,l),
(782,1462,l),
(782,138,l)
);
},
{
closed = 1;
nodes = (
(1560,686,l),
(1560,916,l),
(236,916,l),
(236,686,l)
);
}
);
width = 1794.74717;
},
{
layerId = "CD0E3B44-F66A-4791-B84C-A1128DC61275";
shapes = (
{
closed = 1;
nodes = (
(1022,138,l),
(1022,1462,l),
(792,1462,l),
(792,138,l)
);
},
{
closed = 1;
nodes = (
(1570,686,l),
(1570,916,l),
(246,916,l),
(246,686,l)
);
}
);
width = 1816;
}
);
unicode = 43;
userData = {
com.typemytype.robofont.guideline.magnetic.vWa5hxe2x0 = 5;
"interface.width-adjustments" = (
-16
);
};
}
{
glyphname = comma;
kernLeft = comma;
kernRight = comma;
layers = (
{
background = {
shapes = (
{
ref = period;
}
);
};
guides = (
{
pos = (-136,1240);
},
{
pos = (-136,764);
}
);
layerId = "5C20EF92-B63D-42A8-8878-93C2863E0093";
shapes = (
{
pos = (-46,-1824);
ref = quoteright;
}
);
width = 896;
},
{
background = {
shapes = (
{
ref = period;
}
);
};
layerId = "B1F27B51-9973-4381-9301-4FE46FE1CA59";
shapes = (
{
alignment = -1;
pos = (60,-1920);
ref = quoteright;
}
);
width = 660;
},
{
associatedMasterId = "B1F27B51-9973-4381-9301-4FE46FE1CA59";
layerId = "F583B1AD-9EFA-4403-8440-9449E33DEF9D";
name = "May 22, 21 14:57";
shapes = (
{
alignment = -1;
pos = (10,-1920);
ref = quoteright;
}
);
width = 660;
},
{
associatedMasterId = "5C20EF92-B63D-42A8-8878-93C2863E0093";
background = {
shapes = (
{
closed = 1;
nodes = (
(260,384,l),
(260,12,l),
(260,-228,o),
(160,-336,o),
(100,-444,c),
(344,-584,l),
(528,-456,o),
(672,-196,o),
(668,52,c),
(668,384,l)
);
}
);
};
guides = (
{
pos = (-184,1240);
},
{
pos = (-184,764);
}
);
layerId = "11DDDBFF-6B60-4524-8AAF-BABF587C4AFD";
name = "May 22, 21 14:58";
shapes = (
{
pos = (0,-1824);
ref = quoteright;
}
);
width = 848;
},
{
associatedMasterId = "CD0E3B44-F66A-4791-B84C-A1128DC61275";
layerId = "FAE220CE-0958-4F8D-BDAB-7EFE6E252552";
shapes = (
{
alignment = -1;
pos = (-20,-1854);
ref = quoteright;
}
);
width = 727.04151;
},
{
background = {
shapes = (
{
ref = period;
}
);
};
layerId = "CD0E3B44-F66A-4791-B84C-A1128DC61275";
shapes = (
{
alignment = -1;
pos = (-20,-1854);
ref = quoteright;
}
);
width = 748;
}
);
unicode = 44;
userData = {
"interface.width-adjustments" = (
-16
);
};
}
{
glyphname = period;
kernLeft = comma;
kernRight = comma;
layers = (
{
guides = (
{
pos = (-132,1240);
},
{
pos = (-132,764);
}
);
layerId = "5C20EF92-B63D-42A8-8878-93C2863E0093";
shapes = (
{
closed = 1;
nodes = (
(587,-32,o),
(718,92,o),
(720,248,cs),
(718,400,o),
(587,524,o),
(440,524,cs),
(285,524,o),
(158,400,o),
(160,248,cs),
(158,92,o),
(285,-32,o),
(440,-32,cs)
);
}
);
width = 880;
},
{
layerId = "B1F27B51-9973-4381-9301-4FE46FE1CA59";
shapes = (
{
closed = 1;
nodes = (
(364,-12,o),
(396,20,o),
(396,60,cs),
(396,100,o),
(364,132,o),
(324,132,cs),
(284,132,o),
(252,100,o),
(252,60,cs),
(252,20,o),
(284,-12,o),
(324,-12,cs)
);
}
);
width = 648;
},
{
associatedMasterId = "CD0E3B44-F66A-4791-B84C-A1128DC61275";
layerId = "3C57A1F3-257C-49F9-8251-2291FE5C0CBD";
shapes = (
{
closed = 1;
nodes = (
(458,-16,o),
(540,66,o),
(540,166,cs),
(540,266,o),
(458,348,o),
(358,348,cs),
(258,348,o),
(174,266,o),
(176,166,cs),
(174,66,o),
(258,-16,o),
(358,-16,cs)
);
}
);
width = 714.9434;
},
{
layerId = "CD0E3B44-F66A-4791-B84C-A1128DC61275";
shapes = (
{
closed = 1;
nodes = (
(468,-16,o),
(550,66,o),
(550,166,cs),
(550,266,o),
(468,348,o),
(368,348,cs),
(268,348,o),
(184,266,o),
(186,166,cs),
(184,66,o),
(268,-16,o),
(368,-16,cs)
);
}
);
width = 736;
}
);
unicode = 46;
userData = {
"interface.width-adjustments" = (
-16
);
};
}
{
color = (219,235,247,1);
glyphname = J;
kernLeft = J;
kernRight = J;
layers = (
{
anchors = (
{
name = cross;
pos = (1244,1216);
},
{
name = top;
pos = (1248,2304);
}
);
guides = (
{
angle = 90;
pos = (1100,1476);
}
);
layerId = "5C20EF92-B63D-42A8-8878-93C2863E0093";
shapes = (
{
closed = 1;
nodes = (
(976,644,l),
(974,486,o),
(908,404,o),
(784,404,cs),
(662,404,o),
(594,485,o),
(588,640,c),
(32,640,l),
(30,168,o),
(354,-28,o),
(748,-28,cs),
(1202,-28,o),
(1522,244,o),
(1524,644,c),
(1524,2048,l),
(976,2048,l)
);
}
);
width = 1656;
},
{
anchors = (
{
name = cross;
pos = (1080,1216);
},
{
name = top;
pos = (1080,2304);
}
);
guides = (
{
angle = 90;
pos = (976,2840);
}
);
layerId = "B1F27B51-9973-4381-9301-4FE46FE1CA59";
shapes = (
{
closed = 1;
nodes = (
(1048,544,ls),
(1046,164,o),
(840,36,o),
(616,36,cs),
(372,36,o),
(182,184,o),
(184,384,c),
(120,384,l),
(118,148,o),
(334,-28,o),
(616,-28,cs),
(878,-28,o),
(1110,128,o),
(1112,544,cs),
(1112,2048,l),
(1048,2048,l)
);
}
);
width = 1400;
},
{
anchors = (
{
name = cross;
pos = (1126,1216);
},
{
name = top;
pos = (1126,2304);
}
);
associatedMasterId = "CD0E3B44-F66A-4791-B84C-A1128DC61275";
layerId = "04ADD913-32E6-4476-B5CD-86F76492D8B5";
shapes = (
{
closed = 1;
nodes = (
(998,586,l),
(998,332,o),
(878,198,o),
(666,198,cs),
(474,198,o),
(334,310,o),
(334,484,c),
(82,484,l),
(82,166,o),
(328,-28,o),
(666,-28,cs),
(1024,-28,o),
(1254,192,o),
(1254,586,c),
(1254,2048,l),
(998,2048,l)
);
}
);
width = 1467.53208;
},
{
anchors = (
{
name = cross;
pos = (1138,1216);
},
{
name = top;
pos = (1138,2304);
}
);
layerId = "CD0E3B44-F66A-4791-B84C-A1128DC61275";
shapes = (
{
closed = 1;
nodes = (
(1010,586,l),
(1010,332,o),
(890,198,o),
(678,198,cs),
(486,198,o),
(346,310,o),
(346,484,c),
(94,484,l),
(94,166,o),
(340,-28,o),
(678,-28,cs),
(1036,-28,o),
(1266,192,o),
(1266,586,c),
(1266,2048,l),
(1010,2048,l)
);
}
);
width = 1492;
}
);
metricRight = H;
unicode = 74;
}
{
color = (219,235,247,1);
glyphname = K;
kernLeft = B;
kernRight = K;
layers = (
{
anchors = (
{
name = bottom;
pos = (992,4);
},
{
name = top;
pos = (996,2304);
}
);
guides = (
{
orientation = center;
angle = 90;
pos = (900,1820);
}
);
layerId = "5C20EF92-B63D-42A8-8878-93C2863E0093";
shapes = (
{
closed = 1;
nodes = (
(688,0,l),
(688,528,l),
(872,768,l),
(1332,0,l),
(1996,0,l),
(1288,1136,l),
(1980,2048,l),
(1332,2048,l),
(716,1220,l),
(688,1220,l),
(688,2048,l),
(132,2048,l),
(132,0,l)
);
}
);
width = 2012;
},
{
anchors = (
{
name = bottom;
pos = (840,0);
},
{
name = top;
pos = (844,2304);
}
);
guides = (
{
angle = 227.6708;
pos = (1504,2632);
}
);
layerId = "B1F27B51-9973-4381-9301-4FE46FE1CA59";
shapes = (
{
closed = 1;
nodes = (
(352,0,l),
(352,668,l),
(660,1008,l),
(1512,0,l),
(1596,0,l),
(704,1056,l),
(1608,2048,l),
(1520,2048,l),
(360,772,l),
(352,772,l),
(352,2048,l),
(288,2048,l),
(288,0,l)
);
}
);
width = 1672;
},
{
anchors = (
{
name = bottom;
pos = (890,0);
},
{
name = top;
pos = (898,2304);
}
);
associatedMasterId = "CD0E3B44-F66A-4791-B84C-A1128DC61275";
layerId = "A7519DCE-E3CA-4549-A63B-15FB662AA1DA";
shapes = (
{
closed = 1;
nodes = (
(468,0,l),
(468,660,l),
(724,948,l),
(1428,0,l),
(1738,0,l),
(882,1124,l),
(1738,2048,l),
(1406,2048,l),
(494,1036,l),
(468,1036,l),
(468,2048,l),
(214,2048,l),
(214,0,l)
);
}
);
width = 1776.70943;
},
{
anchors = (
{
name = bottom;
pos = (902,0);
},
{
name = top;
pos = (910,2304);
}
);
layerId = "CD0E3B44-F66A-4791-B84C-A1128DC61275";
shapes = (
{
closed = 1;
nodes = (
(480,0,l),
(480,660,l),
(736,948,l),
(1440,0,l),
(1750,0,l),
(894,1124,l),
(1750,2048,l),
(1418,2048,l),
(506,1036,l),
(480,1036,l),
(480,2048,l),
(226,2048,l),
(226,0,l)
);
}
);
width = 1800;
}
);
metricLeft = H;
unicode = 75;
userData = {
com.typemytype.robofont.guideline.magnetic.bB6GeEoQ3O = 5;
"interface.width-adjustments" = (
-16
);
};
}
{
color = (219,235,247,1);
glyphname = U;
kernLeft = U;
kernRight = J;
layers = (
{
anchors = (
{
name = bottom;
pos = (1016,12);
},
{
name = ogonek;
pos = (1320,0);
},
{
name = right;
pos = (1192,0);
},
{
name = top;
pos = (1016,2304);
}
);
background = {
shapes = (
{
closed = 1;
nodes = (
(726,1994,l),
(142,1994,l),
(142,718,ls),
(142,264,o),
(492,-24,o),
(1016,-24,cs),
(1540,-24,o),
(1892,264,o),
(1892,718,cs),
(1892,1994,l),
(1308,1994,l),
(1308,782,ls),
(1308,572,o),
(1204,458,o),
(1016,458,cs),
(828,458,o),
(726,572,o),
(726,782,cs)
);
}
);
};
guides = (
{
pos = (-136,1240);
},
{
pos = (-136,764);
},
{
pos = (-136,1552);
},
{
orientation = center;
angle = 90;
pos = (884,564);
}
);
layerId = "5C20EF92-B63D-42A8-8878-93C2863E0093";
shapes = (
{
closed = 1;
nodes = (
(1344,784,ls),
(1344,593,o),
(1207,456,o),
(1016,456,cs),
(825,456,o),
(688,593,o),
(688,784,cs),
(688,2048,l),
(132,2048,l),
(132,736,ls),
(132,268,o),
(486,-24,o),
(1016,-24,cs),
(1542,-24,o),
(1900,268,o),
(1900,736,cs),
(1900,2048,l),
(1344,2048,l)
);
}
);
width = 2032;
},
{
anchors = (
{
name = bottom;
pos = (1024,-32);
},
{
name = ogonek;
pos = (1110,0);
},
{
name = right;
pos = (1108,0);
},
{
name = top;
pos = (1024,2304);
}
);
layerId = "B1F27B51-9973-4381-9301-4FE46FE1CA59";
shapes = (
{
closed = 1;
nodes = (
(1696,692,ls),
(1696,313,o),
(1410,32,o),
(1024,32,cs),
(638,32,o),
(352,313,o),
(352,692,cs),
(352,2048,l),
(288,2048,l),
(288,692,ls),
(286,278,o),
(605,-32,o),
(1024,-32,cs),
(1445,-32,o),
(1760,277,o),
(1760,692,cs),
(1760,2048,l),
(1696,2048,l)
);
}
);
width = 2048;
},
{
anchors = (
{
name = bottom;
pos = (1012,-28);
},
{
name = ogonek;
pos = (1210,4);
},
{
name = right;
pos = (1128,0);
},
{
name = top;
pos = (1012,2304);
}
);
associatedMasterId = "CD0E3B44-F66A-4791-B84C-A1128DC61275";
layerId = "01D99846-BCC6-4471-8A00-BCF4E6B43BD9";
shapes = (
{
closed = 1;
nodes = (
(1554,714,ls),
(1554,416,o),
(1350,202,o),
(1012,202,cs),
(674,202,o),
(468,416,o),
(468,714,cs),
(468,2048,l),
(214,2048,l),
(214,694,ls),
(214,272,o),
(528,-36,o),
(1012,-36,cs),
(1494,-36,o),
(1810,272,o),
(1810,694,cs),
(1810,2048,l),
(1554,2048,l)
);
}
);
width = 2023.01887;
},
{
anchors = (
{
name = bottom;
pos = (1024,-28);
},
{
name = ogonek;
pos = (1222,4);
},
{
name = right;
pos = (1140,0);
},
{
name = top;
pos = (1024,2304);
}
);
layerId = "CD0E3B44-F66A-4791-B84C-A1128DC61275";
shapes = (
{
closed = 1;
nodes = (
(1566,714,ls),
(1566,416,o),
(1362,202,o),
(1024,202,cs),
(686,202,o),
(480,416,o),
(480,714,cs),
(480,2048,l),
(226,2048,l),
(226,694,ls),
(226,272,o),
(540,-36,o),
(1024,-36,cs),
(1506,-36,o),
(1822,272,o),
(1822,694,cs),
(1822,2048,l),
(1566,2048,l)
);
}
);
width = 2048;
}
);
metricLeft = H;
metricRight = H;
unicode = 85;
userData = {
com.typemytype.robofont.guideline.magnetic.icXM2D4lH7 = 5;
"interface.width-adjustments" = (
-16
);
};
}
{
color = (204,240,242,1);
glyphname = yen;
layers = (
{
layerId = "5C20EF92-B63D-42A8-8878-93C2863E0093";
shapes = (
{
closed = 1;
nodes = (
(40,2048,l),
(592,772,l),
(952,1088,l),
(596,2048,l)
);
},
{
closed = 1;
nodes = (
(1060,772,l),
(1616,2048,l),
(1060,2048,l),
(712,1104,l)
);
},
{
closed = 1;
nodes = (
(544,1080,l),
(544,0,l),
(1092,0,l),
(1092,1080,l)
);
},
{
closed = 1;
nodes = (
(116,1080,l),
(116,788,l),
(1468,788,l),
(1468,1080,l)
);
},
{
closed = 1;
nodes = (
(116,684,l),
(116,392,l),
(1468,392,l),
(1468,684,l)
);
}
);
width = 1656;
},
{
layerId = "B1F27B51-9973-4381-9301-4FE46FE1CA59";
shapes = (
{
closed = 1;
nodes = (
(28,2048,l),
(664,884,l),
(736,884,l),
(100,2048,l)
);
},
{
closed = 1;
nodes = (
(744,884,l),
(1380,2048,l),
(1308,2048,l),
(672,884,l)
);
},
{
closed = 1;
nodes = (
(672,952,l),
(672,0,l),
(736,0,l),
(736,952,l)
);
},
{
closed = 1;
nodes = (
(192,916,l),
(192,852,l),
(1216,852,l),
(1216,916,l)
);
},
{
closed = 1;
nodes = (
(192,672,l),
(192,608,l),
(1216,608,l),
(1216,672,l)
);
}
);
width = 1408;
},
{
associatedMasterId = "CD0E3B44-F66A-4791-B84C-A1128DC61275";
layerId = "17AAF169-1C1C-4EB7-8D66-932D20933C06";
shapes = (
{
closed = 1;
nodes = (
(8,2048,l),
(614,826,l),
(810,912,l),
(292,2048,l)
);
},
{
closed = 1;
nodes = (
(868,826,l),
(1474,2048,l),
(1192,2048,l),
(672,912,l)
);
},
{
closed = 1;
nodes = (
(614,1076,l),
(614,0,l),
(870,0,l),
(870,1076,l)
);
},
{
closed = 1;
nodes = (
(166,1022,l),
(166,838,l),
(1316,838,l),
(1316,1022,l)
);
},
{
closed = 1;
nodes = (
(166,626,l),
(166,442,l),
(1316,442,l),
(1316,626,l)
);
}
);
width = 1483.13962;
},
{
layerId = "CD0E3B44-F66A-4791-B84C-A1128DC61275";
shapes = (
{
closed = 1;
nodes = (
(18,2048,l),
(624,826,l),
(820,912,l),
(302,2048,l)
);
},
{
closed = 1;
nodes = (
(878,826,l),
(1484,2048,l),
(1202,2048,l),
(682,912,l)
);
},
{
closed = 1;
nodes = (
(624,1076,l),
(624,0,l),
(880,0,l),
(880,1076,l)
);
},
{
closed = 1;
nodes = (
(176,1022,l),
(176,838,l),
(1326,838,l),
(1326,1022,l)
);
},
{
closed = 1;
nodes = (
(176,626,l),
(176,442,l),
(1326,442,l),
(1326,626,l)
);
}
);
width = 1502;
}
);
note = "line up with uni20BD";
unicode = 165;
userData = {
com.typemytype.robofont.guideline.magnetic.tTOmEYBKMR = 5;
"interface.width-adjustments" = (
-16
);
};
}
{
glyphname = ordfeminine;
kernLeft = dagger;
kernRight = dagger;
layers = (
{
guides = (
{
pos = (-124,2312);
},
{
pos = (-124,1248);
}
);
layerId = "5C20EF92-B63D-42A8-8878-93C2863E0093";
shapes = (
{
ref = a.sups;
}
);
width = 1112;
},
{
layerId = "B1F27B51-9973-4381-9301-4FE46FE1CA59";
shapes = (
{
ref = a.sups;
}
);
width = 960;
},
{
layerId = "CD0E3B44-F66A-4791-B84C-A1128DC61275";
shapes = (
{
ref = a.sups;
}
);
width = 1026;
},
{
associatedMasterId = "5C20EF92-B63D-42A8-8878-93C2863E0093";
guides = (
{
pos = (-124,2312);
},
{
pos = (-124,1248);
}
);
layerId = "F0E58F4C-459A-4129-A7BF-0846ECE39AF9";
name = "Jul 10, 21 13:27";
shapes = (
{
closed = 1;
nodes = (
(896,1104,o),
(912,1028,o),
(932,968,c),
(1188,968,l),
(1152,1060,o),
(1148,1148,o),
(1148,1220,cs),
(1148,1652,l),
(1148,1904,o),
(980,2032,o),
(728,2032,cs),
(460,2032,o),
(280,1896,o),
(280,1708,c),
(532,1692,l),
(532,1780,o),
(604,1828,o),
(728,1828,cs),
(844,1828,o),
(896,1760,o),
(896,1652,c),
(896,1184,l)
);
},
{
closed = 1;
nodes = (
(752,1580,l),
(420,1580,o),
(260,1468,o),
(260,1264,cs),
(260,1076,o),
(388,952,o),
(616,952,cs),
(812,952,o),
(920,1052,o),
(964,1144,c),
(940,1308,l),
(940,1240,o),
(796,1148,o),
(680,1148,cs),
(564,1148,o),
(512,1196,o),
(512,1268,cs),
(512,1348,o),
(588,1420,o),
(752,1420,c),
(960,1420,l),
(960,1580,l)
);
}
);
width = 1444;
},
{
associatedMasterId = "B1F27B51-9973-4381-9301-4FE46FE1CA59";
layerId = "3F7BD8AB-D384-4DCE-9DEC-2FB4AF866952";
name = "Jul 10, 21 13:27";
shapes = (
{
closed = 1;
nodes = (
(739,1114,o),
(749,1038,o),
(770,976,c),
(838,976,l),
(815,1047,o),
(805,1123,o),
(806,1220,cs),
(806,1652,l),
(804,1913,o),
(706,2032,o),
(492,2032,cs),
(279,2032,o),
(138,1909,o),
(130,1716,c),
(194,1710,l),
(207,1880,o),
(309,1968,o),
(492,1968,cs),
(663,1968,o),
(739,1872,o),
(742,1652,c),
(742,1184,l)
);
},
{
closed = 1;
nodes = (
(518,1548,ls),
(254,1548,o),
(114,1443,o),
(112,1244,cs),
(112,1069,o),
(229,952,o),
(406,952,cs),
(531,952,o),
(634,1003,o),
(772,1132,c),
(748,1174,l),
(644,1069,o),
(526,1014,o),
(406,1016,cs),
(265,1018,o),
(177,1105,o),
(178,1244,cs),
(177,1405,o),
(293,1488,o),
(518,1488,cs),
(754,1488,l),
(754,1548,l)
);
}
);
width = 952;
}
);
unicode = 170;
userData = {
interface.gridadjust.original = "{'width': 1262, 'leftMargin': 199, 'rightMargin': 177}";
"interface.width-adjustments" = (
-16
);
};
}
{
color = (204,240,242,1);
glyphname = logicalnot;
kernLeft = hyphen;
layers = (
{
layerId = "5C20EF92-B63D-42A8-8878-93C2863E0093";
shapes = (
{
closed = 1;
nodes = (
(256,1108,l),
(256,872,l),
(1460,872,l),
(1460,1108,l)
);
},
{
closed = 1;
nodes = (
(1172,1000,l),
(1172,516,l),
(1460,516,l),
(1460,1000,l)
);
}
);
width = 1708;
},
{
layerId = "B1F27B51-9973-4381-9301-4FE46FE1CA59";
shapes = (
{
closed = 1;
nodes = (
(116,1108,l),
(116,1044,l),
(1232,1044,l),
(1232,1108,l)
);
},
{
closed = 1;
nodes = (
(1168,1080,l),
(1168,516,l),
(1232,516,l),
(1232,1080,l)
);
}
);
width = 1344;
},
{
associatedMasterId = "CD0E3B44-F66A-4791-B84C-A1128DC61275";
layerId = "B4FCBBF8-6A24-499C-B235-D2F77988E4A9";
shapes = (
{
closed = 1;
nodes = (
(158,1108,l),
(158,872,l),
(1308,872,l),
(1308,1108,l)
);
},
{
closed = 1;
nodes = (
(1030,1000,l),
(1030,516,l),
(1308,516,l),
(1308,1000,l)
);
}
);
width = 1461.00377;
},
{
layerId = "CD0E3B44-F66A-4791-B84C-A1128DC61275";
shapes = (
{
closed = 1;
nodes = (
(166,1108,l),
(166,872,l),
(1316,872,l),
(1316,1108,l)
);
},
{
closed = 1;
nodes = (
(1038,1000,l),
(1038,516,l),
(1316,516,l),
(1316,1000,l)
);
}
);
width = 1478;
}
);
unicode = 172;
userData = {
interface.gridadjust.original = "{'width': 1565, 'leftMargin': 176, 'rightMargin': 241}";
"interface.width-adjustments" = (
-16
);
};
}
{
color = (204,240,242,1);
glyphname = registered;
kernLeft = registered;
kernRight = registered;
layers = (
{
layerId = "5C20EF92-B63D-42A8-8878-93C2863E0093";
shapes = (
{
closed = 1;
nodes = (
(844,916,l),
(844,1498,l),
(944,1498,ls),
(1008,1498,o),
(1042,1466,o),
(1042,1404,cs),
(1042,1345,o),
(1008,1314,o),
(944,1314,cs),
(746,1314,l),
(746,1162,l),
(978,1162,ls),
(1154,1162,o),
(1260,1250,o),
(1260,1404,cs),
(1260,1556,o),
(1158,1654,o),
(984,1654,cs),
(632,1654,l),
(632,916,l)
);
},
{
closed = 1;
nodes = (
(904,1252,l),
(1046,916,l),
(1278,916,l),
(1120,1252,l)
);
},
{
closed = 1;
nodes = (
(1371,476,o),
(1728,834,o),
(1728,1276,cs),
(1728,1718,o),
(1370,2076,o),
(928,2076,cs),
(486,2076,o),
(128,1718,o),
(128,1276,cs),
(128,834,o),
(486,476,o),
(928,476,cs)
);
},
{
closed = 1;
nodes = (
(610,700,o),
(352,958,o),
(352,1276,cs),
(352,1594,o),
(610,1852,o),
(928,1852,cs),
(1246,1852,o),
(1504,1594,o),
(1504,1276,cs),
(1504,957,o),
(1247,700,o),
(928,700,cs)
);
}
);
width = 1856;
},
{
layerId = "B1F27B51-9973-4381-9301-4FE46FE1CA59";
shapes = (
{
closed = 1;
nodes = (
(722,916,l),
(722,1590,l),
(972,1590,ls),
(1088,1590,o),
(1146,1532,o),
(1146,1434,cs),
(1146,1336,o),
(1088,1274,o),
(972,1274,cs),
(692,1274,l),
(692,1210,l),
(974,1210,ls),
(1126,1210,o),
(1210,1306,o),
(1210,1434,cs),
(1210,1562,o),
(1126,1654,o),
(974,1654,cs),
(658,1654,l),
(658,916,l)
);
},
{
closed = 1;
nodes = (
(988,1248,l),
(1166,916,l),
(1240,916,l),
(1058,1248,l)
);
},
{
closed = 1;
nodes = (
(1354,476,o),
(1712,834,o),
(1712,1276,cs),
(1712,1718,o),
(1354,2076,o),
(912,2076,cs),
(470,2076,o),
(112,1718,o),
(112,1276,cs),
(112,834,o),
(470,476,o),
(912,476,cs)
);
},
{
closed = 1;
nodes = (
(505,540,o),
(176,869,o),
(176,1276,cs),
(176,1683,o),
(505,2012,o),
(912,2012,cs),
(1319,2012,o),
(1648,1683,o),
(1648,1276,cs),
(1648,869,o),
(1319,540,o),
(912,540,cs)
);
}
);
width = 1824;
},
{
associatedMasterId = "CD0E3B44-F66A-4791-B84C-A1128DC61275";
layerId = "FF7F7355-92F0-4D2A-B68E-03D4B2DB1DBE";
shapes = (
{
closed = 1;
nodes = (
(794,916,l),
(794,1534,l),
(948,1534,ls),
(986,1534,o),
(1054,1506,o),
(1054,1418,cs),
(1054,1330,o),
(988,1286,o),
(944,1286,cs),
(724,1286,l),
(724,1166,l),
(994,1166,ls),
(1092,1166,o),
(1232,1256,o),
(1232,1418,cs),
(1232,1578,o),
(1096,1654,o),
(1004,1654,cs),
(632,1654,l),
(632,916,l)
);
},
{
closed = 1;
nodes = (
(904,1264,l),
(1082,916,l),
(1262,916,l),
(1078,1264,l)
);
},
{
closed = 1;
nodes = (
(1354,476,o),
(1712,834,o),
(1712,1276,cs),
(1712,1718,o),
(1354,2076,o),
(912,2076,cs),
(470,2076,o),
(112,1718,o),
(112,1276,cs),
(112,834,o),
(470,476,o),
(912,476,cs)
);
},
{
closed = 1;
nodes = (
(576,668,o),
(304,940,o),
(304,1276,cs),
(304,1612,o),
(576,1884,o),
(912,1884,cs),
(1248,1884,o),
(1520,1612,o),
(1520,1276,cs),
(1520,940,o),
(1248,668,o),
(912,668,cs)
);
}
);
width = 1823.60755;
},
{
layerId = "CD0E3B44-F66A-4791-B84C-A1128DC61275";
shapes = (
{
closed = 1;
nodes = (
(804,916,l),
(804,1534,l),
(958,1534,ls),
(996,1534,o),
(1064,1506,o),
(1064,1418,cs),
(1064,1330,o),
(998,1286,o),
(954,1286,cs),
(734,1286,l),
(734,1166,l),
(1004,1166,ls),
(1102,1166,o),
(1242,1256,o),
(1242,1418,cs),
(1242,1578,o),
(1106,1654,o),
(1014,1654,cs),
(642,1654,l),
(642,916,l)
);
},
{
closed = 1;
nodes = (
(914,1264,l),
(1092,916,l),
(1272,916,l),
(1088,1264,l)
);
},
{
closed = 1;
nodes = (
(1364,476,o),
(1722,834,o),
(1722,1276,cs),
(1722,1718,o),
(1364,2076,o),
(922,2076,cs),
(480,2076,o),
(122,1718,o),
(122,1276,cs),
(122,834,o),
(480,476,o),
(922,476,cs)
);
},
{
closed = 1;
nodes = (
(586,668,o),
(314,940,o),
(314,1276,cs),
(314,1612,o),
(586,1884,o),
(922,1884,cs),
(1258,1884,o),
(1530,1612,o),
(1530,1276,cs),
(1530,940,o),
(1258,668,o),
(922,668,cs)
);
}
);
width = 1844;
}
);
note = "Stroke L: 32
Stroke R: 96
Stroke B: 112";
unicode = 174;
userData = {
interface.gridadjust.original = "{'width': 2204, 'leftMargin': 121, 'rightMargin': 132}";
"interface.width-adjustments" = (
-16
);
};
}
{
color = (204,240,242,1);
glyphname = acute;
layers = (
{
anchors = (
{
name = _top;
pos = (700,1792);
},
{
name = top;
pos = (700,2304);
}
);
layerId = "5C20EF92-B63D-42A8-8878-93C2863E0093";
shapes = (
{
closed = 1;
nodes = (
(880,1728,l),
(1180,2176,l),
(708,2176,l),
(516,1728,l)
);
}
);
width = 1400;
},
{
anchors = (
{
name = _top;
pos = (664,1792);
},
{
name = top;
pos = (668,2304);
}
);
layerId = "B1F27B51-9973-4381-9301-4FE46FE1CA59";
shapes = (
{
closed = 1;
nodes = (
(694,1760,l),
(990,2192,l),
(910,2192,l),
(630,1760,l)
);
}
);
width = 1336;
},
{
anchors = (
{
name = _top;
pos = (568,1792);
},
{
name = top;
pos = (568,2304);
}
);
associatedMasterId = "B1F27B51-9973-4381-9301-4FE46FE1CA59";
layerId = "E1CEC161-E293-489F-967A-8DE97F54498E";
name = "Feb 10 19, 11:21";
shapes = (
{
closed = 1;
nodes = (
(584,1760,l),
(880,2192,l),
(800,2192,l),
(520,1760,l)
);
}
);
width = 1400;
},
{
anchors = (
{
name = _top;
pos = (636,1792);
},
{
name = top;
pos = (668,2304);
}
);
associatedMasterId = "CD0E3B44-F66A-4791-B84C-A1128DC61275";
layerId = "B97F1DD0-028F-420A-B32D-8C0DF866B09E";
shapes = (
{
closed = 1;
nodes = (
(738,1744,l),
(1050,2208,l),
(770,2208,l),
(528,1744,l)
);
}
);
width = 1336.39245;
},
{
anchors = (
{
name = _top;
pos = (646,1792);
},
{
name = top;
pos = (678,2304);
}
);
layerId = "CD0E3B44-F66A-4791-B84C-A1128DC61275";
shapes = (
{
closed = 1;
nodes = (
(748,1744,l),
(1060,2208,l),
(780,2208,l),
(538,1744,l)
);
}
);
width = 1358;
}
);
unicode = 180;
userData = {
"interface.width-adjustments" = (
-16
);
};
}
{
glyphname = ae;
kernLeft = a;
kernRight = e;
layers = (
{
anchors = (
{
name = top;
pos = (1240,1792);
}
);
background = {
anchors = (
{
name = bottom;
pos = (1696,0);
},
{
name = cedilla;
pos = (1704,0);
},
{
name = ogonek;
pos = (2156,68);
},
{
name = rhalfring;
pos = (860,1768);
},
{
name = top;
pos = (1696,1768);
}
);
hints = (
{
horizontal = 1;
origin = (0,18);
target = (0,17);
type = Stem;
},
{
origin = (0,26);
target = (0,9);
type = Stem;
},
{
horizontal = 1;
options = 4;
origin = (0,29);
type = TTSnap;
},
{
horizontal = 1;
options = 4;
origin = (0,18);
target = (0,17);
type = TTStem;
},
{
horizontal = 1;
options = 4;
origin = (0,23);
type = TTSnap;
},
{
origin = (0,16);
target = (0,20);
type = Stem;
},
{
horizontal = 1;
origin = (0,29);
target = (0,6);
type = Stem;
},
{
horizontal = 1;
origin = (0,13);
target = (0,23);
type = Stem;
},
{
origin = (1,4);
target = (1,5);
type = Stem;
},
{
horizontal = 1;
options = 4;
origin = (1,29);
type = TTSnap;
},
{
horizontal = 1;
options = 4;
origin = (1,9);
type = TTSnap;
},
{
horizontal = 1;
options = 4;
origin = (1,4);
type = TTSnap;
},
{
origin = (1,26);
target = (2,2);
type = Stem;
},
{
horizontal = 1;
origin = (1,16);
target = (1,9);
type = Stem;
},
{
horizontal = 1;
origin = (1,29);
target = (2,12);
type = Stem;
}
);
shapes = (
{
closed = 1;
nodes = (
(2144,-28,o),
(2416,176,o),
(2468,496,c),
(1964,496,l),
(1932,408,o),
(1840,360,o),
(1728,360,cs),
(1564,360,o),
(1468,468,o),
(1468,616,c),
(1468,944,l),
(1472,1076,o),
(1580,1168,o),
(1716,1168,cs),
(1852,1168,o),
(1956,1076,o),
(1960,944,c),
(1096,944,l),
(1096,640,l),
(2468,640,l),
(2468,768,ls),
(2468,1256,o),
(2168,1556,o),
(1704,1556,cs),
(1228,1556,o),
(924,1240,o),
(924,764,c),
(924,268,o),
(1224,-28,o),
(1716,-28,c)
);
},
{
closed = 1;
nodes = (
(768,-24,o),
(920,44,o),
(1012,216,c),
(1024,216,l),
(1024,0,l),
(1540,0,l),
(1540,1052,ls),
(1540,1336,o),
(1272,1556,o),
(832,1556,cs),
(372,1556,o),
(148,1316,o),
(128,1036,c),
(636,1036,l),
(648,1132,o),
(720,1176,o),
(824,1176,cs),
(920,1176,o),
(988,1132,o),
(988,1052,cs),
(988,1048,ls),
(988,960,o),
(892,932,o),
(632,912,cs),
(316,888,o),
(68,760,o),
(68,424,cs),
(68,120,o),
(276,-24,o),
(568,-24,cs)
);
},
{
closed = 1;
nodes = (
(656,324,o),
(588,372,o),
(588,456,cs),
(588,536,o),
(644,596,o),
(772,616,cs),
(860,632,o),
(936,648,o),
(992,672,c),
(992,544,ls),
(992,404,o),
(872,324,o),
(748,324,cs)
);
}
);
};
guides = (
{
pos = (-140,1148);
},
{
angle = 90;
pos = (1092,1700);
}
);
layerId = "5C20EF92-B63D-42A8-8878-93C2863E0093";
shapes = (
{
closed = 1;
nodes = (
(2133,-28,o),
(2416,176,o),
(2468,496,c),
(1964,496,l),
(1932,409,o),
(1841,360,o),
(1728,360,cs),
(1564,360,o),
(1468,468,o),
(1468,616,c),
(1468,944,l),
(1472,1076,o),
(1580,1168,o),
(1716,1168,cs),
(1852,1168,o),
(1956,1076,o),
(1960,944,c),
(1148,944,l),
(1148,640,l),
(2468,640,l),
(2468,768,ls),
(2468,1257,o),
(2168,1556,o),
(1704,1556,cs),
(1469,1556,o),
(1284,1480,o),
(1140,1264,c),
(1192,268,l),
(1288,64,o),
(1511,-28,o),
(1760,-28,cs)
);
},
{
closed = 1;
nodes = (
(865,-24,o),
(1108,60,o),
(1204,232,c),
(1236,232,l),
(1260,1352,l),
(1192,1480,o),
(1048,1556,o),
(832,1556,cs),
(373,1556,o),
(147,1316,o),
(128,1036,c),
(636,1036,l),
(649,1131,o),
(719,1176,o),
(824,1176,cs),
(920,1176,o),
(987,1132,o),
(988,1052,cs),
(992,544,ls),
(993,404,o),
(873,324,o),
(748,324,cs),
(654,324,o),
(588,382,o),
(588,468,cs),
(588,547,o),
(644,611,o),
(732,622,cs),
(817,632,o),
(998,638,o),
(1012,638,c),
(1010,944,l),
(998,943,o),
(772,936,o),
(634,928,cs),
(317,910,o),
(68,773,o),
(68,436,cs),
(68,130,o),
(274,-24,o),
(568,-24,cs)
);
}
);
width = 2552;
},
{
anchors = (
{
name = top;
pos = (1260,1768);
}
);
associatedMasterId = "5C20EF92-B63D-42A8-8878-93C2863E0093";
background = {
shapes = (
{
closed = 1;
nodes = (
(592,980,l),
(612,1088,o),
(688,1128,o),
(772,1128,cs),
(843,1128,o),
(908,1100,o),
(908,1032,cs),
(908,1024,l),
(908,956,o),
(796,948,o),
(732,944,cs),
(260,908,o),
(64,696,o),
(64,436,cs),
(64,84,o),
(388,-24,o),
(676,-24,cs),
(968,-24,o),
(1104,80,o),
(1136,136,c),
(1244,136,l),
(1332,1412,l),
(1196,1524,o),
(996,1556,o),
(800,1556,cs),
(368,1556,o),
(112,1324,o),
(84,1040,c)
);
},
{
closed = 1;
nodes = (
(908,392,o),
(792,356,o),
(716,356,cs),
(640,356,o),
(596,396,o),
(596,468,cs),
(596,608,o),
(756,616,o),
(828,624,cs),
(856,628,o),
(888,640,o),
(908,656,c),
(908,468,ls)
);
},
{
closed = 1;
nodes = (
(1912,588,l),
(1884,524,o),
(1848,404,o),
(1652,404,cs),
(1436,404,o),
(1368,556,o),
(1368,736,c),
(1368,964,o),
(1444,1132,o),
(1656,1132,cs),
(1808,1132,o),
(1892,1052,o),
(1892,952,c),
(1208,888,l),
(1208,560,l),
(2396,684,l),
(2396,848,ls),
(2396,1256,o),
(2128,1556,o),
(1652,1556,cs),
(1388,1556,o),
(1168,1460,o),
(1024,1308,c),
(1040,296,l),
(1176,96,o),
(1340,-28,o),
(1660,-28,c),
(2148,-28,o),
(2348,280,o),
(2388,464,c)
);
}
);
};
guides = (
{
pos = (-32,1148);
}
);
layerId = "D3B5069D-321B-4B52-9BEC-89A069FD8462";
name = "Sep 30 18, 12:40";
shapes = (
{
closed = 1;
nodes = (
(2144,-28,o),
(2336,276,o),
(2372,464,c),
(1872,520,l),
(1844,460,o),
(1788,404,o),
(1664,404,cs),
(1500,404,o),
(1424,504,o),
(1424,628,cs),
(1424,916,ls),
(1424,1046,o),
(1542,1132,o),
(1676,1132,cs),
(1803,1132,o),
(1912,1055,o),
(1912,952,c),
(1068,912,l),
(1068,580,l),
(2380,620,l),
(2380,848,ls),
(2380,1260,o),
(2116,1556,o),
(1652,1556,cs),
(1420,1556,o),
(1234,1481,o),
(1104,1348,c),
(1064,264,l),
(1192,74,o),
(1376,-28,o),
(1656,-28,c)
);
},
{
closed = 1;
nodes = (
(668,356,o),
(624,396,o),
(624,468,cs),
(624,603,o),
(779,621,o),
(828,628,cs),
(861,633,o),
(916,648,o),
(936,656,c),
(936,468,ls),
(936,392,o),
(820,356,o),
(744,356,cs)
);
},
{
closed = 1;
nodes = (
(816,-24,o),
(1000,98,o),
(1056,256,c),
(1252,256,l),
(1252,1416,l),
(1144,1507,o),
(1024,1556,o),
(828,1556,cs),
(396,1556,o),
(140,1324,o),
(112,1040,c),
(628,1016,l),
(636,1112,o),
(712,1152,o),
(792,1152,cs),
(879,1152,o),
(936,1102,o),
(936,1024,c),
(936,956,o),
(824,948,o),
(760,944,cs),
(271,913,o),
(92,696,o),
(92,432,cs),
(92,136,o),
(316,-24,o),
(580,-24,cs)
);
}
);
width = 2472;
},
{
anchors = (
{
name = top;
pos = (1268,1792);
}
);
layerId = "B1F27B51-9973-4381-9301-4FE46FE1CA59";
shapes = (
{
closed = 1;
nodes = (
(2116,-32,o),
(2280,156,o),
(2348,272,c),
(2296,308,l),
(2240,216,o),
(2100,32,o),
(1816,32,cs),
(1428,32,o),
(1212,368,o),
(1212,772,cs),
(1212,780,ls),
(1212,1188,o),
(1468,1496,o),
(1784,1496,cs),
(2096,1496,o),
(2348,1200,o),
(2348,832,c),
(1192,832,l),
(1192,768,l),
(2412,768,l),
(2412,832,ls),
(2412,1228,o),
(2140,1560,o),
(1784,1560,cs),
(1525,1560,o),
(1311,1386,o),
(1210,1124,c),
(1192,460,l),
(1284,168,o),
(1508,-32,o),
(1816,-32,cs)
);
},
{
closed = 1;
nodes = (
(849,-32,o),
(1090,102,o),
(1190,442,c),
(1212,442,l),
(1212,1104,ls),
(1212,1364,o),
(1020,1560,o),
(712,1560,cs),
(451,1560,o),
(232,1428,o),
(194,1204,c),
(260,1204,l),
(302,1394,o),
(490,1496,o),
(712,1496,cs),
(974,1496,o),
(1148,1340,o),
(1148,1104,cs),
(1148,656,ls),
(1148,284,o),
(916,32,o),
(624,32,cs),
(396,32,o),
(220,184,o),
(220,416,cs),
(220,612,o),
(327,704,o),
(720,734,cs),
(824,742,o),
(1158,769,o),
(1172,770,c),
(1170,832,l),
(1157,831,o),
(830,805,o),
(696,794,cs),
(264,759,o),
(156,624,o),
(156,416,cs),
(156,128,o),
(372,-32,o),
(624,-32,cs)
);
}
);
width = 2560;
},
{
anchors = (
{
name = top;
pos = (1266,1792);
}
);
layerId = "CD0E3B44-F66A-4791-B84C-A1128DC61275";
shapes = (
{
closed = 1;
nodes = (
(2116,-32,o),
(2346,126,o),
(2418,360,c),
(2182,422,l),
(2124,264,o),
(1986,184,o),
(1802,184,cs),
(1522,184,o),
(1328,374,o),
(1328,718,cs),
(1328,858,ls),
(1328,1108,o),
(1500,1340,o),
(1778,1340,c),
(2032,1340,o),
(2194,1150,o),
(2194,894,c),
(1254,894,l),
(1254,686,l),
(2440,686,l),
(2440,788,ls),
(2440,1358,o),
(2102,1556,o),
(1778,1556,cs),
(1508,1556,o),
(1316,1418,o),
(1214,1186,c),
(1172,416,l),
(1226,150,o),
(1466,-32,o),
(1804,-32,c)
);
},
{
closed = 1;
nodes = (
(916,-36,o),
(1152,106,o),
(1212,278,c),
(1232,278,l),
(1322,1224,l),
(1232,1516,o),
(950,1556,o),
(778,1556,cs),
(438,1556,o),
(198,1384,o),
(168,1136,c),
(420,1136,l),
(456,1254,o),
(572,1344,o),
(766,1344,cs),
(998,1344,o),
(1114,1230,o),
(1114,1036,cs),
(1114,556,ls),
(1114,364,o),
(962,180,o),
(686,180,cs),
(500,180,o),
(366,262,o),
(366,426,cs),
(366,592,o),
(506,650,o),
(728,664,cs),
(812,670,o),
(1118,692,o),
(1134,692,c),
(1130,894,l),
(1108,892,o),
(810,878,o),
(698,870,cs),
(432,850,o),
(122,788,o),
(122,436,cs),
(122,136,o),
(354,-36,o),
(646,-36,cs)
);
}
);
width = 2562;
},
{
anchors = (
{
name = top;
pos = (1240,1792);
}
);
associatedMasterId = "5C20EF92-B63D-42A8-8878-93C2863E0093";
background = {
anchors = (
{
name = bottom;
pos = (1696,0);
},
{
name = cedilla;
pos = (1704,0);
},
{
name = ogonek;
pos = (2156,68);
},
{
name = rhalfring;
pos = (860,1768);
},
{
name = top;
pos = (1696,1768);
}
);
hints = (
{
horizontal = 1;
origin = (0,18);
target = (0,17);
type = Stem;
},
{
origin = (0,26);
target = (0,9);
type = Stem;
},
{
horizontal = 1;
options = 4;
origin = (0,29);
type = TTSnap;
},
{
horizontal = 1;
options = 4;
origin = (0,18);
target = (0,17);
type = TTStem;
},
{
horizontal = 1;
options = 4;
origin = (0,23);
type = TTSnap;
},
{
origin = (0,16);
target = (0,20);
type = Stem;
},
{
horizontal = 1;
origin = (0,29);
target = (0,6);
type = Stem;
},
{
horizontal = 1;
origin = (0,13);
target = (0,23);
type = Stem;
},
{
origin = (1,4);
target = (1,5);
type = Stem;
},
{
horizontal = 1;
options = 4;
origin = (1,29);
type = TTSnap;
},
{
horizontal = 1;
options = 4;
origin = (1,9);
type = TTSnap;
},
{
horizontal = 1;
options = 4;
origin = (1,4);
type = TTSnap;
},
{
origin = (1,26);
target = (2,2);
type = Stem;
},
{
horizontal = 1;
origin = (1,16);
target = (1,9);
type = Stem;
},
{
horizontal = 1;
origin = (1,29);
target = (2,12);
type = Stem;
}
);
shapes = (
{
closed = 1;
nodes = (
(2144,-28,o),
(2416,176,o),
(2468,496,c),
(1964,496,l),
(1932,408,o),
(1840,360,o),
(1728,360,cs),
(1564,360,o),
(1468,468,o),
(1468,616,c),
(1468,944,l),
(1472,1076,o),
(1580,1168,o),
(1716,1168,cs),
(1852,1168,o),
(1956,1076,o),
(1960,944,c),
(1096,944,l),
(1096,640,l),
(2468,640,l),
(2468,768,ls),
(2468,1256,o),
(2168,1556,o),
(1704,1556,cs),
(1228,1556,o),
(924,1240,o),
(924,764,c),
(924,268,o),
(1224,-28,o),
(1716,-28,c)
);
},
{
closed = 1;
nodes = (
(768,-24,o),
(920,44,o),
(1012,216,c),
(1024,216,l),
(1024,0,l),
(1540,0,l),
(1540,1052,ls),
(1540,1336,o),
(1272,1556,o),
(832,1556,cs),
(372,1556,o),
(148,1316,o),
(128,1036,c),
(636,1036,l),
(648,1132,o),
(720,1176,o),
(824,1176,cs),
(920,1176,o),
(988,1132,o),
(988,1052,cs),
(988,1048,ls),
(988,960,o),
(892,932,o),
(632,912,cs),
(316,888,o),
(68,760,o),
(68,424,cs),
(68,120,o),
(276,-24,o),
(568,-24,cs)
);
},
{
closed = 1;
nodes = (
(656,324,o),
(588,372,o),
(588,456,cs),
(588,536,o),
(644,596,o),
(772,616,cs),
(860,632,o),
(936,648,o),
(992,672,c),
(992,544,ls),
(992,404,o),
(872,324,o),
(748,324,cs)
);
}
);
};
guides = (
{
pos = (-140,1148);
},
{
angle = 90;
pos = (1092,1700);
}
);
layerId = "B13287B5-92D1-41B8-805E-BD4EF0A96E1E";
name = "Jun 17, 21 1:00";
shapes = (
{
closed = 1;
nodes = (
(2133,-28,o),
(2416,176,o),
(2468,496,c),
(1964,496,l),
(1932,409,o),
(1841,360,o),
(1728,360,cs),
(1564,360,o),
(1468,468,o),
(1468,616,c),
(1468,944,l),
(1472,1076,o),
(1580,1168,o),
(1716,1168,cs),
(1852,1168,o),
(1956,1076,o),
(1960,944,c),
(1148,944,l),
(1148,640,l),
(2468,640,l),
(2468,768,ls),
(2468,1257,o),
(2168,1556,o),
(1704,1556,cs),
(1469,1556,o),
(1284,1480,o),
(1140,1264,c),
(1192,268,l),
(1288,64,o),
(1511,-28,o),
(1760,-28,cs)
);
},
{
closed = 1;
nodes = (
(654,324,o),
(588,370,o),
(588,456,cs),
(588,535,o),
(644,596,o),
(772,616,cs),
(860,630,o),
(934,648,o),
(992,672,c),
(992,544,ls),
(992,404,o),
(873,324,o),
(748,324,cs)
);
},
{
closed = 1;
nodes = (
(865,-24,o),
(1108,60,o),
(1204,232,c),
(1236,232,l),
(1260,1352,l),
(1192,1480,o),
(1048,1556,o),
(844,1556,cs),
(368,1556,o),
(148,1316,o),
(128,1036,c),
(636,1036,l),
(648,1132,o),
(720,1176,o),
(824,1176,cs),
(921,1176,o),
(988,1133,o),
(988,1052,cs),
(988,1048,ls),
(988,960,o),
(892,932,o),
(632,912,cs),
(316,888,o),
(68,760,o),
(68,424,cs),
(68,120,o),
(273,-24,o),
(608,-24,cs)
);
}
);
width = 2552;
},
{
anchors = (
{
name = top;
pos = (1254,1792);
}
);
associatedMasterId = "CD0E3B44-F66A-4791-B84C-A1128DC61275";
layerId = "2DAB98E5-AE3B-47C6-BD2E-2B45B48F7E82";
name = "Jun 17, 21 1:00";
shapes = (
{
closed = 1;
nodes = (
(2106,-32,o),
(2336,126,o),
(2406,360,c),
(2172,422,l),
(2112,264,o),
(1976,184,o),
(1792,184,cs),
(1510,184,o),
(1318,374,o),
(1318,718,cs),
(1318,858,ls),
(1318,1108,o),
(1488,1340,o),
(1768,1340,c),
(2022,1340,o),
(2184,1150,o),
(2184,894,c),
(1244,894,l),
(1244,686,l),
(2430,686,l),
(2430,788,ls),
(2430,1358,o),
(2092,1556,o),
(1768,1556,cs),
(1496,1556,o),
(1304,1418,o),
(1204,1186,c),
(1162,416,l),
(1216,150,o),
(1454,-32,o),
(1792,-32,c)
);
},
{
closed = 1;
nodes = (
(490,180,o),
(356,262,o),
(356,424,cs),
(356,602,o),
(516,658,o),
(700,682,cs),
(798,694,o),
(1062,722,o),
(1102,770,c),
(1102,556,ls),
(1102,364,o),
(952,180,o),
(676,180,cs)
);
},
{
closed = 1;
nodes = (
(904,-36,o),
(1140,106,o),
(1202,278,c),
(1222,278,l),
(1312,1224,l),
(1220,1516,o),
(940,1556,o),
(776,1556,cs),
(538,1556,o),
(274,1472,o),
(156,1192,c),
(388,1114,l),
(438,1226,o),
(562,1344,o),
(782,1344,cs),
(996,1344,o),
(1102,1230,o),
(1102,1036,cs),
(1102,1028,ls),
(1102,918,o),
(988,924,o),
(708,888,cs),
(422,852,o),
(112,788,o),
(112,436,cs),
(112,136,o),
(344,-36,o),
(636,-36,cs)
);
}
);
width = 2542;
},
{
anchors = (
{
name = top;
pos = (1268,1792);
}
);
associatedMasterId = "B1F27B51-9973-4381-9301-4FE46FE1CA59";
layerId = "02C584B2-2A30-4971-9F7A-63704298C68A";
name = "Jun 17, 21 1:00";
shapes = (
{
closed = 1;
nodes = (
(2088,-32,o),
(2252,156,o),
(2320,272,c),
(2268,308,l),
(2212,216,o),
(2072,32,o),
(1788,32,cs),
(1400,32,o),
(1184,368,o),
(1184,772,cs),
(1184,780,ls),
(1192,1188,o),
(1440,1496,o),
(1756,1496,cs),
(2068,1496,o),
(2320,1200,o),
(2320,832,c),
(1164,832,l),
(1164,768,l),
(2384,768,l),
(2384,832,ls),
(2384,1228,o),
(2112,1560,o),
(1756,1560,cs),
(1497,1560,o),
(1285,1386,o),
(1184,1124,c),
(1164,460,l),
(1256,168,o),
(1480,-32,o),
(1788,-32,cs)
);
},
{
closed = 1;
nodes = (
(396,32,o),
(220,184,o),
(220,416,cs),
(220,612,o),
(348,736,o),
(760,784,cs),
(936,804,o),
(1072,832,o),
(1148,888,c),
(1148,656,ls),
(1148,284,o),
(916,32,o),
(624,32,cs)
);
},
{
closed = 1;
nodes = (
(856,-32,o),
(1108,112,o),
(1200,480,c),
(1212,480,l),
(1212,1104,ls),
(1212,1364,o),
(1024,1560,o),
(712,1560,cs),
(472,1560,o),
(272,1440,o),
(200,1248,c),
(260,1224,l),
(324,1396,o),
(496,1496,o),
(712,1496,cs),
(976,1496,o),
(1148,1340,o),
(1148,1104,cs),
(1148,1012,ls),
(1148,892,o),
(948,868,o),
(736,844,cs),
(264,788,o),
(156,624,o),
(156,416,cs),
(156,128,o),
(372,-32,o),
(624,-32,cs)
);
}
);
width = 2532;
}
);
metricLeft = a;
metricRight = e;
unicode = 230;
userData = {
com.typemytype.robofont.guideline.magnetic.47oKtqvLS5 = 5;
interface.gridadjust.original = "{'width': 2377, 'leftMargin': 106, 'rightMargin': 93}";
"interface.width-adjustments" = (
-16
);
};
}
{
glyphname = Lslash;
kernLeft = B;
kernRight = L;
layers = (
{
layerId = "5C20EF92-B63D-42A8-8878-93C2863E0093";
shapes = (
{
closed = 1;
nodes = (
(28,1092,l),
(28,820,l),
(1032,1076,l),
(1032,1352,l)
);
},
{
pos = (144,0);
ref = L;
}
);
width = 1692;
},
{
layerId = "B1F27B51-9973-4381-9301-4FE46FE1CA59";
shapes = (
{
closed = 1;
nodes = (
(-32,932,l),
(-32,862,l),
(664,1118,l),
(664,1184,l)
);
},
{
alignment = -1;
pos = (-88,0);
ref = L;
}
);
width = 1456;
},
{
layerId = "CD0E3B44-F66A-4791-B84C-A1128DC61275";
shapes = (
{
closed = 1;
nodes = (
(38,1026,l),
(38,844,l),
(854,1100,l),
(854,1282,l)
);
},
{
alignment = -1;
pos = (4,0);
ref = L;
}
);
width = 1548;
}
);
unicode = 321;
userData = {
interface.gridadjust.original = "{'width': 1524, 'leftMargin': 52, 'rightMargin': 104}";
"interface.width-adjustments" = (
-16
);
};
}
{
glyphname = eng;
kernLeft = m;
kernRight = etagreek;
layers = (
{
layerId = "5C20EF92-B63D-42A8-8878-93C2863E0093";
shapes = (
{
closed = 1;
nodes = (
(1136,0,ls),
(1136,-86,o),
(1085,-132,o),
(980,-132,cs),
(917,-132,o),
(869,-124,o),
(820,-112,c),
(772,-556,l),
(865,-572,o),
(949,-576,o),
(1040,-576,cs),
(1437,-576,o),
(1688,-389,o),
(1688,0,cs),
(1688,32,l),
(1136,32,l)
);
},
{
ref = n;
}
);
width = 1828;
},
{
layerId = "B1F27B51-9973-4381-9301-4FE46FE1CA59";
shapes = (
{
closed = 1;
nodes = (
(1232,-236,ls),
(1232,-424,o),
(1160,-512,o),
(1020,-512,cs),
(983,-512,o),
(950,-506,o),
(924,-500,c),
(924,-558,l),
(948,-570,o),
(984,-576,o),
(1024,-576,cs),
(1198,-576,o),
(1296,-458,o),
(1296,-236,cs),
(1296,0,l),
(1232,0,l)
);
},
{
alignment = -1;
ref = n;
}
);
width = 1544;
},
{
associatedMasterId = "CD0E3B44-F66A-4791-B84C-A1128DC61275";
layerId = "CD8D81D7-45BF-4388-9EF1-CEE035655724";
shapes = (
{
closed = 1;
nodes = (
(1162,-160,ls),
(1162,-318,o),
(1068,-366,o),
(940,-366,cs),
(912,-366,o),
(884,-362,o),
(862,-358,c),
(862,-564,l),
(898,-576,o),
(952,-576,o),
(1000,-576,cs),
(1228,-576,o),
(1406,-428,o),
(1406,-160,cs),
(1406,0,l),
(1162,0,l)
);
},
{
alignment = -1;
ref = n;
}
);
width = 1588.80755;
},
{
layerId = "CD0E3B44-F66A-4791-B84C-A1128DC61275";
shapes = (
{
closed = 1;
nodes = (
(1172,-160,ls),
(1172,-318,o),
(1078,-366,o),
(950,-366,cs),
(922,-366,o),
(894,-362,o),
(872,-358,c),
(872,-564,l),
(908,-576,o),
(962,-576,o),
(1010,-576,cs),
(1238,-576,o),
(1416,-428,o),
(1416,-160,cs),
(1416,0,l),
(1172,0,l)
);
},
{
alignment = -1;
ref = n;
}
);
width = 1612;
}
);
metricLeft = n;
metricRight = jdotless;
unicode = 331;
userData = {
interface.gridadjust.original = "{'width': 1602, 'leftMargin': 197, 'rightMargin': 206}";
"interface.width-adjustments" = (
-16
);
};
}
{
glyphname = tonesix;
kernLeft = T;
layers = (
{
layerId = "5C20EF92-B63D-42A8-8878-93C2863E0093";
shapes = (
{
alignment = -1;
pos = (452,0);
ref = b;
},
{
closed = 1;
nodes = (
(76,2048,l),
(76,1600,l),
(1136,1600,l),
(1136,2048,l)
);
}
);
width = 2268;
},
{
layerId = "B1F27B51-9973-4381-9301-4FE46FE1CA59";
shapes = (
{
alignment = -1;
pos = (318,0);
ref = b;
},
{
closed = 1;
nodes = (
(140,2048,l),
(140,1984,l),
(670,1984,l),
(670,2048,l)
);
}
);
width = 1938;
},
{
associatedMasterId = "CD0E3B44-F66A-4791-B84C-A1128DC61275";
layerId = "2A7BE3CD-56D4-4A5B-9268-D88ADC263000";
shapes = (
{
closed = 1;
nodes = (
(72,1834,l),
(72,1718,l),
(298,1440,l),
(362,1440,l),
(362,2112,l),
(298,2112,l)
);
},
{
closed = 1;
nodes = (
(462,234,l),
(580,234,l),
(632,148,o),
(734,-32,o),
(1026,-32,cs),
(1408,-32,o),
(1676,274,o),
(1676,764,cs),
(1676,1250,o),
(1408,1556,o),
(1022,1556,cs),
(726,1556,o),
(632,1376,o),
(580,1294,c),
(462,1294,l)
);
},
{
closed = 1;
nodes = (
(1434,442,o),
(1284,186,o),
(990,186,cs),
(708,186,o),
(556,424,o),
(556,768,cs),
(556,1108,o),
(704,1338,o),
(990,1338,cs),
(1288,1338,o),
(1434,1090,o),
(1434,768,cs)
);
},
{
closed = 1;
nodes = (
(316,0,l),
(552,0,l),
(552,288,l),
(478,782,l),
(560,1176,l),
(560,2048,l),
(316,2048,l)
);
}
);
width = 1716.70943;
},
{
layerId = "CD0E3B44-F66A-4791-B84C-A1128DC61275";
shapes = (
{
alignment = -1;
pos = (382,0);
ref = b;
},
{
closed = 1;
nodes = (
(114,2048,l),
(114,1822,l),
(850,1822,l),
(850,2048,l)
);
}
);
width = 2092;
}
);
metricLeft = T;
metricRight = b;
unicode = 389;
userData = {
interface.gridadjust.original = "{'width': 1759, 'leftMargin': 138, 'rightMargin': 50}";
"interface.width-adjustments" = (
-16
);
};
}
{
glyphname = Schwa;
layers = (
{
background = {
shapes = (
{
closed = 1;
nodes = (
(1649,-28,o),
(2045,336,o),
(2044,856,cs),
(2044,1140,ls),
(2045,1660,o),
(1693,2032,o),
(1016,2032,cs),
(721,2032,o),
(373,1968,o),
(312,1944,c),
(384,1484,l),
(501,1512,o),
(713,1548,o),
(980,1548,cs),
(1393,1548,o),
(1509,1360,o),
(1508,1140,cs),
(1508,856,ls),
(1509,632,o),
(1385,452,o),
(1124,452,cs),
(841,452,o),
(725,568,o),
(724,720,cs),
(724,760,l),
(1628,760,l),
(1628,1204,l),
(188,1204,l),
(188,932,ls),
(189,344,o),
(517,-28,o),
(1124,-28,cs)
);
}
);
};
layerId = "5C20EF92-B63D-42A8-8878-93C2863E0093";
shapes = (
{
closed = 1;
nodes = (
(1665,-28,o),
(2044,336,o),
(2044,856,cs),
(2044,1184,ls),
(2044,1704,o),
(1693,2076,o),
(1016,2076,cs),
(721,2076,o),
(373,2012,o),
(312,1988,c),
(384,1528,l),
(501,1556,o),
(741,1592,o),
(948,1592,cs),
(1421,1592,o),
(1508,1404,o),
(1508,1184,cs),
(1508,856,ls),
(1508,632,o),
(1397,452,o),
(1098,452,cs),
(853,452,o),
(725,568,o),
(724,720,cs),
(724,760,l),
(1628,760,l),
(1628,1204,l),
(188,1204,l),
(188,932,ls),
(189,344,o),
(533,-28,o),
(1100,-28,cs)
);
}
);
width = 2232;
},
{
layerId = "B1F27B51-9973-4381-9301-4FE46FE1CA59";
shapes = (
{
closed = 1;
nodes = (
(1400,-28,o),
(1702,353,o),
(1702,954,cs),
(1702,1024,l),
(1702,1682,o),
(1394,2076,o),
(880,2076,cs),
(690,2076,o),
(524,2030,o),
(348,1930,c),
(374,1872,l),
(556,1971,o),
(705,2012,o),
(880,2012,cs),
(1358,2012,o),
(1638,1647,o),
(1638,1024,cs),
(1638,956,ls),
(1638,388,o),
(1365,36,o),
(924,36,cs),
(496,36,o),
(212,391,o),
(212,926,cs),
(212,932,l),
(1664,932,l),
(1666,996,l),
(146,996,l),
(146,964,ls),
(146,358,o),
(449,-28,o),
(924,-28,cs)
);
}
);
width = 1848;
},
{
associatedMasterId = "CD0E3B44-F66A-4791-B84C-A1128DC61275";
layerId = "30D9BB58-9793-4219-AD0D-E3D244A629B6";
shapes = (
{
closed = 1;
nodes = (
(1486,-28,o),
(1822,384,o),
(1822,938,cs),
(1822,1102,ls),
(1822,1702,o),
(1466,2076,o),
(906,2076,cs),
(694,2076,o),
(466,2020,o),
(346,1946,c),
(414,1730,l),
(574,1800,o),
(740,1834,o),
(888,1834,cs),
(1310,1834,o),
(1526,1564,o),
(1526,1102,cs),
(1526,938,ls),
(1526,504,o),
(1322,210,o),
(954,210,cs),
(644,210,o),
(446,414,o),
(446,802,cs),
(446,846,l),
(1640,846,l),
(1640,1068,l),
(156,1068,l),
(156,892,ls),
(156,306,o),
(478,-28,o),
(956,-28,cs)
);
}
);
width = 1973.29811;
},
{
layerId = "CD0E3B44-F66A-4791-B84C-A1128DC61275";
shapes = (
{
closed = 1;
nodes = (
(1496,-28,o),
(1832,384,o),
(1832,938,cs),
(1832,1102,ls),
(1832,1702,o),
(1476,2076,o),
(916,2076,cs),
(704,2076,o),
(476,2020,o),
(356,1946,c),
(424,1730,l),
(584,1800,o),
(750,1834,o),
(898,1834,cs),
(1320,1834,o),
(1536,1564,o),
(1536,1102,cs),
(1536,938,ls),
(1536,504,o),
(1332,210,o),
(964,210,cs),
(654,210,o),
(456,414,o),
(456,802,cs),
(456,846,l),
(1650,846,l),
(1650,1068,l),
(166,1068,l),
(166,892,ls),
(166,306,o),
(488,-28,o),
(966,-28,cs)
);
}
);
width = 1994;
}
);
unicode = 399;
userData = {
interface.gridadjust.original = "{'width': 1940, 'leftMargin': 120, 'rightMargin': 159}";
"interface.width-adjustments" = (
-16
);
};
}
{
glyphname = hv;
kernLeft = B;
kernRight = u;
layers = (
{
layerId = "5C20EF92-B63D-42A8-8878-93C2863E0093";
shapes = (
{
closed = 1;
nodes = (
(692,0,l),
(692,864,ls),
(693,1016,o),
(781,1108,o),
(916,1108,cs),
(1057,1108,o),
(1136,1016,o),
(1136,864,cs),
(1136,768,l),
(1688,768,l),
(1688,980,ls),
(1688,1316,o),
(1477,1556,o),
(1152,1556,cs),
(925,1556,o),
(757,1440,o),
(688,1244,c),
(672,1244,l),
(672,2048,l),
(140,2048,l),
(140,0,l)
);
},
{
closed = 1;
nodes = (
(2477,-28,o),
(2696,466,o),
(2696,1392,c),
(2696,1536,l),
(2144,1536,l),
(2144,1392,ls),
(2144,788,o),
(2074,420,o),
(1844,420,cs),
(1747,420,o),
(1688,485,o),
(1688,592,c),
(1688,768,l),
(1136,768,l),
(1136,592,ls),
(1136,226,o),
(1362,-28,o),
(1828,-28,cs)
);
}
);
width = 2836;
},
{
layerId = "B1F27B51-9973-4381-9301-4FE46FE1CA59";
shapes = (
{
closed = 1;
nodes = (
(304,0,l),
(304,1032,ls),
(304,1300,o),
(500,1492,o),
(772,1492,cs),
(1044,1492,o),
(1232,1304,o),
(1232,1032,cs),
(1232,680,l),
(1296,680,l),
(1296,1032,ls),
(1296,1340,o),
(1080,1556,o),
(772,1556,cs),
(563,1556,o),
(385,1454,o),
(312,1292,c),
(304,1292,l),
(304,2048,l),
(240,2048,l),
(240,0,l)
);
},
{
closed = 1;
nodes = (
(2079,-26,o),
(2280,453,o),
(2280,1396,cs),
(2280,1536,l),
(2216,1536,l),
(2216,1420,ls),
(2216,500,o),
(2037,38,o),
(1656,38,cs),
(1409,38,o),
(1296,211,o),
(1296,604,cs),
(1296,856,l),
(1232,856,l),
(1232,604,ls),
(1232,176,o),
(1372,-26,o),
(1656,-26,cs)
);
}
);
width = 2520;
},
{
associatedMasterId = "CD0E3B44-F66A-4791-B84C-A1128DC61275";
layerId = "EFAD111D-3372-4893-B470-02334B2EB262";
shapes = (
{
closed = 1;
nodes = (
(426,0,l),
(426,922,ls),
(426,1188,o),
(596,1338,o),
(826,1338,cs),
(1046,1338,o),
(1178,1200,o),
(1178,958,cs),
(1178,768,l),
(1422,768,l),
(1422,976,ls),
(1422,1370,o),
(1212,1556,o),
(898,1556,cs),
(656,1556,o),
(518,1454,o),
(446,1294,c),
(426,1294,l),
(426,2048,l),
(182,2048,l),
(182,0,l)
);
},
{
closed = 1;
nodes = (
(2108,-28,o),
(2422,370,o),
(2422,1330,cs),
(2422,1536,l),
(2178,1536,l),
(2178,1330,ls),
(2178,486,o),
(1960,186,o),
(1710,186,cs),
(1592,186,o),
(1422,254,o),
(1422,608,cs),
(1422,768,l),
(1178,768,l),
(1178,608,ls),
(1178,166,o),
(1406,-28,o),
(1694,-28,cs)
);
}
);
width = 2604.61132;
},
{
layerId = "CD0E3B44-F66A-4791-B84C-A1128DC61275";
shapes = (
{
closed = 1;
nodes = (
(438,0,l),
(438,922,ls),
(438,1188,o),
(608,1338,o),
(838,1338,cs),
(1058,1338,o),
(1190,1200,o),
(1190,958,cs),
(1190,768,l),
(1434,768,l),
(1434,976,ls),
(1434,1370,o),
(1224,1556,o),
(910,1556,cs),
(668,1556,o),
(530,1454,o),
(458,1294,c),
(438,1294,l),
(438,2048,l),
(194,2048,l),
(194,0,l)
);
},
{
closed = 1;
nodes = (
(2120,-28,o),
(2434,370,o),
(2434,1330,cs),
(2434,1536,l),
(2190,1536,l),
(2190,1330,ls),
(2190,486,o),
(1972,186,o),
(1722,186,cs),
(1604,186,o),
(1434,254,o),
(1434,608,cs),
(1434,768,l),
(1190,768,l),
(1190,608,ls),
(1190,166,o),
(1418,-28,o),
(1706,-28,cs)
);
}
);
width = 2628;
}
);
metricLeft = h;
metricRight = u;
note = "Note: Must be split in two, or conversion to quadratic curves will fail.";
unicode = 405;
userData = {
interface.gridadjust.original = "{'width': 2349, 'leftMargin': 188, 'rightMargin': 187}";
"interface.width-adjustments" = (
-16
);
};
}
{
glyphname = Nhook;
kernLeft = jdotless;
kernRight = H;
layers = (
{
layerId = "5C20EF92-B63D-42A8-8878-93C2863E0093";
shapes = (
{
closed = 1;
nodes = (
(204,-48,ls),
(204,-140,o),
(98,-160,o),
(-4,-160,c),
(-26,-160,o),
(-66,-164,o),
(-96,-160,c),
(-96,-568,l),
(-38,-576,o),
(90,-576,o),
(144,-576,c),
(434,-576,o),
(760,-532,o),
(760,-48,cs),
(760,0,l),
(204,0,l)
);
},
{
pos = (72,0);
ref = N;
}
);
width = 2108;
},
{
layerId = "B1F27B51-9973-4381-9301-4FE46FE1CA59";
shapes = (
{
closed = 1;
nodes = (
(222,-232,ls),
(222,-418,o),
(152,-508,o),
(8,-508,cs),
(-22,-508,o),
(-46,-505,o),
(-64,-500,c),
(-64,-564,l),
(-45,-569,o),
(-16,-572,o),
(14,-572,cs),
(190,-572,o),
(286,-452,o),
(286,-232,cs),
(286,0,l),
(222,0,l)
);
},
{
alignment = -1;
pos = (-66,0);
ref = N;
}
);
width = 2046;
},
{
associatedMasterId = "CD0E3B44-F66A-4791-B84C-A1128DC61275";
layerId = "FD858ADD-A43C-4969-A4F8-1D6B9CA0A7A2";
shapes = (
{
closed = 1;
nodes = (
(226,-158,ls),
(226,-316,o),
(134,-362,o),
(8,-362,cs),
(-20,-362,o),
(-50,-360,o),
(-70,-356,c),
(-70,-564,l),
(-32,-576,o),
(22,-576,o),
(70,-576,cs),
(294,-576,o),
(482,-430,o),
(482,-162,cs),
(482,0,l),
(226,0,l)
);
},
{
alignment = -1;
pos = (14,0);
ref = N;
}
);
width = 2067.80377;
},
{
layerId = "CD0E3B44-F66A-4791-B84C-A1128DC61275";
shapes = (
{
closed = 1;
nodes = (
(238,-158,ls),
(238,-316,o),
(146,-362,o),
(20,-362,cs),
(-8,-362,o),
(-38,-360,o),
(-58,-356,c),
(-58,-564,l),
(-20,-576,o),
(34,-576,o),
(82,-576,cs),
(306,-576,o),
(494,-430,o),
(494,-162,cs),
(494,0,l),
(238,0,l)
);
},
{
alignment = -1;
pos = (16,0);
ref = N;
}
);
width = 2094;
}
);
metricLeft = j;
metricRight = H;
unicode = 413;
userData = {
interface.gridadjust.original = "{'width': 2104, 'leftMargin': 0, 'rightMargin': 218}";
"interface.width-adjustments" = (
-16
);
};
}
{
glyphname = OI;
layers = (
{
background = {
shapes = (
{
closed = 1;
nodes = (
(1376,1284,l),
(1376,468,l),
(1327,436,o),
(1239,400,o),
(1088,400,cs),
(775,400,o),
(671,620,o),
(672,948,cs),
(672,1024,l),
(124,1020,l),
(124,948,ls),
(123,332,o),
(491,-28,o),
(1056,-28,cs),
(1503,-28,o),
(1783,132,o),
(1896,244,c),
(1896,1284,l)
);
},
{
closed = 1;
nodes = (
(1783,1876,o),
(1507,2032,o),
(1056,2032,cs),
(491,2032,o),
(123,1676,o),
(124,1056,cs),
(124,960,l),
(672,956,l),
(672,1056,ls),
(671,1404,o),
(759,1604,o),
(1092,1604,cs),
(1211,1604,o),
(1311,1588,o),
(1376,1540,c),
(1376,728,l),
(1896,736,l),
(1896,1760,l)
);
},
{
closed = 1;
nodes = (
(2248,2004,l),
(1600,1696,l),
(1600,1100,l),
(2120,1352,l),
(2120,-572,l),
(2632,-572,l),
(2632,2004,l)
);
}
);
};
layerId = "5C20EF92-B63D-42A8-8878-93C2863E0093";
shapes = (
{
closed = 1;
nodes = (
(1376,1328,l),
(1376,468,l),
(1327,436,o),
(1231,400,o),
(1100,400,cs),
(767,400,o),
(672,620,o),
(672,948,cs),
(672,1068,l),
(124,1064,l),
(124,948,ls),
(124,332,o),
(477,-28,o),
(1082,-28,cs),
(1489,-28,o),
(1783,132,o),
(1896,244,c),
(1896,1328,l)
);
},
{
closed = 1;
nodes = (
(1783,1920,o),
(1493,2076,o),
(1082,2076,cs),
(477,2076,o),
(124,1720,o),
(124,1100,cs),
(124,960,l),
(672,956,l),
(672,1100,ls),
(672,1448,o),
(751,1648,o),
(1104,1648,cs),
(1203,1648,o),
(1311,1632,o),
(1376,1584,c),
(1376,728,l),
(1896,736,l),
(1896,1804,l)
);
},
{
closed = 1;
nodes = (
(2248,2048,l),
(1600,1740,l),
(1600,1144,l),
(2120,1396,l),
(2120,-576,l),
(2632,-576,l),
(2632,2048,l)
);
}
);
width = 2764;
},
{
background = {
shapes = (
{
closed = 1;
nodes = (
(1484,1040,l),
(1484,254,l),
(1398,124,o),
(1212,36,o),
(1016,36,cs),
(603,36,o),
(270,404,o),
(268,924,cs),
(268,982,l),
(204,982,l),
(204,924,ls),
(204,370,o),
(570,-28,o),
(1012,-28,cs),
(1233,-28,o),
(1436,70,o),
(1548,238,c),
(1548,1040,l)
);
},
{
closed = 1;
nodes = (
(1422,1946,o),
(1224,2036,o),
(1012,2036,cs),
(550,2036,o),
(204,1608,o),
(204,1042,cs),
(204,964,l),
(268,964,l),
(268,1042,ls),
(268,1576,o),
(588,1972,o),
(1012,1972,cs),
(1202,1972,o),
(1385,1892,o),
(1484,1758,c),
(1484,922,l),
(1548,922,l),
(1548,1790,l)
);
},
{
closed = 1;
nodes = (
(1762,2004,l),
(1498,1796,l),
(1498,1714,l),
(1790,1944,l),
(1790,-572,l),
(1854,-572,l),
(1854,2004,l)
);
}
);
};
guides = (
{
pos = (970,1508);
}
);
layerId = "B1F27B51-9973-4381-9301-4FE46FE1CA59";
shapes = (
{
closed = 1;
nodes = (
(1452,1080,l),
(1452,254,l),
(1366,124,o),
(1180,36,o),
(984,36,cs),
(571,36,o),
(238,404,o),
(236,924,cs),
(236,982,l),
(172,982,l),
(172,924,ls),
(172,370,o),
(538,-28,o),
(980,-28,cs),
(1201,-28,o),
(1404,70,o),
(1516,238,c),
(1516,1080,l)
);
},
{
closed = 1;
nodes = (
(1390,1986,o),
(1192,2076,o),
(980,2076,cs),
(518,2076,o),
(172,1648,o),
(172,1082,cs),
(172,964,l),
(236,964,l),
(236,1082,ls),
(236,1616,o),
(556,2012,o),
(980,2012,cs),
(1170,2012,o),
(1353,1932,o),
(1452,1798,c),
(1452,922,l),
(1516,922,l),
(1516,1830,l)
);
},
{
closed = 1;
nodes = (
(1730,2048,l),
(1466,1840,l),
(1466,1758,l),
(1758,1988,l),
(1758,-576,l),
(1822,-576,l),
(1822,2048,l)
);
}
);
width = 2110;
},
{
associatedMasterId = "CD0E3B44-F66A-4791-B84C-A1128DC61275";
layerId = "069BC476-D908-427E-8C0E-6D3873B530EC";
shapes = (
{
closed = 1;
nodes = (
(1406,1050,l),
(1406,348,l),
(1318,252,o),
(1170,204,o),
(1010,204,cs),
(620,204,o),
(426,474,o),
(426,932,cs),
(426,1108,l),
(136,1104,l),
(136,932,ls),
(136,342,o),
(454,-28,o),
(994,-28,cs),
(1296,-28,o),
(1562,84,o),
(1684,272,c),
(1684,1050,l,{
name = hr00;
})
);
},
{
closed = 1;
nodes = (
(1568,1958,o),
(1306,2076,o),
(1018,2076,cs),
(464,2076,o),
(136,1718,o),
(136,1116,cs),
(136,956,l),
(426,956,l),
(426,1116,ls),
(426,1590,o),
(626,1840,o),
(1014,1840,cs),
(1180,1840,o),
(1328,1786,o),
(1406,1698,c),
(1406,1012,l),
(1684,1014,l),
(1684,1776,l)
);
},
{
closed = 1;
nodes = (
(1946,2048,l),
(1556,1888,l),
(1556,1648,l),
(1882,1766,l),
(1882,-576,l),
(2164,-576,l),
(2164,2048,l)
);
}
);
width = 2376.53585;
},
{
layerId = "CD0E3B44-F66A-4791-B84C-A1128DC61275";
shapes = (
{
closed = 1;
nodes = (
(1416,1050,l),
(1416,348,l),
(1328,252,o),
(1180,204,o),
(1020,204,cs),
(630,204,o),
(436,474,o),
(436,932,cs),
(436,1108,l),
(146,1104,l),
(146,932,ls),
(146,342,o),
(464,-28,o),
(1004,-28,cs),
(1306,-28,o),
(1572,84,o),
(1694,272,c),
(1694,1050,l,{
name = hr00;
})
);
},
{
closed = 1;
nodes = (
(1578,1958,o),
(1316,2076,o),
(1028,2076,cs),
(474,2076,o),
(146,1718,o),
(146,1116,cs),
(146,956,l),
(436,956,l),
(436,1116,ls),
(436,1590,o),
(636,1840,o),
(1024,1840,cs),
(1190,1840,o),
(1338,1786,o),
(1416,1698,c),
(1416,1012,l),
(1694,1014,l),
(1694,1776,l)
);
},
{
closed = 1;
nodes = (
(1956,2048,l),
(1566,1888,l),
(1566,1648,l),
(1892,1766,l),
(1892,-576,l),
(2174,-576,l),
(2174,2048,l)
);
}
);
width = 2400;
}
);
unicode = 418;
userData = {
interface.gridadjust.original = "{'width': 2409.0, 'leftMargin': 161, 'rightMargin': 232.0}";
"interface.width-adjustments" = (
-16
);
};
}
{
glyphname = oi;
layers = (
{
background = {
shapes = (
{
closed = 1;
nodes = (
(635,388,o),
(635,572,o),
(636,732,cs),
(636,756,ls),
(635,936,o),
(651,1104,o),
(840,1104,c),
(931,1104,o),
(983,1072,o),
(1020,1012,c),
(1020,836,l),
(1536,788,l),
(1536,1092,l),
(1463,1256,o),
(1223,1516,o),
(860,1516,cs),
(367,1516,o),
(123,1196,o),
(124,756,cs),
(124,732,ls),
(123,288,o),
(367,-28,o),
(860,-28,c),
(1263,-28,o),
(1435,144,o),
(1536,340,c),
(1536,904,l),
(1020,904,l),
(1020,452,l),
(987,408,o),
(927,388,o),
(848,388,cs)
);
},
{
closed = 1;
nodes = (
(1848,1488,l),
(1316,1276,l),
(1316,840,l),
(1664,940,l),
(1664,-572,l),
(2184,-572,l),
(2184,1488,l)
);
}
);
};
guides = (
{
angle = 90;
pos = (1244,0);
}
);
layerId = "5C20EF92-B63D-42A8-8878-93C2863E0093";
shapes = (
{
closed = 1;
nodes = (
(635,388,o),
(635,572,o),
(636,732,cs),
(636,756,ls),
(636,976,o),
(651,1144,o),
(840,1144,c),
(931,1144,o),
(983,1112,o),
(1020,1052,c),
(1020,876,l),
(1536,828,l),
(1536,1132,l),
(1463,1296,o),
(1223,1556,o),
(860,1556,cs),
(367,1556,o),
(124,1236,o),
(124,756,cs),
(124,732,ls),
(123,288,o),
(367,-28,o),
(860,-28,c),
(1263,-28,o),
(1435,144,o),
(1536,340,c),
(1536,944,l),
(1020,944,l),
(1020,452,l),
(987,408,o),
(927,388,o),
(848,388,cs)
);
},
{
closed = 1;
nodes = (
(1848,1536,l),
(1316,1324,l),
(1316,888,l),
(1664,988,l),
(1664,-576,l),
(2184,-576,l),
(2184,1536,l)
);
}
);
width = 2304;
},
{
background = {
shapes = (
{
closed = 1;
nodes = (
(371,32,o),
(144,326,o),
(144,740,cs),
(144,744,ls),
(144,1160,o),
(372,1456,o),
(696,1456,cs),
(798,1456,o),
(892,1428,o),
(970,1382,c),
(970,610,l),
(1034,610,l),
(1034,1420,l),
(926,1484,o),
(818,1520,o),
(696,1520,cs),
(334,1520,o),
(80,1198,o),
(80,744,cs),
(80,740,ls),
(80,290,o),
(334,-32,o),
(696,-32,cs),
(817,-32,o),
(923,4,o),
(1034,80,c),
(1034,974,l),
(970,974,l),
(970,114,l),
(892,60,o),
(798,32,o),
(696,32,cs)
);
},
{
closed = 1;
nodes = (
(1292,1488,l),
(1018,1306,l),
(1018,1230,l),
(1316,1428,l),
(1316,-572,l),
(1380,-572,l),
(1380,1488,l)
);
}
);
};
layerId = "B1F27B51-9973-4381-9301-4FE46FE1CA59";
shapes = (
{
closed = 1;
nodes = (
(339,32,o),
(112,326,o),
(112,740,cs),
(112,744,ls),
(112,1200,o),
(340,1496,o),
(664,1496,cs),
(766,1496,o),
(860,1468,o),
(938,1422,c),
(938,610,l),
(1002,610,l),
(1002,1460,l),
(894,1524,o),
(786,1560,o),
(664,1560,cs),
(302,1560,o),
(48,1238,o),
(48,744,cs),
(48,740,ls),
(48,290,o),
(302,-32,o),
(664,-32,cs),
(785,-32,o),
(891,4,o),
(1002,80,c),
(1002,1014,l),
(938,1014,l),
(938,114,l),
(860,60,o),
(766,32,o),
(664,32,cs)
);
},
{
closed = 1;
nodes = (
(1260,1536,l),
(986,1354,l),
(986,1278,l),
(1284,1476,l),
(1284,-576,l),
(1348,-576,l),
(1348,1536,l)
);
}
);
width = 1396;
},
{
associatedMasterId = "CD0E3B44-F66A-4791-B84C-A1128DC61275";
layerId = "5CD629B2-F54C-4B64-8EA2-83EEF5F5BB90";
shapes = (
{
closed = 1;
nodes = (
(494,196,o),
(346,388,o),
(346,716,cs),
(346,772,ls),
(346,1062,o),
(428,1332,o),
(726,1332,cs),
(814,1332,o),
(882,1308,o),
(934,1266,c),
(934,704,l),
(1216,704,l),
(1216,1338,l),
(1112,1472,o),
(946,1556,o),
(734,1556,cs),
(282,1556,o),
(64,1208,o),
(64,772,cs),
(64,716,ls),
(64,320,o),
(290,-28,o),
(722,-28,cs),
(944,-28,o),
(1108,62,o),
(1216,192,c),
(1216,752,l),
(934,752,l),
(934,256,l),
(878,220,o),
(818,196,o),
(734,196,cs)
);
},
{
closed = 1;
nodes = (
(1442,1536,l),
(1082,1352,l),
(1082,1002,l),
(1382,1176,l),
(1382,-576,l),
(1660,-576,l),
(1660,1536,l)
);
}
);
width = 1725.3434;
},
{
layerId = "CD0E3B44-F66A-4791-B84C-A1128DC61275";
shapes = (
{
closed = 1;
nodes = (
(504,196,o),
(356,388,o),
(356,716,cs),
(356,772,ls),
(356,1062,o),
(438,1332,o),
(736,1332,cs),
(824,1332,o),
(892,1308,o),
(944,1266,c),
(944,704,l),
(1226,704,l),
(1226,1338,l),
(1122,1472,o),
(956,1556,o),
(744,1556,cs),
(292,1556,o),
(74,1208,o),
(74,772,cs),
(74,716,ls),
(74,320,o),
(300,-28,o),
(732,-28,cs),
(954,-28,o),
(1118,62,o),
(1226,192,c),
(1226,752,l),
(944,752,l),
(944,256,l),
(888,220,o),
(828,196,o),
(744,196,cs)
);
},
{
closed = 1;
nodes = (
(1452,1536,l),
(1092,1352,l),
(1092,1002,l),
(1392,1176,l),
(1392,-576,l),
(1670,-576,l),
(1670,1536,l)
);
}
);
width = 1744;
}
);
unicode = 419;
userData = {
interface.gridadjust.original = "{'width': 1910, 'leftMargin': 127, 'rightMargin': 198}";
"interface.width-adjustments" = (
-16
);
};
}
{
glyphname = YR;
layers = (
{
background = {
shapes = (
{
closed = 1;
nodes = (
(668,1864,l),
(668,2144,l),
(132,2144,l),
(132,1864,l)
);
},
{
closed = 1;
nodes = (
(128,0,l),
(668,0,l),
(668,1572,l),
(976,1572,ls),
(1144,1572,o),
(1244,1484,o),
(1244,1332,cs),
(1244,1180,o),
(1148,1096,o),
(976,1096,cs),
(456,1096,l),
(460,668,l),
(1160,668,l),
(1344,780,l),
(1600,884,o),
(1780,1024,o),
(1780,1396,cs),
(1780,1792,o),
(1460,2004,o),
(976,2004,cs),
(128,2004,l,{
name = hr01;
})
);
},
{
closed = 1;
nodes = (
(2096,-472,l),
(2096,-452,l),
(1380,880,l),
(812,880,l),
(1520,-472,l)
);
}
);
};
layerId = "5C20EF92-B63D-42A8-8878-93C2863E0093";
shapes = (
{
closed = 1;
nodes = (
(664,1908,l),
(664,2188,l),
(128,2188,l),
(128,1908,l)
);
},
{
closed = 1;
nodes = (
(128,0,l),
(668,0,l),
(668,1616,l),
(976,1616,ls),
(1144,1616,o),
(1244,1528,o),
(1244,1376,cs),
(1244,1224,o),
(1148,1140,o),
(976,1140,cs),
(456,1140,l),
(460,712,l),
(1160,712,l),
(1344,824,l),
(1600,928,o),
(1780,1068,o),
(1780,1440,cs),
(1780,1836,o),
(1460,2048,o),
(976,2048,cs),
(128,2048,l,{
name = hr01;
})
);
},
{
closed = 1;
nodes = (
(2096,-472,l),
(2096,-452,l),
(1380,880,l),
(812,880,l),
(1520,-472,l)
);
}
);
width = 2224;
},
{
background = {
shapes = (
{
closed = 1;
nodes = (
(214,1864,l),
(214,2144,l),
(150,2144,l),
(150,1864,l)
);
},
{
closed = 1;
nodes = (
(150,0,l),
(214,0,l),
(214,1944,l),
(750,1944,ls),
(1056,1944,o),
(1273,1738,o),
(1274,1424,cs),
(1275,1112,o),
(1056,908,o),
(824,908,cs),
(182,908,l),
(182,844,l),
(890,844,l),
(908,850,l),
(1166,912,o),
(1338,1132,o),
(1338,1424,cs),
(1338,1775,o),
(1093,2008,o),
(750,2008,cs),
(150,2008,l)
);
},
{
closed = 1;
nodes = (
(1684,-512,l),
(1684,-504,l),
(930,892,l),
(858,892,l),
(1616,-512,l)
);
}
);
};
guides = (
{
pos = (296,2588);
}
);
layerId = "B1F27B51-9973-4381-9301-4FE46FE1CA59";
shapes = (
{
closed = 1;
nodes = (
(182,1904,l),
(182,2184,l),
(118,2184,l),
(118,1904,l)
);
},
{
closed = 1;
nodes = (
(118,0,l),
(182,0,l),
(182,1984,l),
(718,1984,ls),
(1024,1984,o),
(1241,1778,o),
(1242,1464,cs),
(1243,1152,o),
(1024,948,o),
(792,948,cs),
(150,948,l),
(150,884,l),
(858,884,l),
(876,890,l),
(1134,952,o),
(1306,1172,o),
(1306,1464,cs),
(1306,1815,o),
(1061,2048,o),
(718,2048,cs),
(118,2048,l)
);
},
{
closed = 1;
nodes = (
(1652,-512,l),
(1652,-504,l),
(886,914,l),
(814,914,l),
(1584,-512,l)
);
}
);
width = 1796;
},
{
associatedMasterId = "CD0E3B44-F66A-4791-B84C-A1128DC61275";
layerId = "CC675EEE-772D-43BE-A6E8-C99FAD578A23";
shapes = (
{
closed = 1;
nodes = (
(414,1910,l),
(414,2190,l),
(120,2190,l),
(120,1910,l,{
name = hr00;
})
);
},
{
closed = 1;
nodes = (
(120,0,l),
(414,0,l),
(414,1814,l),
(792,1814,ls),
(1088,1814,o),
(1208,1666,o),
(1208,1444,cs),
(1208,1242,o),
(1070,1084,o),
(792,1084,cs),
(346,1084,l),
(346,850,l),
(956,850,l),
(1036,880,l),
(1326,962,o),
(1498,1168,o),
(1498,1446,cs),
(1498,1838,o),
(1248,2050,o),
(792,2050,cs),
(120,2050,l)
);
},
{
closed = 1;
nodes = (
(1854,-496,l),
(1854,-480,l),
(1102,912,l),
(796,912,l),
(1542,-496,l)
);
}
);
width = 1973.10189;
},
{
layerId = "CD0E3B44-F66A-4791-B84C-A1128DC61275";
shapes = (
{
closed = 1;
nodes = (
(424,1910,l),
(424,2190,l),
(130,2190,l),
(130,1910,l,{
name = hr00;
})
);
},
{
closed = 1;
nodes = (
(130,0,l),
(424,0,l),
(424,1814,l),
(802,1814,ls),
(1098,1814,o),
(1218,1666,o),
(1218,1444,cs),
(1218,1242,o),
(1080,1084,o),
(802,1084,cs),
(356,1084,l),
(356,850,l),
(966,850,l),
(1046,880,l),
(1336,962,o),
(1508,1168,o),
(1508,1446,cs),
(1508,1838,o),
(1258,2050,o),
(802,2050,cs),
(130,2050,l)
);
},
{
closed = 1;
nodes = (
(1864,-496,l),
(1864,-480,l),
(1112,912,l),
(806,912,l),
(1552,-496,l)
);
}
);
width = 1994;
}
);
unicode = 422;
userData = {
interface.gridadjust.original = "{'width': 1939, 'leftMargin': 228, 'rightMargin': -18}";
"interface.width-adjustments" = (
-16
);
};
}
{
glyphname = thook;
layers = (
{
layerId = "5C20EF92-B63D-42A8-8878-93C2863E0093";
shapes = (
{
closed = 1;
nodes = (
(916,1608,ls),
(916,1760,o),
(1076,1788,o),
(1176,1788,cs),
(1228,1788,o),
(1272,1780,o),
(1296,1776,c),
(1296,2116,l),
(1224,2132,o),
(1156,2140,o),
(1024,2140,cs),
(688,2140,o),
(404,2076,o),
(404,1608,cs),
(404,1368,l),
(916,1368,l,{
name = hr00;
})
);
},
{
closed = 1;
nodes = (
(216,1488,l),
(216,1120,l),
(1172,1120,l),
(1172,1488,l)
);
},
{
closed = 1;
nodes = (
(404,436,l),
(404,108,o),
(584,-28,o),
(912,-28,cs),
(1008,-28,o),
(1100,-20,o),
(1196,16,c),
(1196,392,l),
(1160,388,o),
(1132,388,o),
(1076,388,cs),
(956,388,o),
(916,416,o),
(916,512,c),
(916,1540,l),
(404,1540,l)
);
}
);
width = 1512;
},
{
layerId = "B1F27B51-9973-4381-9301-4FE46FE1CA59";
shapes = (
{
closed = 1;
nodes = (
(276,1844,ls),
(276,2013,o),
(325,2076,o),
(466,2076,cs),
(492,2076,o),
(529,2074,o),
(564,2070,c),
(564,2134,l),
(530,2138,o),
(493,2140,o),
(466,2140,cs),
(290,2140,o),
(212,2051,o),
(212,1844,cs),
(212,1548,l),
(276,1548,l,{
name = hr00;
})
);
},
{
closed = 1;
nodes = (
(-12,1536,l),
(-12,1472,l),
(596,1472,l),
(596,1536,l)
);
},
{
closed = 1;
nodes = (
(212,324,ls),
(212,105,o),
(318,-28,o),
(512,-28,cs),
(554,-28,o),
(585,-22,o),
(608,-14,c),
(608,50,l),
(577,42,o),
(540,36,o),
(504,36,cs),
(354,36,o),
(276,144,o),
(276,324,cs),
(276,1804,l),
(212,1804,l)
);
}
);
width = 530;
},
{
layerId = "CD0E3B44-F66A-4791-B84C-A1128DC61275";
shapes = (
{
closed = 1;
nodes = (
(618,1730,ls),
(618,1890,o),
(700,1946,o),
(826,1946,cs),
(848,1946,o),
(880,1942,o),
(904,1934,c),
(904,2122,l),
(862,2134,o),
(806,2142,o),
(764,2142,cs),
(534,2142,o),
(336,2000,o),
(336,1730,cs),
(336,1528,l),
(618,1528,l)
);
},
{
closed = 1;
nodes = (
(70,1488,l),
(70,1280,l),
(888,1280,l),
(888,1488,l)
);
},
{
closed = 1;
nodes = (
(336,412,l),
(336,96,o),
(496,-28,o),
(688,-28,cs),
(784,-28,o),
(852,-12,o),
(894,0,c),
(894,224,l),
(868,220,o),
(818,208,o),
(774,208,cs),
(692,208,o),
(618,252,o),
(618,414,c),
(618,1572,l),
(336,1572,l)
);
}
);
width = 970;
}
);
unicode = 429;
userData = {
interface.gridadjust.original = "{'width': 941, 'leftMargin': 30, 'rightMargin': 83}";
"interface.width-adjustments" = (
-16
);
};
}
{
glyphname = Uhorn;
kernLeft = U;
kernRight = T;
layers = (
{
layerId = "5C20EF92-B63D-42A8-8878-93C2863E0093";
shapes = (
{
closed = 1;
nodes = (
(2080,1824,o),
(2084,1652,o),
(1760,1652,c),
(1760,1408,l),
(2260,1408,o),
(2384,1668,o),
(2384,2088,c),
(2080,2088,l)
);
},
{
ref = U;
}
);
width = 2460;
},
{
layerId = "B1F27B51-9973-4381-9301-4FE46FE1CA59";
shapes = (
{
closed = 1;
nodes = (
(2027,1985,o),
(1961,1897,o),
(1752,1844,c),
(1752,1780,l),
(1996,1832,o),
(2093,1952,o),
(2092,2204,c),
(2028,2204,l)
);
},
{
alignment = -1;
ref = U;
}
);
width = 2232;
},
{
associatedMasterId = "CD0E3B44-F66A-4791-B84C-A1128DC61275";
layerId = "A0C88596-3DA6-4C9D-A463-E86E95266A16";
shapes = (
{
closed = 1;
nodes = (
(2036,1906,o),
(1962,1766,o),
(1682,1766,c),
(1682,1568,l),
(2108,1568,o),
(2270,1778,o),
(2270,2170,c),
(2036,2170,l)
);
},
{
alignment = -1;
ref = U;
}
);
width = 2372.98113;
},
{
layerId = "CD0E3B44-F66A-4791-B84C-A1128DC61275";
shapes = (
{
closed = 1;
nodes = (
(2046,1906,o),
(1972,1766,o),
(1692,1766,c),
(1692,1568,l),
(2118,1568,o),
(2280,1778,o),
(2280,2170,c),
(2046,2170,l)
);
},
{
alignment = -1;
ref = U;
}
);
width = 2394;
}
);
metricLeft = U;
metricRight = T;
unicode = 431;
userData = {
com.typemytype.robofont.guideline.magnetic.w9xhz5LEo8 = 5;
interface.gridadjust.original = "{'width': 1968, 'leftMargin': 256, 'rightMargin': -199}";
};
}
{
glyphname = ezhreversed;
kernRight = T.sc;
layers = (
{
anchors = (
{
name = top;
pos = (952,1792);
}
);
layerId = "5C20EF92-B63D-42A8-8878-93C2863E0093";
shapes = (
{
closed = 1;
nodes = (
(1236,112,l),
(1232,-7,o),
(1113,-92,o),
(960,-92,cs),
(800,-92,o),
(700,2,o),
(700,124,cs),
(700,258,o),
(822,336,o),
(992,336,cs),
(1252,336,l),
(1252,704,l),
(836,1080,l),
(836,1092,l),
(1692,1092,l),
(1692,1536,l),
(176,1536,l),
(176,1136,l),
(728,652,l),
(728,636,l),
(244,576,o),
(112,303,o),
(112,76,cs),
(112,-297,o),
(482,-540,o),
(960,-540,cs),
(1466,-540,o),
(1792,-268,o),
(1796,112,c)
);
}
);
width = 1900;
},
{
anchors = (
{
name = top;
pos = (812,1792);
}
);
layerId = "B1F27B51-9973-4381-9301-4FE46FE1CA59";
shapes = (
{
closed = 1;
nodes = (
(1368,2,l),
(1368,-274,o),
(1132,-474,o),
(824,-474,cs),
(479,-474,o),
(280,-224,o),
(280,58,cs),
(280,373,o),
(530,594,o),
(1004,594,cs),
(1008,594,l),
(1008,658,l),
(364,1466,l),
(364,1474,l),
(1348,1474,l),
(1348,1538,l),
(268,1538,l),
(268,1486,l),
(924,662,l),
(924,654,l),
(501,635,o),
(216,419,o),
(216,58,cs),
(216,-266,o),
(447,-538,o),
(824,-538,cs),
(1169,-538,o),
(1432,-310,o),
(1432,2,c)
);
}
);
width = 1624;
},
{
anchors = (
{
name = top;
pos = (866,1792);
}
);
layerId = "CD0E3B44-F66A-4791-B84C-A1128DC61275";
shapes = (
{
closed = 1;
nodes = (
(1314,2,l),
(1292,-204,o),
(1108,-314,o),
(874,-314,cs),
(622,-314,o),
(426,-186,o),
(426,66,cs),
(426,284,o),
(572,480,o),
(944,480,cs),
(1112,480,l),
(1112,684,l),
(602,1294,l),
(602,1310,l),
(1474,1310,l),
(1474,1536,l),
(254,1536,l),
(254,1350,l),
(802,692,l),
(802,676,l),
(446,658,o),
(174,402,o),
(174,64,cs),
(174,-286,o),
(466,-540,o),
(878,-540,cs),
(1246,-540,o),
(1550,-340,o),
(1574,2,c)
);
}
);
width = 1740;
}
);
metricLeft = "=|three.1";
metricRight = "=|three.1";
note = "mirror of three.1";
unicode = 441;
userData = {
interface.gridadjust.original = "{'width': 1588, 'leftMargin': 143, 'rightMargin': 115}";
"interface.width-adjustments" = (
-16
);
};
}
{
glyphname = Tonefive;
layers = (
{
layerId = "5C20EF92-B63D-42A8-8878-93C2863E0093";
shapes = (
{
closed = 1;
nodes = (
(104,2048,l),
(104,1604,l),
(548,1604,l),
(548,2048,l)
);
},
{
pos = (80,0);
ref = five;
}
);
width = 1864;
},
{
layerId = "B1F27B51-9973-4381-9301-4FE46FE1CA59";
shapes = (
{
closed = 1;
nodes = (
(52,2048,l),
(52,1984,l),
(384,1984,l),
(384,2048,l)
);
},
{
alignment = -1;
pos = (-48,0);
ref = five;
}
);
width = 1506;
},
{
associatedMasterId = "B1F27B51-9973-4381-9301-4FE46FE1CA59";
layerId = "64AB79B3-1332-4181-BA6A-2F36CD0AA979";
name = "May 22, 21 14:06";
shapes = (
{
closed = 1;
nodes = (
(52,2048,l),
(52,1984,l),
(384,1984,l),
(384,2048,l)
);
},
{
alignment = -1;
pos = (-48,0);
ref = five;
}
);
width = 1506;
},
{
associatedMasterId = "CD0E3B44-F66A-4791-B84C-A1128DC61275";
layerId = "0EC5BB5F-DC50-48D2-8E4B-AE957B0F94A0";
shapes = (
{
closed = 1;
nodes = (
(60,2048,l),
(60,1822,l),
(504,1822,l),
(504,2048,l,{
name = hr00;
})
);
},
{
alignment = -1;
pos = (2,0);
ref = five;
}
);
width = 1620.90566;
},
{
layerId = "CD0E3B44-F66A-4791-B84C-A1128DC61275";
shapes = (
{
closed = 1;
nodes = (
(70,2048,l),
(70,1822,l),
(514,1822,l),
(514,2048,l,{
name = hr00;
})
);
},
{
alignment = -1;
pos = (2,0);
ref = five;
}
);
width = 1644;
}
);
unicode = 444;
userData = {
interface.gridadjust.original = "{'width': 1587, 'leftMargin': 89, 'rightMargin': 43}";
"interface.width-adjustments" = (
-16
);
};
}
{
glyphname = wynn;
layers = (
{
layerId = "5C20EF92-B63D-42A8-8878-93C2863E0093";
shapes = (
{
closed = 1;
nodes = (
(744,1536,l),
(256,1536,l),
(256,-572,l),
(776,-572,l),
(776,1252,l)
);
},
{
closed = 1;
nodes = (
(727,1048,o),
(787,1148,o),
(988,1148,cs),
(1163,1148,o),
(1204,992,o),
(1204,808,cs),
(1204,732,ls),
(1204,352,o),
(935,124,o),
(540,112,c),
(600,-292,l),
(1327,-136,o),
(1724,144,o),
(1724,732,cs),
(1724,808,ls),
(1724,1256,o),
(1507,1556,o),
(1116,1556,cs),
(735,1556,o),
(603,1192,o),
(540,784,c),
(744,788,l)
);
}
);
width = 1980;
},
{
background = {
shapes = (
{
closed = 1;
nodes = (
(250,1486,l),
(196,1486,l),
(196,-572,l),
(260,-572,l),
(260,1260,l)
);
},
{
closed = 1;
nodes = (
(392,1366,o),
(563,1452,o),
(748,1452,cs),
(1063,1452,o),
(1254,1224,o),
(1254,846,cs),
(1254,816,ls),
(1254,336,o),
(970,69,o),
(216,-162,c),
(216,-226,l),
(994,-6,o),
(1320,303,o),
(1320,820,cs),
(1320,842,ls),
(1320,1256,o),
(1099,1516,o),
(748,1516,cs),
(550,1516,o),
(371,1429,o),
(214,1242,c),
(244,1184,l)
);
}
);
};
layerId = "B1F27B51-9973-4381-9301-4FE46FE1CA59";
shapes = (
{
closed = 1;
nodes = (
(218,1536,l),
(164,1536,l),
(164,-572,l),
(228,-572,l),
(228,1310,l)
);
},
{
closed = 1;
nodes = (
(360,1406,o),
(531,1496,o),
(716,1496,cs),
(1031,1496,o),
(1222,1264,o),
(1222,886,cs),
(1222,816,ls),
(1222,336,o),
(938,69,o),
(184,-162,c),
(184,-226,l),
(962,-6,o),
(1288,303,o),
(1288,820,cs),
(1288,882,ls),
(1288,1296,o),
(1067,1560,o),
(716,1560,cs),
(518,1560,o),
(339,1469,o),
(182,1282,c),
(212,1224,l)
);
}
);
width = 1506;
},
{
associatedMasterId = "CD0E3B44-F66A-4791-B84C-A1128DC61275";
layerId = "13D746BD-7C30-4319-9F05-A93E080A7322";
shapes = (
{
closed = 1;
nodes = (
(478,1536,l),
(220,1536,l),
(220,-572,l),
(502,-572,l),
(502,1252,l)
);
},
{
closed = 1;
nodes = (
(474,1142,o),
(588,1324,o),
(828,1324,cs),
(1098,1324,o),
(1216,1082,o),
(1216,796,cs),
(1216,728,ls),
(1216,286,o),
(872,84,o),
(410,-24,c),
(412,-250,l),
(1082,-62,o),
(1498,156,o),
(1498,728,cs),
(1498,796,ls),
(1498,1248,o),
(1292,1556,o),
(912,1556,cs),
(532,1556,o),
(342,1278,o),
(298,826,c),
(432,936,l)
);
}
);
width = 1717.39623;
},
{
layerId = "CD0E3B44-F66A-4791-B84C-A1128DC61275";
shapes = (
{
closed = 1;
nodes = (
(488,1536,l),
(230,1536,l),
(230,-572,l),
(512,-572,l),
(512,1252,l)
);
},
{
closed = 1;
nodes = (
(484,1142,o),
(598,1324,o),
(838,1324,cs),
(1108,1324,o),
(1226,1082,o),
(1226,796,cs),
(1226,728,ls),
(1226,286,o),
(882,84,o),
(420,-24,c),
(422,-250,l),
(1092,-62,o),
(1508,156,o),
(1508,728,cs),
(1508,796,ls),
(1508,1248,o),
(1302,1556,o),
(922,1556,cs),
(542,1556,o),
(352,1278,o),
(308,826,c),
(442,936,l)
);
}
);
width = 1738;
}
);
unicode = 447;
userData = {
interface.gridadjust.original = "{'width': 1585, 'leftMargin': 188, 'rightMargin': 126}";
"interface.width-adjustments" = (
-16
);
};
}
{
glyphname = uni0238;
layers = (
{
background = {
shapes = (
{
closed = 1;
nodes = (
(2588,1192,o),
(2400,1516,o),
(1980,1516,cs),
(1608,1516,o),
(1468,1136,o),
(1408,756,c),
(1408,740,l),
(1472,332,o),
(1616,-28,o),
(1984,-28,cs),
(2404,-28,o),
(2588,280,o),
(2588,732,cs),
(2588,760,l)
);
},
{
closed = 1;
nodes = (
(2076,516,o),
(2056,380,o),
(1856,380,cs),
(1636,380,o),
(1600,508,o),
(1596,732,cs),
(1596,760,ls),
(1596,968,o),
(1640,1108,o),
(1852,1108,cs),
(2052,1108,o),
(2076,932,o),
(2076,760,cs),
(2076,732,l)
);
},
{
closed = 1;
nodes = (
(1180,0,l),
(1648,0,l),
(1648,2112,l),
(1128,2112,l),
(1128,360,l)
);
},
{
closed = 1;
nodes = (
(180,292,o),
(384,-28,o),
(780,-28,cs),
(1136,-28,o),
(1304,340,o),
(1368,724,c),
(1368,732,l),
(1304,1156,o),
(1136,1516,o),
(784,1516,cs),
(384,1516,o),
(180,1204,o),
(180,756,cs),
(180,728,l)
);
},
{
closed = 1;
nodes = (
(700,968,o),
(752,1108,o),
(916,1108,cs),
(1096,1108,o),
(1168,996,o),
(1172,744,cs),
(1172,716,ls),
(1172,508,o),
(1092,384,o),
(916,384,cs),
(736,384,o),
(700,548,o),
(700,728,cs),
(700,756,l)
);
}
);
};
layerId = "5C20EF92-B63D-42A8-8878-93C2863E0093";
shapes = (
{
closed = 1;
nodes = (
(2596,1244,o),
(2372,1556,o),
(2012,1556,cs),
(1620,1556,o),
(1472,1196,o),
(1408,752,c),
(1408,744,l),
(1472,340,o),
(1620,-28,o),
(2016,-28,cs),
(2372,-28,o),
(2596,292,o),
(2596,748,c),
(2596,776,ls)
);
},
{
closed = 1;
nodes = (
(2076,548,o),
(2048,384,o),
(1856,384,cs),
(1692,384,o),
(1604,508,o),
(1604,736,cs),
(1604,764,ls),
(1604,1017,o),
(1692,1148,o),
(1856,1148,cs),
(2024,1148,o),
(2076,1008,o),
(2076,776,c),
(2076,748,ls)
);
},
{
closed = 1;
nodes = (
(1180,0,l),
(1648,0,l),
(1648,2048,l),
(1128,2048,l),
(1128,360,l)
);
},
{
closed = 1;
nodes = (
(180,292,o),
(404,-28,o),
(760,-28,cs),
(1156,-28,o),
(1304,340,o),
(1368,744,c),
(1368,752,l),
(1304,1196,o),
(1156,1556,o),
(764,1556,cs),
(404,1556,o),
(180,1244,o),
(180,776,cs),
(180,748,l)
);
},
{
closed = 1;
nodes = (
(700,1008,o),
(752,1148,o),
(920,1148,cs),
(1084,1148,o),
(1172,1017,o),
(1172,764,cs),
(1172,736,ls),
(1172,508,o),
(1084,384,o),
(920,384,cs),
(728,384,o),
(700,548,o),
(700,748,cs),
(700,776,l)
);
}
);
width = 2776;
},
{
background = {
shapes = (
{
closed = 1;
nodes = (
(2294,1213,o),
(2074,1520,o),
(1738,1520,cs),
(1538,1520,o),
(1332,1399,o),
(1210,1210,c),
(1210,278,l),
(1334,88,o),
(1538,-32,o),
(1738,-32,cs),
(2074,-32,o),
(2294,272,o),
(2294,738,cs),
(2294,744,ls)
);
},
{
closed = 1;
nodes = (
(2230,313,o),
(2037,32,o),
(1746,32,cs),
(1550,32,o),
(1344,155,o),
(1230,340,c),
(1230,1148,l),
(1343,1333,o),
(1549,1456,o),
(1746,1456,cs),
(2038,1456,o),
(2230,1173,o),
(2230,744,cs),
(2230,738,ls)
);
},
{
closed = 1;
nodes = (
(1180,0,l),
(1234,0,l),
(1234,2112,l),
(1170,2112,l),
(1170,270,l)
);
},
{
closed = 1;
nodes = (
(110,272,o),
(330,-32,o),
(666,-32,cs),
(866,-32,o),
(1070,88,o),
(1194,278,c),
(1194,1210,l),
(1072,1399,o),
(866,1520,o),
(666,1520,cs),
(330,1520,o),
(110,1213,o),
(110,744,cs),
(110,738,ls)
);
},
{
closed = 1;
nodes = (
(174,1173,o),
(366,1456,o),
(658,1456,cs),
(855,1456,o),
(1061,1333,o),
(1174,1148,c),
(1174,340,l),
(1060,155,o),
(854,32,o),
(658,32,cs),
(367,32,o),
(174,313,o),
(174,738,cs),
(174,744,ls)
);
}
);
};
layerId = "B1F27B51-9973-4381-9301-4FE46FE1CA59";
shapes = (
{
closed = 1;
nodes = (
(2262,1253,o),
(2034,1560,o),
(1706,1560,cs),
(1498,1560,o),
(1300,1439,o),
(1178,1250,c),
(1178,278,l),
(1302,88,o),
(1498,-32,o),
(1706,-32,cs),
(2034,-32,o),
(2262,272,o),
(2262,758,cs),
(2262,764,ls)
);
},
{
closed = 1;
nodes = (
(2198,313,o),
(2005,32,o),
(1714,32,cs),
(1519,32,o),
(1314,155,o),
(1198,340,c),
(1198,1188,l),
(1311,1373,o),
(1521,1496,o),
(1716,1496,cs),
(2010,1496,o),
(2198,1213,o),
(2198,764,cs),
(2198,758,ls)
);
},
{
closed = 1;
nodes = (
(1148,0,l),
(1202,0,l),
(1202,2048,l),
(1138,2048,l),
(1138,270,l)
);
},
{
closed = 1;
nodes = (
(78,272,o),
(306,-32,o),
(634,-32,cs),
(842,-32,o),
(1038,88,o),
(1162,278,c),
(1162,1250,l),
(1040,1439,o),
(842,1560,o),
(634,1560,cs),
(306,1560,o),
(78,1253,o),
(78,764,cs),
(78,758,ls)
);
},
{
closed = 1;
nodes = (
(142,1213,o),
(330,1496,o),
(624,1496,cs),
(819,1496,o),
(1029,1373,o),
(1142,1188,c),
(1142,340,l),
(1026,155,o),
(821,32,o),
(626,32,cs),
(335,32,o),
(142,313,o),
(142,758,cs),
(142,764,ls)
);
}
);
width = 2340;
},
{
associatedMasterId = "CD0E3B44-F66A-4791-B84C-A1128DC61275";
layerId = "7F25FA4B-0F12-4E30-80AC-7D867BA9D6AF";
shapes = (
{
closed = 1;
nodes = (
(2374,1248,o),
(2148,1556,o),
(1774,1556,cs),
(1414,1556,o),
(1222,1278,o),
(1182,806,c),
(1182,720,l),
(1222,250,o),
(1414,-28,o),
(1768,-28,cs),
(2144,-28,o),
(2374,296,o),
(2374,748,c),
(2374,776,ls)
);
},
{
closed = 1;
nodes = (
(2092,442,o),
(1990,204,o),
(1716,204,cs),
(1478,204,o),
(1370,384,o),
(1314,612,c),
(1314,916,l),
(1354,1140,o),
(1474,1324,o),
(1712,1324,cs),
(1986,1324,o),
(2092,1082,o),
(2092,776,c),
(2092,748,ls)
);
},
{
closed = 1;
nodes = (
(1124,0,l),
(1382,0,l),
(1382,2048,l),
(1100,2048,l),
(1100,290,l)
);
},
{
closed = 1;
nodes = (
(110,296,o),
(340,-28,o),
(714,-28,cs),
(1068,-28,o),
(1260,250,o),
(1302,720,c),
(1302,806,l),
(1260,1278,o),
(1068,1556,o),
(708,1556,cs),
(336,1556,o),
(110,1248,o),
(110,776,cs),
(110,748,l)
);
},
{
closed = 1;
nodes = (
(392,1082,o),
(496,1324,o),
(772,1324,cs),
(1008,1324,o),
(1128,1140,o),
(1168,916,c),
(1168,612,l),
(1112,384,o),
(1004,204,o),
(766,204,cs),
(492,204,o),
(392,442,o),
(392,748,cs),
(392,776,l)
);
}
);
width = 2482.18113;
},
{
layerId = "CD0E3B44-F66A-4791-B84C-A1128DC61275";
shapes = (
{
closed = 1;
nodes = (
(2382,1248,o),
(2156,1556,o),
(1782,1556,cs),
(1422,1556,o),
(1230,1278,o),
(1190,806,c),
(1190,720,l),
(1230,250,o),
(1422,-28,o),
(1776,-28,cs),
(2152,-28,o),
(2382,296,o),
(2382,748,c),
(2382,776,ls)
);
},
{
closed = 1;
nodes = (
(2100,442,o),
(1998,204,o),
(1724,204,cs),
(1486,204,o),
(1378,384,o),
(1322,612,c),
(1322,916,l),
(1362,1140,o),
(1482,1324,o),
(1720,1324,cs),
(1994,1324,o),
(2100,1082,o),
(2100,776,c),
(2100,748,ls)
);
},
{
closed = 1;
nodes = (
(1132,0,l),
(1390,0,l),
(1390,2048,l),
(1108,2048,l),
(1108,290,l)
);
},
{
closed = 1;
nodes = (
(118,296,o),
(348,-28,o),
(722,-28,cs),
(1076,-28,o),
(1268,250,o),
(1310,720,c),
(1310,806,l),
(1268,1278,o),
(1076,1556,o),
(716,1556,cs),
(344,1556,o),
(118,1248,o),
(118,776,cs),
(118,748,l)
);
},
{
closed = 1;
nodes = (
(400,1082,o),
(504,1324,o),
(780,1324,cs),
(1016,1324,o),
(1136,1140,o),
(1176,916,c),
(1176,612,l),
(1120,384,o),
(1012,204,o),
(774,204,cs),
(500,204,o),
(400,442,o),
(400,748,cs),
(400,776,l)
);
}
);
width = 2500;
}
);
unicode = 568;
userData = {
interface.gridadjust.original = "{'width': 2520, 'leftMargin': 127, 'rightMargin': 126}";
"interface.width-adjustments" = (
-16
);
};
}
{
glyphname = uni0239;
layers = (
{
background = {
shapes = (
{
closed = 1;
nodes = (
(1648,-572,l),
(1648,1204,l),
(1612,1488,l),
(1196,1488,l),
(1128,1164,l),
(1128,-572,l)
);
},
{
closed = 1;
nodes = (
(180,296,o),
(388,-28,o),
(780,-28,cs),
(1156,-28,o),
(1292,344,o),
(1360,728,c),
(1360,744,l),
(1292,1160,o),
(1156,1516,o),
(784,1516,cs),
(388,1516,o),
(180,1208,o),
(180,760,cs),
(180,732,l)
);
},
{
closed = 1;
nodes = (
(700,968,o),
(748,1104,o),
(916,1104,cs),
(1116,1104,o),
(1164,1004,o),
(1168,748,cs),
(1168,724,ls),
(1168,548,o),
(1140,388,o),
(916,388,cs),
(720,388,o),
(700,584,o),
(700,732,cs),
(700,760,l)
);
},
{
closed = 1;
nodes = (
(2588,1220,o),
(2380,1516,o),
(1984,1516,cs),
(1620,1516,o),
(1476,1176,o),
(1412,744,c),
(1412,740,l),
(1472,368,o),
(1608,-28,o),
(1988,-28,cs),
(2380,-28,o),
(2588,300,o),
(2588,732,cs),
(2588,768,l)
);
},
{
closed = 1;
nodes = (
(2076,544,o),
(2032,388,o),
(1860,388,cs),
(1644,388,o),
(1600,536,o),
(1600,728,cs),
(1600,748,ls),
(1600,984,o),
(1644,1108,o),
(1856,1108,cs),
(2020,1108,o),
(2076,972,o),
(2076,768,cs),
(2076,732,l)
);
}
);
};
layerId = "5C20EF92-B63D-42A8-8878-93C2863E0093";
shapes = (
{
closed = 1;
nodes = (
(1648,-572,l),
(1648,1252,l),
(1612,1536,l),
(1196,1536,l),
(1128,1212,l),
(1128,-572,l)
);
},
{
closed = 1;
nodes = (
(180,292,o),
(404,-28,o),
(760,-28,cs),
(1156,-28,o),
(1304,340,o),
(1368,744,c),
(1368,752,l),
(1304,1196,o),
(1156,1556,o),
(764,1556,cs),
(404,1556,o),
(180,1244,o),
(180,776,cs),
(180,748,l)
);
},
{
closed = 1;
nodes = (
(700,1008,o),
(752,1148,o),
(920,1148,cs),
(1084,1148,o),
(1172,1017,o),
(1172,764,cs),
(1172,736,ls),
(1172,508,o),
(1084,384,o),
(920,384,cs),
(728,384,o),
(700,548,o),
(700,748,cs),
(700,776,l)
);
},
{
closed = 1;
nodes = (
(2596,1244,o),
(2372,1556,o),
(2012,1556,cs),
(1620,1556,o),
(1472,1196,o),
(1408,752,c),
(1408,744,l),
(1472,340,o),
(1620,-28,o),
(2016,-28,cs),
(2372,-28,o),
(2596,292,o),
(2596,748,c),
(2596,776,ls)
);
},
{
closed = 1;
nodes = (
(2076,548,o),
(2048,384,o),
(1856,384,cs),
(1692,384,o),
(1604,508,o),
(1604,736,cs),
(1604,764,ls),
(1604,1017,o),
(1692,1148,o),
(1856,1148,cs),
(2024,1148,o),
(2076,1008,o),
(2076,776,c),
(2076,748,ls)
);
}
);
width = 2776;
},
{
background = {
shapes = (
{
closed = 1;
nodes = (
(1238,-572,l),
(1238,1218,l),
(1228,1488,l),
(1184,1488,l),
(1174,1220,l),
(1174,-572,l)
);
},
{
closed = 1;
nodes = (
(114,272,o),
(334,-32,o),
(670,-32,cs),
(870,-32,o),
(1074,88,o),
(1198,278,c),
(1198,1210,l),
(1076,1399,o),
(870,1520,o),
(670,1520,cs),
(334,1520,o),
(114,1213,o),
(114,744,cs),
(114,738,ls)
);
},
{
closed = 1;
nodes = (
(178,1173,o),
(370,1456,o),
(662,1456,cs),
(859,1456,o),
(1065,1333,o),
(1178,1148,c),
(1178,340,l),
(1064,155,o),
(858,32,o),
(662,32,cs),
(371,32,o),
(178,313,o),
(178,738,cs),
(178,744,ls)
);
},
{
closed = 1;
nodes = (
(2298,1213,o),
(2078,1520,o),
(1742,1520,cs),
(1542,1520,o),
(1336,1399,o),
(1214,1210,c),
(1214,278,l),
(1338,88,o),
(1542,-32,o),
(1742,-32,cs),
(2078,-32,o),
(2298,272,o),
(2298,738,cs),
(2298,744,ls)
);
},
{
closed = 1;
nodes = (
(2234,313,o),
(2041,32,o),
(1750,32,cs),
(1554,32,o),
(1348,155,o),
(1234,340,c),
(1234,1148,l),
(1347,1333,o),
(1553,1456,o),
(1750,1456,cs),
(2042,1456,o),
(2234,1173,o),
(2234,744,cs),
(2234,738,ls)
);
}
);
};
layerId = "B1F27B51-9973-4381-9301-4FE46FE1CA59";
shapes = (
{
closed = 1;
nodes = (
(1206,-572,l),
(1206,1266,l),
(1196,1536,l),
(1152,1536,l),
(1142,1268,l),
(1142,-572,l)
);
},
{
closed = 1;
nodes = (
(78,272,o),
(306,-32,o),
(634,-32,cs),
(842,-32,o),
(1038,88,o),
(1162,278,c),
(1162,1250,l),
(1040,1439,o),
(842,1560,o),
(634,1560,cs),
(306,1560,o),
(78,1253,o),
(78,764,cs),
(78,758,ls)
);
},
{
closed = 1;
nodes = (
(142,1213,o),
(330,1496,o),
(624,1496,cs),
(819,1496,o),
(1029,1373,o),
(1142,1188,c),
(1142,340,l),
(1026,155,o),
(821,32,o),
(626,32,cs),
(335,32,o),
(142,313,o),
(142,758,cs),
(142,764,ls)
);
},
{
closed = 1;
nodes = (
(2262,1253,o),
(2034,1560,o),
(1706,1560,cs),
(1498,1560,o),
(1300,1439,o),
(1178,1250,c),
(1178,278,l),
(1302,88,o),
(1498,-32,o),
(1706,-32,cs),
(2034,-32,o),
(2262,272,o),
(2262,758,cs),
(2262,764,ls)
);
},
{
closed = 1;
nodes = (
(2198,313,o),
(2005,32,o),
(1714,32,cs),
(1519,32,o),
(1314,155,o),
(1198,340,c),
(1198,1188,l),
(1311,1373,o),
(1521,1496,o),
(1716,1496,cs),
(2010,1496,o),
(2198,1213,o),
(2198,764,cs),
(2198,758,ls)
);
}
);
width = 2340;
},
{
associatedMasterId = "CD0E3B44-F66A-4791-B84C-A1128DC61275";
layerId = "D051CE55-274C-4691-BB47-67DE03D2DE39";
shapes = (
{
closed = 1;
nodes = (
(1382,-572,l),
(1382,1252,l),
(1358,1536,l),
(1126,1536,l),
(1100,1252,l),
(1100,-572,l)
);
},
{
closed = 1;
nodes = (
(110,296,o),
(340,-28,o),
(714,-28,cs),
(1068,-28,o),
(1260,250,o),
(1302,720,c),
(1302,806,l),
(1260,1278,o),
(1068,1556,o),
(708,1556,cs),
(336,1556,o),
(110,1248,o),
(110,776,cs),
(110,748,l)
);
},
{
closed = 1;
nodes = (
(392,1082,o),
(496,1324,o),
(772,1324,cs),
(1008,1324,o),
(1128,1140,o),
(1168,916,c),
(1168,612,l),
(1112,384,o),
(1004,204,o),
(766,204,cs),
(492,204,o),
(392,442,o),
(392,748,cs),
(392,776,l)
);
},
{
closed = 1;
nodes = (
(2374,1248,o),
(2148,1556,o),
(1774,1556,cs),
(1414,1556,o),
(1222,1278,o),
(1182,806,c),
(1182,720,l),
(1222,250,o),
(1414,-28,o),
(1768,-28,cs),
(2144,-28,o),
(2374,296,o),
(2374,748,c),
(2374,776,ls)
);
},
{
closed = 1;
nodes = (
(2092,442,o),
(1990,204,o),
(1716,204,cs),
(1478,204,o),
(1370,384,o),
(1314,612,c),
(1314,916,l),
(1354,1140,o),
(1474,1324,o),
(1712,1324,cs),
(1986,1324,o),
(2092,1082,o),
(2092,776,c),
(2092,748,ls)
);
}
);
width = 2482.18113;
},
{
layerId = "CD0E3B44-F66A-4791-B84C-A1128DC61275";
shapes = (
{
closed = 1;
nodes = (
(1390,-572,l),
(1390,1252,l),
(1366,1536,l),
(1134,1536,l),
(1108,1252,l),
(1108,-572,l)
);
},
{
closed = 1;
nodes = (
(118,296,o),
(348,-28,o),
(722,-28,cs),
(1076,-28,o),
(1268,250,o),
(1310,720,c),
(1310,806,l),
(1268,1278,o),
(1076,1556,o),
(716,1556,cs),
(344,1556,o),
(118,1248,o),
(118,776,cs),
(118,748,l)
);
},
{
closed = 1;
nodes = (
(400,1082,o),
(504,1324,o),
(780,1324,cs),
(1016,1324,o),
(1136,1140,o),
(1176,916,c),
(1176,612,l),
(1120,384,o),
(1012,204,o),
(774,204,cs),
(500,204,o),
(400,442,o),
(400,748,cs),
(400,776,l)
);
},
{
closed = 1;
nodes = (
(2382,1248,o),
(2156,1556,o),
(1782,1556,cs),
(1422,1556,o),
(1230,1278,o),
(1190,806,c),
(1190,720,l),
(1230,250,o),
(1422,-28,o),
(1776,-28,cs),
(2152,-28,o),
(2382,296,o),
(2382,748,c),
(2382,776,ls)
);
},
{
closed = 1;
nodes = (
(2100,442,o),
(1998,204,o),
(1724,204,cs),
(1486,204,o),
(1378,384,o),
(1322,612,c),
(1322,916,l),
(1362,1140,o),
(1482,1324,o),
(1720,1324,cs),
(1994,1324,o),
(2100,1082,o),
(2100,776,c),
(2100,748,ls)
);
}
);
width = 2500;
}
);
unicode = 569;
userData = {
interface.gridadjust.original = "{'width': 2518, 'leftMargin': 127, 'rightMargin': 127}";
"interface.width-adjustments" = (
-16
);
};
}
{
glyphname = uni0240;
kernLeft = z;
kernRight = rthook;
layers = (
{
layerId = "5C20EF92-B63D-42A8-8878-93C2863E0093";
shapes = (
{
closed = 1;
nodes = (
(624,0,l),
(688,0,ls),
(1054,0,o),
(1062,-576,o),
(1556,-576,cs),
(1762,-576,o),
(1914,-472,o),
(2028,-368,c),
(1856,-12,l),
(1810,-48,o),
(1702,-136,o),
(1608,-136,cs),
(1330,-136,o),
(1326,416,o),
(840,416,cs),
(624,416,l)
);
},
{
closed = 1;
nodes = (
(1480,1248,l),
(1480,1536,l),
(200,1536,l),
(200,1120,l),
(804,1120,l),
(156,284,l),
(156,0,l),
(832,0,l),
(832,416,l)
);
}
);
width = 1964;
},
{
layerId = "B1F27B51-9973-4381-9301-4FE46FE1CA59";
shapes = (
{
closed = 1;
nodes = (
(236,0,l),
(288,0,ls),
(800,0,o),
(868,-574,o),
(1180,-574,cs),
(1218,-574,o),
(1262,-566,o),
(1304,-546,c),
(1304,-490,l),
(1252,-506,o),
(1222,-510,o),
(1196,-510,cs),
(893,-510,o),
(850,64,o),
(288,64,cs),
(240,64,l)
);
},
{
closed = 1;
nodes = (
(1184,1472,l),
(1184,1536,l),
(244,1536,l),
(244,1472,l),
(1108,1472,l),
(184,64,l),
(184,0,l),
(258,0,l),
(258,64,l)
);
}
);
width = 1368;
},
{
associatedMasterId = "CD0E3B44-F66A-4791-B84C-A1128DC61275";
layerId = "93906EF3-2727-4245-B32F-1A738E9B0BBE";
shapes = (
{
closed = 1;
nodes = (
(448,0,l),
(500,0,ls),
(938,0,o),
(938,-576,o),
(1302,-576,cs),
(1436,-576,o),
(1536,-500,o),
(1598,-438,c),
(1504,-274,l),
(1456,-318,o),
(1396,-350,o),
(1318,-350,cs),
(1102,-350,o),
(1034,224,o),
(532,224,cs),
(448,224,l)
);
},
{
closed = 1;
nodes = (
(1328,1346,l),
(1328,1536,l),
(140,1536,l),
(140,1312,l),
(1014,1312,l),
(156,202,l),
(156,0,l),
(472,0,l),
(472,224,l)
);
}
);
width = 1475.08679;
},
{
layerId = "CD0E3B44-F66A-4791-B84C-A1128DC61275";
shapes = (
{
closed = 1;
nodes = (
(458,0,l),
(510,0,ls),
(948,0,o),
(948,-576,o),
(1312,-576,cs),
(1446,-576,o),
(1546,-500,o),
(1608,-438,c),
(1514,-274,l),
(1466,-318,o),
(1406,-350,o),
(1328,-350,cs),
(1112,-350,o),
(1044,224,o),
(542,224,cs),
(458,224,l)
);
},
{
closed = 1;
nodes = (
(1338,1346,l),
(1338,1536,l),
(150,1536,l),
(150,1312,l),
(1024,1312,l),
(166,202,l),
(166,0,l),
(482,0,l),
(482,224,l)
);
}
);
width = 1494;
}
);
metricLeft = z;
unicode = 576;
userData = {
interface.gridadjust.original = "{'width': 1403, 'leftMargin': 122, 'rightMargin': -160}";
"interface.width-adjustments" = (
-16
);
};
}
{
glyphname = uni0242;
layers = (
{
background = {
shapes = (
{
closed = 1;
nodes = (
(688,936,l),
(687,1052,o),
(751,1104,o),
(840,1104,cs),
(979,1104,o),
(1003,1024,o),
(1004,932,cs),
(1003,836,o),
(967,712,o),
(760,712,cs),
(648,712,l),
(648,444,l),
(960,444,ls),
(1255,444,o),
(1523,584,o),
(1524,944,cs),
(1523,1220,o),
(1335,1516,o),
(840,1516,cs),
(403,1516,o),
(167,1236,o),
(168,936,c,{
name = hr00;
})
);
},
{
closed = 1;
nodes = (
(584,0,l),
(1104,0,l),
(1104,712,l),
(584,712,l)
);
}
);
};
layerId = "5C20EF92-B63D-42A8-8878-93C2863E0093";
shapes = (
{
closed = 1;
nodes = (
(688,936,l),
(687,1083,o),
(731,1144,o),
(848,1144,cs),
(957,1144,o),
(1003,1084,o),
(1004,956,cs),
(1003,785,o),
(922,712,o),
(760,712,cs),
(648,712,l),
(648,444,l),
(960,444,ls),
(1313,444,o),
(1523,638,o),
(1524,964,cs),
(1523,1327,o),
(1258,1556,o),
(840,1556,cs),
(437,1556,o),
(167,1307,o),
(168,936,c,{
name = hr00;
})
);
},
{
closed = 1;
nodes = (
(584,0,l),
(1104,0,l),
(1104,712,l),
(584,712,l)
);
}
);
width = 1692;
},
{
layerId = "B1F27B51-9973-4381-9301-4FE46FE1CA59";
shapes = (
{
closed = 1;
nodes = (
(240,980,l),
(247,1324,o),
(409,1496,o),
(666,1496,cs),
(929,1496,o),
(1076,1317,o),
(1076,1010,cs),
(1076,710,o),
(939,534,o),
(684,536,c),
(672,536,l,{
name = hr00;
}),
(672,474,l),
(696,474,l),
(976,472,o),
(1140,681,o),
(1140,1010,cs),
(1140,1352,o),
(965,1560,o),
(666,1560,cs),
(372,1560,o),
(185,1363,o),
(176,980,c)
);
},
{
closed = 1;
nodes = (
(660,0,l),
(724,0,l),
(724,536,l),
(660,536,l)
);
}
);
width = 1314;
},
{
associatedMasterId = "CD0E3B44-F66A-4791-B84C-A1128DC61275";
layerId = "BAA12189-94DC-4A4E-86A3-C4FDD82993B9";
shapes = (
{
closed = 1;
nodes = (
(442,964,l),
(442,1190,o),
(548,1332,o),
(740,1332,cs),
(944,1332,o),
(1022,1174,o),
(1022,962,cs),
(1022,756,o),
(946,618,o),
(736,618,cs),
(674,618,l),
(674,444,l),
(744,444,ls),
(1152,444,o),
(1300,668,o),
(1302,976,cs),
(1300,1356,o),
(1088,1556,o),
(744,1556,cs),
(400,1556,o),
(160,1344,o),
(160,964,c)
);
},
{
closed = 1;
nodes = (
(606,0,l),
(888,0,l),
(888,618,l),
(606,618,l)
);
}
);
width = 1460.61132;
},
{
layerId = "CD0E3B44-F66A-4791-B84C-A1128DC61275";
shapes = (
{
closed = 1;
nodes = (
(452,964,l),
(452,1190,o),
(558,1332,o),
(750,1332,cs),
(954,1332,o),
(1032,1174,o),
(1032,962,cs),
(1032,756,o),
(956,618,o),
(746,618,cs),
(684,618,l),
(684,444,l),
(754,444,ls),
(1162,444,o),
(1310,668,o),
(1312,976,cs),
(1310,1356,o),
(1098,1556,o),
(754,1556,cs),
(410,1556,o),
(170,1344,o),
(170,964,c)
);
},
{
closed = 1;
nodes = (
(616,0,l),
(898,0,l),
(898,618,l),
(616,618,l)
);
}
);
width = 1482;
}
);
unicode = 578;
userData = {
interface.gridadjust.original = "{'width': 1352, 'leftMargin': 88, 'rightMargin': 127}";
"interface.width-adjustments" = (
-16
);
};
}
{
glyphname = uni0245;
layers = (
{
layerId = "5C20EF92-B63D-42A8-8878-93C2863E0093";
shapes = (
{
closed = 1;
nodes = (
(2104,0,l),
(1408,2048,l),
(1020,2048,l),
(1092,1512,l),
(1504,0,l)
);
},
{
closed = 1;
nodes = (
(1200,2048,l),
(812,2048,l),
(116,0,l),
(716,0,l),
(1132,1512,l)
);
}
);
width = 2224;
},
{
layerId = "B1F27B51-9973-4381-9301-4FE46FE1CA59";
shapes = (
{
closed = 1;
nodes = (
(1686,0,l),
(954,2048,l),
(882,2048,l),
(902,2000,l),
(1618,0,l)
);
},
{
closed = 1;
nodes = (
(932,2048,l),
(866,2048,l),
(134,0,l),
(202,0,l),
(918,2002,l)
);
}
);
width = 1820;
},
{
layerId = "CD0E3B44-F66A-4791-B84C-A1128DC61275";
shapes = (
{
closed = 1;
nodes = (
(1868,0,l),
(1124,2048,l),
(900,2048,l),
(972,1726,l),
(1548,0,l)
);
},
{
closed = 1;
nodes = (
(1092,2048,l),
(868,2048,l),
(130,0,l),
(448,0,l),
(1016,1726,l)
);
}
);
width = 1994;
}
);
unicode = 581;
userData = {
interface.gridadjust.original = "{'width': 1805, 'leftMargin': 37, 'rightMargin': 37}";
"interface.width-adjustments" = (
-16
);
};
}
{
glyphname = Q_rthook;
kernLeft = O;
kernRight = rthook;
layers = (
{
background = {
shapes = (
{
ref = O;
}
);
};
guides = (
{
pos = (-68,1024);
}
);
layerId = "5C20EF92-B63D-42A8-8878-93C2863E0093";
shapes = (
{
closed = 1;
nodes = (
(1544,2048,l),
(1544,1760,l),
(1528,1760,l),
(1429,1926,o),
(1253,2076,o),
(976,2076,cs),
(498,2076,o),
(124,1608,o),
(124,1024,cs),
(124,444,o),
(486,-28,o),
(976,-28,cs),
(1251,-28,o),
(1430,120,o),
(1528,288,c),
(1544,288,l),
(1544,-48,ls),
(1544,-500,o),
(1816,-576,o),
(2152,-576,cs),
(2280,-576,o),
(2368,-564,o),
(2428,-560,c),
(2428,-152,l),
(2384,-156,o),
(2344,-160,o),
(2304,-160,cs),
(2204,-160,o),
(2096,-140,o),
(2096,-48,cs),
(2096,2048,l)
);
},
{
closed = 1;
nodes = (
(844,456,o),
(696,656,o),
(696,1024,cs),
(696,1392,o),
(844,1592,o),
(1120,1592,cs),
(1396,1592,o),
(1544,1392,o),
(1544,1024,cs),
(1544,656,o),
(1396,456,o),
(1120,456,cs)
);
}
);
width = 2428;
},
{
layerId = "B1F27B51-9973-4381-9301-4FE46FE1CA59";
shapes = (
{
closed = 1;
nodes = (
(1680,2048,l),
(1680,1520,l),
(1674,1520,l),
(1558,1889,o),
(1335,2076,o),
(1020,2076,cs),
(516,2076,o),
(172,1650,o),
(172,1024,cs),
(172,401,o),
(514,-28,o),
(1010,-28,cs),
(1328,-28,o),
(1556,162,o),
(1674,524,c),
(1680,524,l),
(1680,-276,ls),
(1680,-483,o),
(1757,-572,o),
(1934,-572,cs),
(1966,-572,o),
(2002,-570,o),
(2032,-566,c),
(2032,-502,l),
(2003,-506,o),
(1966,-508,o),
(1934,-508,cs),
(1794,-508,o),
(1744,-446,o),
(1744,-276,cs),
(1744,2048,l)
);
},
{
closed = 1;
nodes = (
(553,36,o),
(236,435,o),
(236,1024,cs),
(236,1612,o),
(553,2012,o),
(1020,2012,cs),
(1431,2012,o),
(1685,1636,o),
(1686,1024,cs),
(1687,406,o),
(1437,36,o),
(1020,36,cs)
);
}
);
width = 2040;
},
{
associatedMasterId = "CD0E3B44-F66A-4791-B84C-A1128DC61275";
layerId = "9CB864D0-9899-4232-B944-49A9E219A40D";
shapes = (
{
closed = 1;
nodes = (
(1634,2048,l),
(1634,1732,l),
(1610,1732,l),
(1510,1948,o),
(1282,2076,o),
(1002,2076,cs),
(488,2076,o),
(136,1640,o),
(136,1032,cs),
(136,404,o),
(492,-32,o),
(1002,-32,cs),
(1278,-32,o),
(1506,96,o),
(1610,324,c),
(1626,324,l),
(1626,-162,ls),
(1626,-430,o),
(1804,-576,o),
(2030,-576,cs),
(2080,-576,o),
(2134,-576,o),
(2170,-564,c),
(2170,-358,l),
(2150,-362,o),
(2122,-366,o),
(2092,-366,cs),
(1966,-366,o),
(1870,-320,o),
(1870,-162,cs),
(1870,2048,l)
);
},
{
closed = 1;
nodes = (
(644,210,o),
(388,524,o),
(388,1028,cs),
(388,1502,o),
(632,1846,o),
(1010,1846,cs),
(1432,1846,o),
(1630,1476,o),
(1630,1028,cs),
(1630,568,o),
(1452,210,o),
(1006,210,cs)
);
}
);
width = 2138.08302;
},
{
layerId = "CD0E3B44-F66A-4791-B84C-A1128DC61275";
shapes = (
{
closed = 1;
nodes = (
(1644,2048,l),
(1644,1732,l),
(1620,1732,l),
(1520,1948,o),
(1292,2076,o),
(1012,2076,cs),
(498,2076,o),
(146,1640,o),
(146,1032,cs),
(146,404,o),
(502,-32,o),
(1012,-32,cs),
(1288,-32,o),
(1516,96,o),
(1620,324,c),
(1636,324,l),
(1636,-162,ls),
(1636,-430,o),
(1814,-576,o),
(2040,-576,cs),
(2090,-576,o),
(2144,-576,o),
(2180,-564,c),
(2180,-358,l),
(2160,-362,o),
(2132,-366,o),
(2102,-366,cs),
(1976,-366,o),
(1880,-320,o),
(1880,-162,cs),
(1880,2048,l)
);
},
{
closed = 1;
nodes = (
(654,210,o),
(398,524,o),
(398,1028,cs),
(398,1502,o),
(642,1846,o),
(1020,1846,cs),
(1442,1846,o),
(1640,1476,o),
(1640,1028,cs),
(1640,568,o),
(1462,210,o),
(1016,210,cs)
);
}
);
width = 2158;
}
);
metricLeft = O;
note = "Composed by O and a vertical stem with tail";
unicode = 586;
userData = {
interface.gridadjust.original = "{'width': 1998, 'leftMargin': 161, 'rightMargin': 14}";
"interface.width-adjustments" = (
-16
);
};
}
{
glyphname = uni024E;
kernLeft = Y;
kernRight = Y;
layers = (
{
layerId = "5C20EF92-B63D-42A8-8878-93C2863E0093";
shapes = (
{
closed = 1;
nodes = (
(36,1616,l),
(36,1356,l),
(2116,1356,l),
(2116,1616,l)
);
},
{
ref = Y;
}
);
width = 2152;
},
{
layerId = "B1F27B51-9973-4381-9301-4FE46FE1CA59";
shapes = (
{
closed = 1;
nodes = (
(-40,1614,l),
(-40,1550,l),
(1696,1550,l),
(1696,1614,l)
);
},
{
alignment = -1;
ref = Y;
}
);
width = 1654;
},
{
associatedMasterId = "CD0E3B44-F66A-4791-B84C-A1128DC61275";
layerId = "226F44A5-1AEF-4D4D-ABA3-0F4D3EB609E4";
shapes = (
{
closed = 1;
nodes = (
(-24,1628,l),
(-24,1462,l),
(1846,1462,l),
(1846,1628,l)
);
},
{
alignment = -1;
ref = Y;
}
);
width = 1823.06415;
},
{
layerId = "CD0E3B44-F66A-4791-B84C-A1128DC61275";
shapes = (
{
closed = 1;
nodes = (
(-14,1628,l),
(-14,1462,l),
(1856,1462,l),
(1856,1628,l)
);
},
{
alignment = -1;
ref = Y;
}
);
width = 1842;
}
);
unicode = 590;
userData = {
com.typemytype.robofont.guideline.magnetic.lWiVRVgKy6 = 5;
interface.gridadjust.original = "{'width': 1911, 'leftMargin': 41, 'rightMargin': 41}";
"interface.width-adjustments" = (
-16
);
};
}
{
glyphname = ascriptturn;
layers = (
{
background = {
shapes = (
{
closed = 1;
nodes = (
(1778,1204,o),
(1566,1512,o),
(1168,1512,cs),
(846,1512,o),
(718,1176,o),
(656,784,c),
(656,768,l),
(718,332,o),
(850,-32,o),
(1164,-32,cs),
(1566,-32,o),
(1778,292,o),
(1776,732,cs),
(1776,760,l)
);
},
{
closed = 1;
nodes = (
(1258,532,o),
(1198,384,o),
(1040,384,cs),
(854,384,o),
(806,504,o),
(800,708,cs),
(800,832,ls),
(802,1004,o),
(854,1100,o),
(1036,1100,cs),
(1230,1100,o),
(1258,924,o),
(1256,760,cs),
(1256,732,l)
);
},
{
closed = 1;
nodes = (
(864,312,l),
(864,936,ls),
(866,1312,o),
(678,1516,o),
(372,1516,cs),
(298,1516,o),
(254,1512,o),
(192,1492,c),
(224,1104,l),
(238,1104,o),
(238,1108,o),
(244,1108,cs),
(322,1108,o),
(346,1044,o),
(344,936,cs),
(344,-4,l),
(800,-4,l)
);
}
);
};
layerId = "5C20EF92-B63D-42A8-8878-93C2863E0093";
shapes = (
{
closed = 1;
nodes = (
(1778,1248,o),
(1566,1556,o),
(1208,1556,cs),
(846,1556,o),
(718,1220,o),
(656,788,c),
(656,768,l),
(718,332,o),
(850,-32,o),
(1204,-32,cs),
(1566,-32,o),
(1776,292,o),
(1776,732,cs),
(1776,764,l)
);
},
{
closed = 1;
nodes = (
(1258,532,o),
(1198,384,o),
(1040,384,cs),
(854,384,o),
(800,504,o),
(800,708,cs),
(800,836,ls),
(800,1048,o),
(854,1144,o),
(1036,1144,cs),
(1230,1144,o),
(1256,968,o),
(1256,764,cs),
(1256,732,l)
);
},
{
closed = 1;
nodes = (
(864,312,l),
(864,980,ls),
(864,1356,o),
(678,1556,o),
(372,1556,cs),
(309,1556,o),
(251,1548,o),
(192,1532,c),
(224,1144,l),
(238,1144,o),
(238,1148,o),
(244,1148,cs),
(322,1148,o),
(344,1084,o),
(344,976,cs),
(344,0,l),
(800,0,l)
);
}
);
width = 1964;
},
{
background = {
shapes = (
{
closed = 1;
nodes = (
(1523,1181,o),
(1279,1516,o),
(948,1516,cs),
(641,1516,o),
(439,1316,o),
(384,1020,c),
(380,396,l),
(445,141,o),
(610,-32,o),
(908,-32,cs),
(1285,-32,o),
(1522,278,o),
(1522,734,cs),
(1522,744,l)
);
},
{
closed = 1;
nodes = (
(1458,314,o),
(1250,32,o),
(908,32,cs),
(630,32,o),
(487,191,o),
(418,472,c),
(416,932,l),
(491,1271,o),
(658,1452,o),
(948,1452,cs),
(1243,1452,o),
(1459,1144,o),
(1458,744,c),
(1458,736,ls)
);
},
{
closed = 1;
nodes = (
(430,316,l),
(430,1292,ls),
(430,1432,o),
(363,1516,o),
(250,1516,cs),
(214,1516,o),
(185,1507,o),
(160,1488,c),
(180,1434,l),
(202,1446,o),
(226,1452,o),
(252,1452,cs),
(327,1452,o),
(366,1398,o),
(366,1292,cs),
(366,0,l),
(420,0,l)
);
}
);
};
layerId = "B1F27B51-9973-4381-9301-4FE46FE1CA59";
shapes = (
{
closed = 1;
nodes = (
(1491,1255,o),
(1285,1560,o),
(916,1560,cs),
(617,1560,o),
(407,1360,o),
(352,1064,c),
(348,396,l),
(413,141,o),
(588,-32,o),
(874,-32,cs),
(1263,-32,o),
(1490,278,o),
(1490,734,cs),
(1490,788,l)
);
},
{
closed = 1;
nodes = (
(1426,314,o),
(1228,32,o),
(874,32,cs),
(608,32,o),
(455,191,o),
(386,472,c),
(384,976,l),
(459,1315,o),
(634,1496,o),
(908,1496,cs),
(1249,1496,o),
(1427,1218,o),
(1426,788,c),
(1426,736,ls)
);
},
{
closed = 1;
nodes = (
(398,316,l),
(398,1336,ls),
(398,1476,o),
(331,1560,o),
(218,1560,cs),
(182,1560,o),
(153,1551,o),
(128,1532,c),
(148,1478,l),
(170,1490,o),
(194,1496,o),
(220,1496,cs),
(295,1496,o),
(334,1442,o),
(334,1336,cs),
(334,0,l),
(388,0,l)
);
}
);
width = 1614;
},
{
layerId = "CD0E3B44-F66A-4791-B84C-A1128DC61275";
shapes = (
{
closed = 1;
nodes = (
(1590,1256,o),
(1378,1556,o),
(1010,1556,cs),
(642,1556,o),
(472,1278,o),
(432,824,c),
(432,702,l),
(472,250,o),
(642,-28,o),
(1006,-28,cs),
(1382,-28,o),
(1590,304,o),
(1590,772,cs),
(1590,838,l)
);
},
{
closed = 1;
nodes = (
(1308,462,o),
(1206,196,o),
(932,196,cs),
(674,196,o),
(568,454,o),
(524,724,c),
(524,832,l),
(584,1090,o),
(674,1332,o),
(936,1332,cs),
(1206,1332,o),
(1308,1108,o),
(1308,838,cs),
(1308,772,l)
);
},
{
closed = 1;
nodes = (
(608,324,l),
(608,1112,l),
(608,1430,o),
(502,1556,o),
(326,1556,cs),
(262,1556,o),
(206,1548,o),
(150,1508,c),
(182,1304,l),
(190,1304,o),
(206,1308,o),
(222,1308,cs),
(278,1308,o),
(326,1276,o),
(326,1112,c),
(326,0,l),
(564,0,l)
);
}
);
width = 1736;
}
);
unicode = 594;
userData = {
interface.gridadjust.original = "{'width': 1665, 'leftMargin': 94, 'rightMargin': 135}";
"interface.width-adjustments" = (
-16
);
};
}
{
glyphname = dhook;
kernLeft = c;
layers = (
{
layerId = "5C20EF92-B63D-42A8-8878-93C2863E0093";
shapes = (
{
closed = 1;
nodes = (
(916,-20,o),
(1060,96,o),
(1124,252,c),
(1352,252,l),
(1352,1268,l),
(1124,1268,l),
(1064,1424,o),
(920,1556,o),
(692,1556,cs),
(388,1556,o),
(92,1324,o),
(92,768,cs),
(92,236,o),
(368,-20,o),
(696,-20,cs)
);
},
{
closed = 1;
nodes = (
(1132,1192,l),
(1336,728,l),
(1136,392,l),
(1136,0,l),
(1684,0,l),
(1684,1528,ls),
(1684,1680,o),
(1864,1660,o),
(1936,1660,cs),
(1972,1660,o),
(2004,1656,o),
(2056,1648,c),
(2056,2052,l),
(2004,2060,o),
(1896,2076,o),
(1784,2076,cs),
(1528,2076,o),
(1132,2032,o),
(1132,1528,c)
);
},
{
closed = 1;
nodes = (
(748,404,o),
(660,540,o),
(660,768,cs),
(660,996,o),
(748,1132,o),
(900,1132,cs),
(1052,1132,o),
(1144,996,o),
(1144,768,cs),
(1144,544,o),
(1052,404,o),
(900,404,cs)
);
}
);
width = 1924;
},
{
layerId = "B1F27B51-9973-4381-9301-4FE46FE1CA59";
shapes = (
{
closed = 1;
nodes = (
(986,-32,o),
(1176,130,o),
(1260,384,c),
(1324,384,l),
(1322,1144,l),
(1260,1144,l),
(1180,1400,o),
(984,1560,o),
(740,1560,cs),
(380,1560,o),
(148,1216,o),
(148,764,cs),
(148,310,o),
(376,-32,o),
(740,-32,cs)
);
},
{
closed = 1;
nodes = (
(1268,1084,l),
(1308,766,l),
(1268,444,l),
(1268,0,l),
(1332,0,l),
(1332,1780,ls),
(1332,1950,o),
(1382,2012,o),
(1522,2012,cs),
(1548,2012,o),
(1586,2010,o),
(1620,2006,c),
(1620,2070,l),
(1586,2074,o),
(1550,2076,o),
(1522,2076,cs),
(1346,2076,o),
(1268,1988,o),
(1268,1780,cs)
);
},
{
closed = 1;
nodes = (
(414,32,o),
(212,348,o),
(212,764,cs),
(212,1180,o),
(416,1496,o),
(740,1496,cs),
(1064,1496,o),
(1268,1180,o),
(1268,764,cs),
(1268,348,o),
(1066,32,o),
(740,32,cs)
);
}
);
width = 1554;
},
{
associatedMasterId = "CD0E3B44-F66A-4791-B84C-A1128DC61275";
layerId = "B3FA4982-079D-4A75-84AC-B3B89BEDBB1B";
shapes = (
{
closed = 1;
nodes = (
(1056,-32,o),
(1156,150,o),
(1210,236,c),
(1328,236,l),
(1328,1292,l),
(1210,1292,l),
(1158,1374,o),
(1064,1556,o),
(766,1556,cs),
(380,1556,o),
(110,1250,o),
(110,764,cs),
(110,276,o),
(380,-32,o),
(762,-32,cs)
);
},
{
closed = 1;
nodes = (
(1228,1172,l),
(1312,782,l),
(1236,290,l),
(1236,0,l),
(1472,0,l),
(1472,1668,ls),
(1472,1828,o),
(1574,1862,o),
(1702,1862,cs),
(1722,1862,o),
(1758,1862,o),
(1778,1854,c),
(1778,2064,l),
(1742,2076,o),
(1684,2080,o),
(1640,2080,cs),
(1410,2080,o),
(1228,1938,o),
(1228,1668,c)
);
},
{
closed = 1;
nodes = (
(506,186,o),
(356,442,o),
(356,768,cs),
(356,1090,o),
(502,1338,o),
(798,1338,cs),
(1082,1338,o),
(1234,1110,o),
(1234,768,cs),
(1234,424,o),
(1078,186,o),
(798,186,cs)
);
}
);
width = 1673.10189;
},
{
layerId = "CD0E3B44-F66A-4791-B84C-A1128DC61275";
shapes = (
{
closed = 1;
nodes = (
(1068,-32,o),
(1168,150,o),
(1222,236,c),
(1340,236,l),
(1340,1292,l),
(1222,1292,l),
(1170,1374,o),
(1076,1556,o),
(778,1556,cs),
(392,1556,o),
(122,1250,o),
(122,764,cs),
(122,276,o),
(392,-32,o),
(774,-32,cs)
);
},
{
closed = 1;
nodes = (
(1240,1172,l),
(1324,782,l),
(1248,290,l),
(1248,0,l),
(1484,0,l),
(1484,1668,ls),
(1484,1828,o),
(1586,1862,o),
(1714,1862,cs),
(1734,1862,o),
(1770,1862,o),
(1790,1854,c),
(1790,2064,l),
(1754,2076,o),
(1696,2080,o),
(1652,2080,cs),
(1422,2080,o),
(1240,1938,o),
(1240,1668,c)
);
},
{
closed = 1;
nodes = (
(518,186,o),
(368,442,o),
(368,768,cs),
(368,1090,o),
(514,1338,o),
(810,1338,cs),
(1094,1338,o),
(1246,1110,o),
(1246,768,cs),
(1246,424,o),
(1090,186,o),
(810,186,cs)
);
}
);
width = 1696;
}
);
unicode = 599;
userData = {
interface.gridadjust.original = "{'width': 1664, 'leftMargin': 127, 'rightMargin': -14}";
"interface.width-adjustments" = (
-16
);
};
}
{
glyphname = epsilon1revhook;
kernLeft = epsilongreek;
kernRight = epsilongreek;
layers = (
{
layerId = "5C20EF92-B63D-42A8-8878-93C2863E0093";
shapes = (
{
closed = 1;
nodes = (
(1580,948,l),
(1643,684,o),
(1699,480,o),
(1996,480,cs),
(2079,480,o),
(2175,500,o),
(2248,540,c),
(2180,864,l),
(2151,860,o),
(2127,864,o),
(2100,864,cs),
(1935,864,o),
(1943,1032,o),
(1896,1336,c),
(1360,1220,l),
(1360,888,l)
);
},
{
pos = (8,0);
ref = epsilon1rev;
}
);
width = 2460;
},
{
layerId = "B1F27B51-9973-4381-9301-4FE46FE1CA59";
shapes = (
{
closed = 1;
nodes = (
(1320,1150,l),
(1340,947,o),
(1430,839,o),
(1560,836,cs),
(1601,835,o),
(1639,844,o),
(1676,858,c),
(1660,912,l),
(1637,904,o),
(1607,897,o),
(1574,898,cs),
(1458,902,o),
(1388,999,o),
(1366,1224,c),
(1192,1194,l),
(1192,1130,l)
);
},
{
alignment = -1;
pos = (-4,0);
ref = epsilon1rev;
}
);
width = 1654;
},
{
layerId = "CD0E3B44-F66A-4791-B84C-A1128DC61275";
shapes = (
{
closed = 1;
nodes = (
(1410,1034,l),
(1450,848,o),
(1522,686,o),
(1752,686,cs),
(1816,686,o),
(1878,702,o),
(1930,732,c),
(1892,904,l),
(1876,900,o),
(1856,896,o),
(1808,896,cs),
(1660,896,o),
(1626,1060,o),
(1590,1296,c),
(1222,1224,l),
(1222,998,l)
);
},
{
alignment = -1;
ref = epsilon1rev;
}
);
width = 1996;
}
);
unicode = 605;
userData = {
interface.gridadjust.original = "{'width': 2017, 'leftMargin': 135, 'rightMargin': 27}";
"interface.width-adjustments" = (
-16
);
};
}
{
glyphname = mturndescend;
kernLeft = u;
kernRight = g;
layers = (
{
layerId = "5C20EF92-B63D-42A8-8878-93C2863E0093";
shapes = (
{
closed = 1;
nodes = (
(2508,-576,l),
(2508,0,l),
(1984,0,l),
(1984,-576,l)
);
},
{
ref = mturn;
}
);
width = 2648;
},
{
layerId = "B1F27B51-9973-4381-9301-4FE46FE1CA59";
shapes = (
{
closed = 1;
nodes = (
(2048,-576,l),
(2048,0,l),
(1984,0,l),
(1984,-576,l)
);
},
{
alignment = -1;
ref = mturn;
}
);
width = 2288;
},
{
associatedMasterId = "CD0E3B44-F66A-4791-B84C-A1128DC61275";
layerId = "A3A7025F-ADD6-4388-A950-02DCC075B1E1";
shapes = (
{
closed = 1;
nodes = (
(2206,-576,l),
(2206,0,l),
(1972,0,l),
(1972,-576,l)
);
},
{
alignment = -1;
ref = mturn;
}
);
width = 2389.29811;
},
{
layerId = "CD0E3B44-F66A-4791-B84C-A1128DC61275";
shapes = (
{
closed = 1;
nodes = (
(2216,-576,l),
(2216,0,l),
(1982,0,l),
(1982,-576,l)
);
},
{
alignment = -1;
ref = mturn;
}
);
width = 2414;
}
);
metricLeft = mturn;
metricRight = mturn;
unicode = 624;
userData = {
interface.gridadjust.original = "{'width': 2463, 'leftMargin': 188, 'rightMargin': 189}";
"interface.width-adjustments" = (
-16
);
};
}
{
glyphname = Rsmallcapinv;
layers = (
{
layerId = "5C20EF92-B63D-42A8-8878-93C2863E0093";
shapes = (
{
closed = 1;
nodes = (
(1712,1488,l),
(1200,1488,l),
(780,716,l),
(1292,716,l)
);
},
{
closed = 1;
nodes = (
(1408,0,o),
(1688,224,o),
(1688,536,cs),
(1688,820,o),
(1408,1028,o),
(968,1028,cs),
(568,1028,l),
(568,696,l),
(968,696,ls),
(1104,696,o),
(1176,620,o),
(1176,556,cs),
(1176,492,o),
(1104,412,o),
(976,412,cs),
(780,412,l),
(780,1488,l),
(268,1488,l),
(268,0,l),
(976,0,l)
);
}
);
width = 1976;
},
{
layerId = "B1F27B51-9973-4381-9301-4FE46FE1CA59";
shapes = (
{
closed = 1;
nodes = (
(1392,1488,l),
(1316,1488,l),
(870,808,l),
(948,808,l)
);
},
{
closed = 1;
nodes = (
(1087,0,o),
(1272,155,o),
(1272,408,cs),
(1272,671,o),
(1102,840,o),
(836,840,cs),
(224,840,l),
(224,776,l),
(836,776,ls),
(1068,776,o),
(1211,631,o),
(1210,396,cs),
(1209,191,o),
(1046,64,o),
(784,64,cs),
(264,64,l),
(264,1488,l),
(200,1488,l),
(200,0,l),
(784,0,ls)
);
}
);
width = 1592;
},
{
associatedMasterId = "CD0E3B44-F66A-4791-B84C-A1128DC61275";
layerId = "3BFED4BC-9E4A-4451-82D1-C7B561269ED4";
shapes = (
{
closed = 1;
nodes = (
(1504,1488,l),
(1204,1488,l),
(768,770,l),
(1070,770,l)
);
},
{
closed = 1;
nodes = (
(1212,0,o),
(1422,196,o),
(1422,458,cs),
(1422,722,o),
(1220,914,o),
(874,914,cs),
(420,914,l),
(420,692,l),
(874,692,ls),
(1060,692,o),
(1140,574,o),
(1140,462,cs),
(1140,344,o),
(1052,220,o),
(846,220,cs),
(494,220,l),
(494,1488,l),
(212,1488,l),
(212,0,l),
(846,0,l)
);
}
);
width = 1717.29811;
},
{
layerId = "CD0E3B44-F66A-4791-B84C-A1128DC61275";
shapes = (
{
closed = 1;
nodes = (
(1514,1488,l),
(1214,1488,l),
(778,770,l),
(1080,770,l)
);
},
{
closed = 1;
nodes = (
(1222,0,o),
(1432,196,o),
(1432,458,cs),
(1432,722,o),
(1230,914,o),
(884,914,cs),
(430,914,l),
(430,692,l),
(884,692,ls),
(1070,692,o),
(1150,574,o),
(1150,462,cs),
(1150,344,o),
(1062,220,o),
(856,220,cs),
(504,220,l),
(504,1488,l),
(222,1488,l),
(222,0,l),
(856,0,l)
);
}
);
width = 1736;
}
);
unicode = 641;
userData = {
interface.gridadjust.original = "{'width': 1555, 'leftMargin': 147, 'rightMargin': 122}";
"interface.width-adjustments" = (
-16
);
};
}
{
glyphname = qhook;
kernLeft = c;
kernRight = g;
layers = (
{
anchors = (
{
name = bottom;
pos = (1404,-552);
},
{
name = bottom0315;
pos = (-84,-656);
},
{
name = cross;
pos = (1412,-224);
},
{
name = top;
pos = (824,1792);
}
);
layerId = "5C20EF92-B63D-42A8-8878-93C2863E0093";
shapes = (
{
closed = 1;
nodes = (
(1684,1601,o),
(1718,1630,o),
(1812,1628,cs),
(1889,1626,o),
(1965,1608,o),
(1988,1600,c),
(1988,1940,l),
(1937,1952,o),
(1841,1972,o),
(1716,1972,cs),
(1302,1972,o),
(1136,1861,o),
(1136,1536,c),
(1684,1536,l)
);
},
{
closed = 1;
nodes = (
(1684,1536,l),
(1136,1536,l),
(1136,1268,l),
(1124,1268,l),
(1064,1424,o),
(920,1556,o),
(692,1556,cs),
(388,1556,o),
(92,1324,o),
(92,768,c),
(92,236,o),
(368,-20,o),
(696,-20,cs),
(912,-20,o),
(1060,96,o),
(1124,252,c),
(1132,252,l),
(1132,-576,l),
(1684,-576,l)
);
},
{
closed = 1;
nodes = (
(1144,544,o),
(1052,404,o),
(900,404,cs),
(748,404,o),
(660,540,o),
(660,768,cs),
(660,996,o),
(748,1132,o),
(900,1132,cs),
(1052,1132,o),
(1144,996,o),
(1144,768,c)
);
}
);
width = 2036;
},
{
anchors = (
{
name = bottom;
pos = (1300,-576);
},
{
name = bottom0315;
pos = (20,-696);
},
{
name = cross;
pos = (1300,-224);
},
{
name = top;
pos = (740,1792);
}
);
layerId = "B1F27B51-9973-4381-9301-4FE46FE1CA59";
shapes = (
{
closed = 1;
nodes = (
(1332,1743,o),
(1381,1796,o),
(1522,1796,cs),
(1548,1796,o),
(1585,1794,o),
(1620,1790,c),
(1620,1854,l),
(1586,1858,o),
(1549,1860,o),
(1522,1860,cs),
(1346,1860,o),
(1268,1781,o),
(1268,1536,c),
(1332,1536,l)
);
},
{
closed = 1;
nodes = (
(1332,1536,l),
(1268,1536,l),
(1268,1144,l),
(1260,1144,l),
(1177,1399,o),
(987,1560,o),
(740,1560,cs),
(377,1560,o),
(148,1218,o),
(148,764,cs),
(148,312,o),
(380,-32,o),
(740,-32,cs),
(984,-32,o),
(1180,128,o),
(1260,384,c),
(1268,384,l),
(1268,-576,l),
(1332,-576,l)
);
},
{
closed = 1;
nodes = (
(1268,348,o),
(1064,32,o),
(740,32,cs),
(416,32,o),
(212,348,o),
(212,764,cs),
(212,1180,o),
(414,1496,o),
(740,1496,cs),
(1066,1496,o),
(1268,1180,o),
(1268,764,cs)
);
}
);
width = 1700;
},
{
anchors = (
{
name = bottom;
pos = (1352,-576);
},
{
name = bottom0315;
pos = (-18,-680);
},
{
name = cross;
pos = (1348,-224);
},
{
name = top;
pos = (780,1792);
}
);
associatedMasterId = "CD0E3B44-F66A-4791-B84C-A1128DC61275";
layerId = "3FDA10E5-18EA-4BE9-9001-DB241DC283EF";
shapes = (
{
closed = 1;
nodes = (
(1472,1640,o),
(1554,1694,o),
(1694,1694,cs),
(1718,1694,o),
(1748,1690,o),
(1772,1686,c),
(1772,1890,l),
(1750,1896,o),
(1698,1902,o),
(1634,1902,cs),
(1386,1902,o),
(1236,1772,o),
(1236,1536,c),
(1472,1536,l)
);
},
{
closed = 1;
nodes = (
(1472,1536,l),
(1236,1536,l),
(1236,1292,l),
(1210,1292,l),
(1158,1374,o),
(1064,1556,o),
(766,1556,cs),
(380,1556,o),
(110,1250,o),
(110,764,cs),
(110,276,o),
(380,-32,o),
(762,-32,cs),
(1056,-32,o),
(1156,150,o),
(1210,236,c),
(1228,236,l),
(1228,-576,l),
(1472,-576,l)
);
},
{
closed = 1;
nodes = (
(1234,424,o),
(1078,186,o),
(798,186,cs),
(506,186,o),
(356,442,o),
(356,768,cs),
(356,1090,o),
(502,1338,o),
(798,1338,cs),
(1082,1338,o),
(1234,1110,o),
(1234,768,cs)
);
}
);
width = 1824.12075;
},
{
anchors = (
{
name = bottom;
pos = (1364,-576);
},
{
name = bottom0315;
pos = (-6,-680);
},
{
name = cross;
pos = (1360,-224);
},
{
name = top;
pos = (792,1792);
}
);
layerId = "CD0E3B44-F66A-4791-B84C-A1128DC61275";
shapes = (
{
closed = 1;
nodes = (
(1484,1640,o),
(1566,1694,o),
(1706,1694,cs),
(1730,1694,o),
(1760,1690,o),
(1784,1686,c),
(1784,1890,l),
(1762,1896,o),
(1710,1902,o),
(1646,1902,cs),
(1398,1902,o),
(1248,1772,o),
(1248,1536,c),
(1484,1536,l)
);
},
{
closed = 1;
nodes = (
(1484,1536,l),
(1248,1536,l),
(1248,1292,l),
(1222,1292,l),
(1170,1374,o),
(1076,1556,o),
(778,1556,cs),
(392,1556,o),
(122,1250,o),
(122,764,cs),
(122,276,o),
(392,-32,o),
(774,-32,cs),
(1068,-32,o),
(1168,150,o),
(1222,236,c),
(1240,236,l),
(1240,-576,l),
(1484,-576,l)
);
},
{
closed = 1;
nodes = (
(1246,424,o),
(1090,186,o),
(810,186,cs),
(518,186,o),
(368,442,o),
(368,768,cs),
(368,1090,o),
(514,1338,o),
(810,1338,cs),
(1094,1338,o),
(1246,1110,o),
(1246,768,cs)
);
}
);
width = 1844;
}
);
metricLeft = q;
metricRight = f;
note = "decomposed q + custom tail
!post:removeoverlap";
unicode = 672;
userData = {
interface.gridadjust.original = "{'width': 1662, 'leftMargin': 127, 'rightMargin': -14}";
"interface.width-adjustments" = (
-16
);
};
}
{
glyphname = tesh;
layers = (
{
background = {
shapes = (
{
closed = 1;
nodes = (
(212,1488,l),
(212,1120,l),
(1496,1120,l),
(1496,1488,l)
);
},
{
closed = 1;
nodes = (
(400,512,l),
(399,192,o),
(491,-28,o),
(908,-28,cs),
(1099,-28,o),
(1299,24,o),
(1384,52,c),
(1384,428,l),
(1355,424,o),
(1207,388,o),
(1072,388,cs),
(963,388,o),
(911,420,o),
(912,512,c),
(912,1868,l),
(400,1868,l)
);
},
{
closed = 1;
nodes = (
(1916,1598,ls),
(1916,1690,o),
(1995,1734,o),
(2128,1734,cs),
(2187,1734,o),
(2211,1730,o),
(2244,1722,c),
(2240,2110,l),
(2179,2126,o),
(2103,2142,o),
(2004,2142,cs),
(1635,2142,o),
(1392,1954,o),
(1392,1598,cs),
(1392,0,l),
(1916,0,l,{
name = hr00;
})
);
},
{
closed = 1;
nodes = (
(1392,-56,ls),
(1391,-140,o),
(1319,-192,o),
(1184,-192,cs),
(1123,-192,o),
(1095,-188,o),
(1068,-180,c),
(1072,-568,l),
(1131,-584,o),
(1211,-600,o),
(1304,-600,cs),
(1671,-600,o),
(1915,-408,o),
(1916,-56,cs),
(1916,1540,l),
(1392,1540,l)
);
}
);
};
layerId = "5C20EF92-B63D-42A8-8878-93C2863E0093";
shapes = (
{
closed = 1;
nodes = (
(212,1488,l),
(212,1120,l),
(1496,1120,l),
(1496,1488,l)
);
},
{
closed = 1;
nodes = (
(400,512,l),
(399,192,o),
(491,-28,o),
(908,-28,cs),
(1099,-28,o),
(1299,24,o),
(1400,54,c),
(1400,430,l),
(1355,417,o),
(1203,388,o),
(1082,388,cs),
(959,388,o),
(911,420,o),
(912,512,c),
(912,1868,l),
(400,1868,l)
);
},
{
closed = 1;
nodes = (
(1916,1598,ls),
(1916,1690,o),
(1995,1734,o),
(2128,1734,cs),
(2187,1734,o),
(2211,1730,o),
(2244,1722,c),
(2240,2110,l),
(2179,2126,o),
(2103,2142,o),
(2004,2142,cs),
(1635,2142,o),
(1392,1954,o),
(1392,1598,cs),
(1392,0,l),
(1916,0,l,{
name = hr00;
})
);
},
{
closed = 1;
nodes = (
(1392,-32,ls),
(1392,-116,o),
(1319,-168,o),
(1184,-168,cs),
(1123,-168,o),
(1095,-164,o),
(1068,-156,c),
(1072,-544,l),
(1131,-560,o),
(1211,-576,o),
(1304,-576,cs),
(1671,-576,o),
(1916,-384,o),
(1916,-32,cs),
(1916,1540,l),
(1392,1540,l)
);
}
);
width = 2380;
},
{
layerId = "B1F27B51-9973-4381-9301-4FE46FE1CA59";
shapes = (
{
closed = 1;
nodes = (
(-76,1470,l),
(-76,1406,l),
(532,1406,l),
(532,1470,l)
);
},
{
closed = 1;
nodes = (
(148,324,ls),
(148,98,o),
(248,-28,o),
(428,-28,cs),
(473,-28,o),
(510,-21,o),
(552,-4,c),
(532,56,l),
(490,42,o),
(461,36,o),
(428,36,cs),
(285,36,o),
(212,134,o),
(212,324,cs),
(212,1832,l),
(148,1832,l)
);
},
{
closed = 1;
nodes = (
(560,1788,ls),
(560,1956,o),
(680,2076,o),
(848,2076,cs),
(890,2076,o),
(944,2069,o),
(990,2058,c),
(1004,2120,l),
(955,2133,o),
(900,2140,o),
(848,2140,cs),
(646,2140,o),
(496,1990,o),
(496,1788,cs),
(496,-224,l),
(560,-224,l)
);
},
{
closed = 1;
nodes = (
(496,-224,ls),
(496,-391,o),
(373,-512,o),
(202,-512,cs),
(163,-512,o),
(101,-505,o),
(56,-496,c),
(56,-560,l),
(93,-570,o),
(151,-576,o),
(204,-576,cs),
(409,-576,o),
(560,-427,o),
(560,-224,cs),
(560,1788,l),
(496,1788,l)
);
}
);
width = 884;
},
{
layerId = "CD0E3B44-F66A-4791-B84C-A1128DC61275";
shapes = (
{
closed = 1;
nodes = (
(30,1488,l),
(30,1280,l),
(1006,1280,l),
(1006,1488,l)
);
},
{
closed = 1;
nodes = (
(296,414,ls),
(296,142,o),
(388,-28,o),
(664,-28,cs),
(794,-28,o),
(912,0,o),
(952,14,c),
(952,236,l),
(928,232,o),
(816,208,o),
(734,208,cs),
(618,208,o),
(578,256,o),
(578,414,cs),
(578,1844,l),
(296,1844,l)
);
},
{
closed = 1;
nodes = (
(1142,1638,ls),
(1142,1812,o),
(1236,1908,o),
(1392,1908,cs),
(1440,1908,o),
(1492,1904,o),
(1528,1896,c),
(1544,2120,l),
(1484,2132,o),
(1422,2140,o),
(1366,2140,cs),
(1052,2140,o),
(862,1964,o),
(862,1638,cs),
(862,0,l),
(1142,0,l)
);
},
{
closed = 1;
nodes = (
(862,-74,ls),
(862,-248,o),
(772,-344,o),
(612,-344,cs),
(564,-344,o),
(512,-340,o),
(476,-332,c),
(464,-556,l),
(520,-568,o),
(582,-576,o),
(638,-576,cs),
(952,-576,o),
(1142,-400,o),
(1142,-74,cs),
(1142,1540,l),
(862,1540,l)
);
}
);
width = 1522;
}
);
unicode = 679;
userData = {
interface.gridadjust.original = "{'width': 1502, 'leftMargin': 8, 'rightMargin': 41}";
};
}
{
glyphname = tccurl;
kernLeft = t;
kernRight = e;
layers = (
{
background = {
shapes = (
{
closed = 1;
nodes = (
(2256,-28,o),
(2536,232,o),
(2540,640,c),
(2028,640,l),
(2016,480,o),
(1928,392,o),
(1808,392,cs),
(1664,392,o),
(1568,516,o),
(1568,768,cs),
(1568,1020,o),
(1664,1144,o),
(1808,1144,cs),
(1932,1144,o),
(2012,1056,o),
(2028,896,c),
(2540,896,l),
(2536,1296,o),
(2252,1556,o),
(1800,1556,cs),
(1300,1556,o),
(1004,1236,o),
(1004,764,cs),
(1004,292,o),
(1300,-28,o),
(1800,-28,cs)
);
},
{
ref = t;
}
);
};
layerId = "5C20EF92-B63D-42A8-8878-93C2863E0093";
shapes = (
{
closed = 1;
nodes = (
(44,1536,l),
(44,1136,l),
(1056,1136,l),
(1056,1536,l)
);
},
{
closed = 1;
nodes = (
(240,448,l),
(236,149,o),
(395,-16,o),
(760,-16,cs),
(1136,-16,o),
(1360,160,o),
(1540,304,cs),
(1664,400,o),
(1845,484,o),
(1956,484,cs),
(2009,484,o),
(2032,462,o),
(2032,440,cs),
(2032,409,o),
(2005,392,o),
(1912,392,cs),
(1717,392,o),
(1568,467,o),
(1568,768,cs),
(1568,1020,o),
(1664,1144,o),
(1808,1144,cs),
(1932,1144,o),
(2012,1056,o),
(2028,896,c),
(2540,896,l),
(2536,1296,o),
(2252,1556,o),
(1800,1556,cs),
(1300,1556,o),
(1004,1236,o),
(1004,764,cs),
(1004,292,o),
(1299,-28,o),
(1808,-28,cs),
(2277,-28,o),
(2537,242,o),
(2536,516,cs),
(2535,740,o),
(2360,872,o),
(2060,872,cs),
(1803,872,o),
(1520,776,o),
(1212,524,cs),
(1073,410,o),
(986,364,o),
(896,364,cs),
(824,364,o),
(792,396,o),
(792,460,cs),
(792,1904,l),
(240,1904,l)
);
}
);
width = 2624;
},
{
guides = (
{
angle = 90;
pos = (264,2508);
}
);
layerId = "B1F27B51-9973-4381-9301-4FE46FE1CA59";
shapes = (
{
closed = 1;
nodes = (
(112,1536,l),
(112,1472,l),
(720,1472,l),
(720,1536,l)
);
},
{
closed = 1;
nodes = (
(336,324,ls),
(336,129,o),
(496,-28,o),
(696,-28,cs),
(903,-28,o),
(1038,141,o),
(1164,300,cs),
(1297,467,o),
(1428,624,o),
(1620,624,cs),
(1793,624,o),
(1928,495,o),
(1928,336,cs),
(1928,162,o),
(1763,32,o),
(1536,32,cs),
(1190,32,o),
(944,337,o),
(944,764,cs),
(944,1186,o),
(1190,1496,o),
(1524,1496,cs),
(1769,1496,o),
(1963,1332,o),
(2004,1088,c),
(2072,1088,l),
(2025,1364,o),
(1801,1560,o),
(1524,1560,cs),
(1154,1560,o),
(880,1220,o),
(880,764,cs),
(880,302,o),
(1154,-32,o),
(1536,-32,cs),
(1797,-32,o),
(1992,124,o),
(1992,336,cs),
(1992,530,o),
(1828,688,o),
(1620,688,cs),
(1397,688,o),
(1247,507,o),
(1116,340,cs),
(988,181,o),
(873,36,o),
(696,36,cs),
(531,36,o),
(400,164,o),
(400,324,cs),
(400,1904,l),
(336,1904,l)
);
}
);
width = 2220;
},
{
associatedMasterId = "B1F27B51-9973-4381-9301-4FE46FE1CA59";
background = {
shapes = (
{
closed = 1;
nodes = (
(1086,-28,o),
(1300,593,o),
(1772,592,cs),
(1868,593,o),
(1945,536,o),
(1948,408,cs),
(1945,217,o),
(1660,68,o),
(1412,68,cs),
(1065,68,o),
(873,450,o),
(876,744,cs),
(876,820,ls),
(873,1106,o),
(1093,1451,o),
(1452,1452,cs),
(1722,1451,o),
(1878,1246,o),
(1900,1064,c),
(1996,1064,l),
(1967,1299,o),
(1770,1556,o),
(1444,1556,cs),
(1052,1556,o),
(812,1188,o),
(816,820,cs),
(816,744,ls),
(812,374,o),
(1005,-28,o),
(1440,-28,cs),
(1660,-28,o),
(1995,102,o),
(1996,412,cs),
(1995,584,o),
(1884,699,o),
(1696,700,cs),
(1252,699,o),
(965,78,o),
(648,80,c),
(575,78,o),
(430,138,o),
(432,352,cs),
(432,1904,l),
(368,1904,l),
(368,352,ls),
(367,111,o),
(461,-28,o),
(588,-28,cs)
);
},
{
closed = 1;
nodes = (
(864,1456,l),
(864,1536,l),
(116,1536,l),
(116,1456,l)
);
}
);
};
layerId = "AEB47CB6-A2CE-45D1-A4FF-2704CEC5B829";
name = "Nov 26 18, 10:52";
shapes = (
{
closed = 1;
nodes = (
(392,316,ls),
(392,121,o),
(548,-28,o),
(748,-28,cs),
(943,-28,o),
(1096,111,o),
(1096,284,cs),
(1096,457,o),
(943,596,o),
(744,596,cs),
(539,596,o),
(381,449,o),
(144,36,c),
(200,4,l),
(426,399,o),
(566,532,o),
(744,532,cs),
(906,532,o),
(1032,421,o),
(1032,284,cs),
(1032,147,o),
(908,36,o),
(748,36,cs),
(582,36,o),
(456,156,o),
(456,316,cs),
(456,1904,l),
(392,1904,l)
);
},
{
closed = 1;
nodes = (
(168,1536,l),
(168,1472,l),
(776,1472,l),
(776,1536,l)
);
},
{
closed = 1;
nodes = (
(1860,-32,o),
(2088,160,o),
(2132,448,c),
(2064,448,l),
(2028,196,o),
(1824,32,o),
(1580,32,cs),
(1240,32,o),
(1000,356,o),
(1000,764,cs),
(1000,1184,o),
(1248,1496,o),
(1580,1496,cs),
(1824,1496,o),
(2020,1328,o),
(2060,1088,c),
(2128,1088,l),
(2080,1368,o),
(1856,1560,o),
(1580,1560,cs),
(1204,1560,o),
(936,1216,o),
(936,764,cs),
(936,312,o),
(1208,-32,o),
(1580,-32,cs)
);
}
);
width = 2171;
},
{
associatedMasterId = "B1F27B51-9973-4381-9301-4FE46FE1CA59";
background = {
shapes = (
{
closed = 1;
nodes = (
(1820,0,o),
(2016,148,o),
(2016,328,cs),
(2016,512,o),
(1820,660,o),
(1580,660,cs),
(1336,660,o),
(1140,512,o),
(1140,328,cs),
(1140,148,o),
(1336,0,o),
(1580,0,cs)
);
},
{
closed = 1;
nodes = (
(1580,32,l),
(1240,32,o),
(1000,356,o),
(1000,764,cs),
(1000,1184,o),
(1248,1496,o),
(1580,1496,cs),
(1824,1496,o),
(2020,1328,o),
(2060,1088,c),
(2128,1088,l),
(2080,1368,o),
(1856,1560,o),
(1580,1560,cs),
(1204,1560,o),
(936,1216,o),
(936,764,cs),
(936,312,o),
(1208,-32,o),
(1580,-32,c)
);
}
);
};
guides = (
{
angle = 90;
pos = (424,1924);
}
);
layerId = "48B52DA4-D411-4525-BA71-C36A45F53F07";
name = "Nov 26 18, 11:03";
shapes = (
{
closed = 1;
nodes = (
(168,1536,l),
(168,1472,l),
(776,1472,l),
(776,1536,l)
);
},
{
closed = 0;
nodes = (
(424,1904,l),
(424,324,ls),
(424,147,o),
(569,4,o),
(752,4,cs),
(1143,4,o),
(1256,656,o),
(1676,656,cs),
(1890,656,o),
(2016,486,o),
(2016,328,cs),
(2016,141,o),
(1839,0,o),
(1592,0,cs),
(1209,0,o),
(968,344,o),
(968,764,cs),
(968,1199,o),
(1225,1528,o),
(1580,1528,cs),
(1841,1528,o),
(2052,1348,o),
(2096,1088,c)
);
}
);
width = 2172;
},
{
associatedMasterId = "5C20EF92-B63D-42A8-8878-93C2863E0093";
background = {
shapes = (
{
closed = 1;
nodes = (
(1262,-28,o),
(1610,484,o),
(1744,484,cs),
(1782,484,o),
(1814,472,o),
(1812,444,cs),
(1814,396,o),
(1766,388,o),
(1704,388,cs),
(1446,388,o),
(1446,540,o),
(1444,724,cs),
(1444,748,ls),
(1446,952,o),
(1442,1144,o),
(1636,1144,cs),
(1770,1144,o),
(1830,1060,o),
(1824,936,c),
(2316,936,l),
(2322,1344,o),
(2042,1556,o),
(1648,1556,cs),
(1138,1556,o),
(918,1188,o),
(916,748,cs),
(916,724,ls),
(918,284,o),
(1162,-28,o),
(1652,-28,cs),
(2130,-28,o),
(2318,256,o),
(2316,476,cs),
(2318,680,o),
(2162,872,o),
(1880,872,cs),
(1434,872,o),
(1058,392,o),
(864,392,c),
(770,392,o),
(766,432,o),
(764,512,cs),
(764,1904,l),
(240,1904,l),
(240,512,ls),
(242,124,o),
(458,-28,o),
(752,-28,cs)
);
},
{
closed = 1;
nodes = (
(916,1136,l),
(916,1536,l),
(44,1536,l),
(44,1136,l)
);
},
{
closed = 1;
nodes = (
(2256,-28,o),
(2536,232,o),
(2540,640,c),
(2028,640,l),
(2016,480,o),
(1928,392,o),
(1808,392,cs),
(1664,392,o),
(1568,516,o),
(1568,768,cs),
(1568,1020,o),
(1664,1144,o),
(1808,1144,cs),
(1932,1144,o),
(2012,1056,o),
(2028,896,c),
(2540,896,l),
(2536,1296,o),
(2252,1556,o),
(1800,1556,cs),
(1300,1556,o),
(1004,1236,o),
(1004,764,cs),
(1004,292,o),
(1300,-28,o),
(1800,-28,cs)
);
}
);
};
layerId = "21D65F99-4F3A-49FA-975B-9A4FA9E6A123";
name = "Nov 26 18, 11:16";
shapes = (
{
closed = 1;
nodes = (
(1262,-28,o),
(1610,484,o),
(1744,484,cs),
(1782,484,o),
(1814,472,o),
(1812,444,cs),
(1814,396,o),
(1766,388,o),
(1704,388,c),
(1652,-28,l),
(2130,-28,o),
(2318,256,o),
(2316,476,cs),
(2318,680,o),
(2162,872,o),
(1880,872,cs),
(1434,872,o),
(1058,392,o),
(864,392,c),
(752,-28,l)
);
},
{
closed = 1;
nodes = (
(44,1536,l),
(44,1136,l),
(1056,1136,l),
(1056,1536,l)
);
},
{
closed = 1;
nodes = (
(240,448,l),
(236,128,o),
(436,-37,o),
(816,-16,cs),
(940,-9,o),
(1036,16,o),
(1084,32,c),
(1004,420,l),
(984,416,o),
(928,404,o),
(896,404,cs),
(824,404,o),
(792,436,o),
(792,500,cs),
(792,1904,l),
(240,1904,l)
);
},
{
closed = 0;
nodes = (
(1808,392,l),
(1664,392,o),
(1568,516,o),
(1568,768,cs),
(1568,1020,o),
(1664,1144,o),
(1808,1144,cs),
(1932,1144,o),
(2012,1056,o),
(2028,896,c),
(2540,896,l),
(2536,1296,o),
(2252,1556,o),
(1800,1556,cs),
(1300,1556,o),
(1004,1236,o),
(1004,764,cs),
(1004,292,o),
(1300,-28,o),
(1800,-28,cs)
);
}
);
width = 2408;
},
{
layerId = "CD0E3B44-F66A-4791-B84C-A1128DC61275";
shapes = (
{
closed = 1;
nodes = (
(66,1536,l),
(66,1332,l),
(866,1332,l),
(866,1536,l)
);
},
{
closed = 1;
nodes = (
(296,412,ls),
(296,120,o),
(478,-22,o),
(706,-20,cs),
(930,-18,o),
(1128,120,o),
(1276,288,cs),
(1428,462,o),
(1552,550,o),
(1716,550,cs),
(1832,550,o),
(1878,506,o),
(1878,424,cs),
(1878,270,o),
(1712,186,o),
(1536,186,cs),
(1258,186,o),
(1078,414,o),
(1078,768,cs),
(1078,1114,o),
(1260,1340,o),
(1532,1340,cs),
(1738,1340,o),
(1862,1212,o),
(1896,1072,c),
(2140,1072,l),
(2100,1362,o),
(1856,1556,o),
(1528,1556,cs),
(1110,1556,o),
(834,1228,o),
(834,760,cs),
(834,300,o),
(1098,-32,o),
(1532,-32,cs),
(1852,-32,o),
(2104,152,o),
(2104,422,cs),
(2104,618,o),
(1976,766,o),
(1726,766,cs),
(1474,766,o),
(1284,626,o),
(1092,426,cs),
(966,292,o),
(826,200,o),
(710,200,cs),
(624,200,o),
(540,252,o),
(540,414,cs),
(540,1904,l),
(296,1904,l)
);
}
);
width = 2262;
}
);
metricLeft = t;
metricRight = e;
unicode = 680;
userData = {
interface.gridadjust.original = "{'width': 2182, 'leftMargin': 8, 'rightMargin': 88}";
"interface.width-adjustments" = (
-16
);
};
}
{
glyphname = finaltsadi;
layers = (
{
layerId = "5C20EF92-B63D-42A8-8878-93C2863E0093";
shapes = (
{
closed = 1;
nodes = (
(113,896,o),
(133,892,o),
(164,892,cs),
(393,892,o),
(541,1116,o),
(540,1432,c),
(472,1424,l),
(473,1288,o),
(373,1236,o),
(232,1236,cs),
(185,1236,o),
(133,1240,o),
(96,1252,c),
(96,900,l)
);
},
{
closed = 1;
nodes = (
(1040,780,l),
(1009,772,o),
(985,768,o),
(964,768,cs),
(829,768,o),
(781,852,o),
(780,932,cs),
(780,2008,l),
(440,2008,l),
(440,888,ls),
(441,552,o),
(581,476,o),
(840,476,cs),
(909,476,o),
(1033,488,o),
(1040,488,c)
);
}
);
width = 1136;
},
{
layerId = "B1F27B51-9973-4381-9301-4FE46FE1CA59";
shapes = (
{
closed = 1;
nodes = (
(156,930,o),
(179,928,o),
(202,928,cs),
(340,928,o),
(451,1005,o),
(498,1132,c),
(490,1246,l),
(458,1095,o),
(343,992,o),
(194,992,cs),
(174,992,o),
(151,994,o),
(128,1000,c),
(128,934,l)
);
},
{
closed = 1;
nodes = (
(764,524,l),
(740,518,o),
(716,516,o),
(692,516,cs),
(604,516,o),
(552,548,o),
(552,676,cs),
(552,1988,l),
(488,1988,l),
(488,676,ls),
(488,510,o),
(566,452,o),
(692,452,cs),
(716,452,o),
(740,454,o),
(764,460,c)
);
}
);
width = 884;
},
{
layerId = "CD0E3B44-F66A-4791-B84C-A1128DC61275";
shapes = (
{
closed = 1;
nodes = (
(126,880,o),
(164,876,o),
(208,876,cs),
(398,876,o),
(530,1100,o),
(530,1408,c),
(466,1408,l),
(462,1238,o),
(400,1116,o),
(254,1116,cs),
(202,1116,o),
(158,1126,o),
(114,1146,c),
(114,888,l)
);
},
{
closed = 1;
nodes = (
(858,714,l),
(838,706,o),
(794,698,o),
(758,698,cs),
(720,698,o),
(684,720,o),
(684,792,cs),
(684,1996,l),
(430,1996,l),
(430,774,ls),
(430,580,o),
(476,452,o),
(650,452,cs),
(722,452,o),
(784,460,o),
(858,476,c)
);
}
);
width = 968;
}
);
unicode = 693;
userData = {
interface.gridadjust.original = "{'width': 850, 'leftMargin': 55, 'rightMargin': 55}";
"interface.width-adjustments" = (
-16
);
};
}
{
color = 1;
glyphname = y.sups;
kernLeft = v.sups;
kernRight = v.sups;
layers = (
{
layerId = "5C20EF92-B63D-42A8-8878-93C2863E0093";
shapes = (
{
closed = 1;
nodes = (
(536,628,o),
(676,756,o),
(740,936,cs),
(1132,2048,l),
(744,2048,l),
(576,1380,l),
(564,1380,l),
(396,2048,l),
(12,2048,l),
(360,996,l),
(360,988,ls),
(360,912,o),
(266,921,o),
(156,928,c),
(156,634,l),
(180,631,o),
(208,628,o),
(296,628,cs)
);
}
);
userData = {
RMXScaler = {
height = 66.6;
verticalShift = 1024;
weight = -300;
width = 66.6;
};
};
width = 1144;
},
{
layerId = "B1F27B51-9973-4381-9301-4FE46FE1CA59";
shapes = (
{
closed = 1;
nodes = (
(308,620,o),
(388,700,o),
(432,824,cs),
(868,2048,l),
(804,2048,l),
(468,1104,l),
(460,1104,l),
(128,2048,l),
(60,2048,l),
(432,1008,l),
(376,848,ls),
(321,692,o),
(250,668,o),
(128,678,c),
(128,622,l),
(138,621,o),
(153,620,o),
(182,620,cs)
);
}
);
userData = {
RMXScaler = {
height = 66.6;
verticalShift = 1024;
width = 66.6;
};
};
width = 928;
},
{
associatedMasterId = "B1F27B51-9973-4381-9301-4FE46FE1CA59";
layerId = "7828E123-FB13-4277-8097-73B0E25936D2";
name = "May 15, 21 16:42";
shapes = (
{
closed = 1;
nodes = (
(308,620,o),
(388,700,o),
(432,824,cs),
(868,2048,l),
(804,2048,l),
(468,1104,l),
(460,1104,l),
(128,2048,l),
(60,2048,l),
(432,1008,l),
(376,848,ls),
(320,692,o),
(228,648,o),
(100,700,c),
(80,644,l),
(108,632,o),
(156,620,o),
(192,620,cs)
);
}
);
userData = {
RMXScaler = {
height = 66.6;
verticalShift = 1024;
width = 66.6;
};
};
width = 928;
},
{
associatedMasterId = "5C20EF92-B63D-42A8-8878-93C2863E0093";
layerId = "1D76B9EF-C738-4804-87B5-629796223207";
name = "May 15, 21 16:42";
shapes = (
{
closed = 1;
nodes = (
(560,628,o),
(700,756,o),
(764,936,cs),
(1156,2048,l),
(768,2048,l),
(600,1380,l),
(588,1380,l),
(420,2048,l),
(36,2048,l),
(384,996,l),
(384,988,ls),
(384,912,o),
(308,924,o),
(216,944,c),
(136,660,l),
(164,648,o),
(232,628,o),
(320,628,cs)
);
}
);
userData = {
RMXScaler = {
height = 66.6;
verticalShift = 1024;
weight = -300;
width = 66.6;
};
};
width = 1192;
},
{
layerId = "CD0E3B44-F66A-4791-B84C-A1128DC61275";
shapes = (
{
closed = 1;
nodes = (
(428,624,o),
(534,736,o),
(586,882,cs),
(998,2048,l),
(766,2048,l),
(516,1240,l),
(508,1240,l),
(258,2048,l),
(30,2048,l),
(396,1000,l),
(366,918,ls),
(326,812,o),
(244,794,o),
(132,806,c),
(130,626,l),
(170,624,o),
(188,624,o),
(242,624,cs)
);
}
);
userData = {
RMXScaler = {
height = 66.6;
verticalShift = 1024;
weight = -50;
width = 66.6;
};
};
width = 1028;
}
);
metricLeft = v.sups;
metricRight = v.sups;
unicode = 696;
userData = {
RMXScaler = {
source = y;
};
};
}
{
glyphname = commareversedmod;
layers = (
{
layerId = "5C20EF92-B63D-42A8-8878-93C2863E0093";
shapes = (
{
closed = 1;
nodes = (
(714,1364,l),
(682,1474,o),
(590,1760,o),
(590,2032,cs),
(590,2144,l),
(174,2144,l),
(182,2032,ls),
(203,1742,o),
(326,1474,o),
(374,1364,c)
);
}
);
width = 888;
},
{
layerId = "B1F27B51-9973-4381-9301-4FE46FE1CA59";
shapes = (
{
closed = 1;
nodes = (
(436,1364,l),
(408,1516,o),
(360,1762,o),
(312,2032,cs),
(292,2144,l),
(224,2144,l),
(244,2040,ls),
(281,1846,o),
(336,1514,o),
(384,1364,c)
);
}
);
width = 660;
},
{
layerId = "CD0E3B44-F66A-4791-B84C-A1128DC61275";
shapes = (
{
closed = 1;
nodes = (
(548,1364,l),
(522,1490,o),
(464,1760,o),
(436,2032,cs),
(424,2144,l),
(164,2144,l),
(180,2036,ls),
(214,1806,o),
(316,1500,o),
(364,1364,c)
);
}
);
width = 712;
}
);
unicode = 701;
userData = {
interface.gridadjust.original = "{'width': 626, 'leftMargin': 110, 'rightMargin': 110}";
"interface.width-adjustments" = (
-16
);
};
}
{
color = (204,240,242,1);
glyphname = arrowheadrightmod;
layers = (
{
layerId = "5C20EF92-B63D-42A8-8878-93C2863E0093";
shapes = (
{
closed = 1;
nodes = (
(1468,1488,l),
(332,1844,l),
(332,1516,l),
(960,1320,l),
(1468,1240,l)
);
},
{
closed = 1;
nodes = (
(1468,1148,l),
(1468,1396,l),
(960,1312,l),
(332,1128,l),
(332,792,l)
);
}
);
width = 1800;
},
{
layerId = "B1F27B51-9973-4381-9301-4FE46FE1CA59";
shapes = (
{
closed = 1;
nodes = (
(1120,1358,l),
(148,1806,l),
(148,1736,l),
(1012,1338,l),
(1120,1292,l)
);
},
{
closed = 1;
nodes = (
(1120,1288,l),
(1120,1354,l),
(1012,1308,l),
(148,910,l),
(148,840,l)
);
}
);
width = 1200;
},
{
associatedMasterId = "CD0E3B44-F66A-4791-B84C-A1128DC61275";
layerId = "AD8197BA-D046-422E-86B2-3A91889D2266";
shapes = (
{
closed = 1;
nodes = (
(1108,1422,l),
(106,1828,l),
(106,1586,l),
(730,1348,l),
(1108,1252,l)
);
},
{
closed = 1;
nodes = (
(1108,1230,l),
(1108,1396,l),
(730,1296,l),
(106,1062,l),
(106,820,l)
);
}
);
width = 1213.53962;
},
{
layerId = "CD0E3B44-F66A-4791-B84C-A1128DC61275";
shapes = (
{
closed = 1;
nodes = (
(1112,1422,l),
(110,1828,l),
(110,1586,l),
(734,1348,l),
(1112,1252,l)
);
},
{
closed = 1;
nodes = (
(1112,1230,l),
(1112,1396,l),
(734,1296,l),
(110,1062,l),
(110,820,l)
);
}
);
width = 1222;
}
);
unicode = 707;
userData = {
interface.gridadjust.original = "{'width': 1137, 'leftMargin': 69, 'rightMargin': 69}";
"interface.width-adjustments" = (
-16
);
};
}
{
color = (204,240,242,1);
glyphname = arrowheaddownmod;
layers = (
{
layerId = "5C20EF92-B63D-42A8-8878-93C2863E0093";
shapes = (
{
closed = 1;
nodes = (
(884,780,l),
(1260,1872,l),
(924,1872,l),
(716,1276,l),
(628,780,l)
);
},
{
closed = 1;
nodes = (
(792,780,l),
(704,1276,l),
(504,1872,l),
(160,1872,l),
(540,780,l)
);
}
);
width = 1420;
},
{
layerId = "B1F27B51-9973-4381-9301-4FE46FE1CA59";
shapes = (
{
closed = 1;
nodes = (
(588,820,l),
(1036,1792,l),
(966,1792,l),
(568,928,l),
(522,820,l)
);
},
{
closed = 1;
nodes = (
(584,820,l),
(538,928,l),
(140,1792,l),
(70,1792,l),
(518,820,l)
);
}
);
width = 1106;
},
{
layerId = "CD0E3B44-F66A-4791-B84C-A1128DC61275";
shapes = (
{
closed = 1;
nodes = (
(710,804,l),
(1118,1802,l),
(874,1802,l),
(636,1182,l),
(540,804,l)
);
},
{
closed = 1;
nodes = (
(684,804,l),
(584,1182,l),
(350,1802,l),
(106,1802,l),
(518,804,l)
);
}
);
width = 1224;
}
);
unicode = 709;
userData = {
interface.gridadjust.original = "{'width': 1090, 'leftMargin': 41, 'rightMargin': 41}";
"interface.width-adjustments" = (
-16
);
};
}
{
color = (204,240,242,1);
glyphname = minusmod;
layers = (
{
layerId = "5C20EF92-B63D-42A8-8878-93C2863E0093";
shapes = (
{
closed = 1;
nodes = (
(216,360,l),
(1032,360,l),
(1032,660,l),
(216,660,l)
);
}
);
width = 1244;
},
{
layerId = "B1F27B51-9973-4381-9301-4FE46FE1CA59";
shapes = (
{
closed = 1;
nodes = (
(-52,436,l),
(444,436,l),
(444,500,l),
(-52,500,l)
);
}
);
width = 394;
},
{
associatedMasterId = "CD0E3B44-F66A-4791-B84C-A1128DC61275";
layerId = "491D2F56-EA20-4DA6-B757-92004E7B3752";
shapes = (
{
closed = 1;
nodes = (
(40,388,l),
(660,388,l),
(660,582,l),
(40,582,l)
);
}
);
width = 700.46038;
},
{
layerId = "CD0E3B44-F66A-4791-B84C-A1128DC61275";
shapes = (
{
closed = 1;
nodes = (
(46,388,l),
(666,388,l),
(666,582,l),
(46,582,l)
);
}
);
width = 712;
}
);
unicode = 727;
userData = {
interface.gridadjust.original = "{'width': 754, 'leftMargin': 69, 'rightMargin': 69}";
"interface.width-adjustments" = (
-16
);
};
}
{
color = (204,240,242,1);
glyphname = dotaccent;
layers = (
{
anchors = (
{
name = _top;
pos = (460,1792);
}
);
guides = (
{
orientation = center;
angle = 90;
pos = (396,1500);
},
{
pos = (508,1948);
}
);
layerId = "5C20EF92-B63D-42A8-8878-93C2863E0093";
shapes = (
{
closed = 1;
nodes = (
(610,1696,o),
(732,1809,o),
(732,1948,cs),
(732,2087,o),
(610,2200,o),
(460,2200,cs),
(310,2200,o),
(188,2087,o),
(188,1948,cs),
(188,1809,o),
(310,1696,o),
(460,1696,cs)
);
}
);
width = 920;
},
{
anchors = (
{
name = _top;
pos = (224,1792);
}
);
guides = (
{
pos = (616,2464);
}
);
layerId = "B1F27B51-9973-4381-9301-4FE46FE1CA59";
shapes = (
{
closed = 1;
nodes = (
(259,1816,o),
(288,1845,o),
(288,1880,cs),
(288,1915,o),
(259,1944,o),
(224,1944,cs),
(189,1944,o),
(160,1915,o),
(160,1880,cs),
(160,1845,o),
(189,1816,o),
(224,1816,cs)
);
}
);
width = 448;
},
{
anchors = (
{
name = _top;
pos = (308,1792);
}
);
associatedMasterId = "CD0E3B44-F66A-4791-B84C-A1128DC61275";
layerId = "BD407ACF-BBAC-46FC-9DBC-687BE006CD48";
shapes = (
{
closed = 1;
nodes = (
(400,1790,o),
(478,1862,o),
(478,1952,cs),
(478,2042,o),
(400,2114,o),
(308,2114,cs),
(214,2114,o),
(136,2042,o),
(136,1952,cs),
(136,1862,o),
(214,1790,o),
(308,1790,cs)
);
}
);
width = 614.47547;
},
{
anchors = (
{
name = _top;
pos = (318,1792);
}
);
layerId = "CD0E3B44-F66A-4791-B84C-A1128DC61275";
shapes = (
{
closed = 1;
nodes = (
(410,1790,o),
(488,1862,o),
(488,1952,cs),
(488,2042,o),
(410,2114,o),
(318,2114,cs),
(224,2114,o),
(146,2042,o),
(146,1952,cs),
(146,1862,o),
(224,1790,o),
(318,1790,cs)
);
}
);
width = 634;
}
);
unicode = 729;
userData = {
interface.gridadjust.original = "{'width': 696, 'leftMargin': 193, 'rightMargin': 186}";
"interface.width-adjustments" = (
-16
);
};
}
{
glyphname = glottalstopreversed.numr;
layers = (
{
layerId = "5C20EF92-B63D-42A8-8878-93C2863E0093";
shapes = (
{
closed = 1;
nodes = (
(1192,1584,l),
(1194,1832,o),
(1010,2016,o),
(720,2016,cs),
(426,2016,o),
(238,1840,o),
(236,1512,cs),
(238,1272,o),
(390,1032,o),
(648,1032,cs),
(880,1032,l),
(880,1268,l),
(724,1268,ls),
(634,1268,o),
(574,1360,o),
(572,1488,cs),
(574,1636,o),
(646,1732,o),
(748,1732,cs),
(826,1732,o),
(890,1680,o),
(888,1584,c)
);
},
{
closed = 1;
nodes = (
(888,1268,l),
(556,1268,l),
(556,900,l),
(888,900,l)
);
}
);
width = 1428;
},
{
layerId = "B1F27B51-9973-4381-9301-4FE46FE1CA59";
shapes = (
{
closed = 1;
nodes = (
(976,1620,l),
(945,1878,o),
(787,2016,o),
(524,2016,cs),
(238,2016,o),
(52,1838,o),
(52,1554,cs),
(52,1286,o),
(231,1112,o),
(496,1114,c),
(520,1114,l),
(520,1176,l,{
name = hr00;
}),
(508,1176,l),
(267,1174,o),
(116,1316,o),
(116,1554,cs),
(116,1802,o),
(273,1952,o),
(524,1952,cs),
(750,1952,o),
(883,1839,o),
(912,1620,c)
);
},
{
closed = 1;
nodes = (
(532,1176,l),
(468,1176,l),
(468,896,l),
(532,896,l)
);
}
);
width = 1026;
},
{
associatedMasterId = "CD0E3B44-F66A-4791-B84C-A1128DC61275";
layerId = "0E7F9F56-29A9-4C3C-9F8D-32D24E3D4DF0";
shapes = (
{
closed = 1;
nodes = (
(1094,1608,l),
(1094,1860,o),
(874,2016,o),
(606,2016,cs),
(326,2016,o),
(110,1836,o),
(110,1516,cs),
(110,1194,o),
(322,1032,o),
(600,1032,c),
(654,1032,l),
(654,1240,l),
(606,1240,ls),
(420,1240,o),
(364,1348,o),
(364,1520,cs),
(364,1690,o),
(432,1802,o),
(604,1802,cs),
(742,1802,o),
(826,1720,o),
(836,1608,c)
);
},
{
closed = 1;
nodes = (
(724,1240,l),
(470,1240,l),
(470,896,l),
(724,896,l)
);
}
);
width = 1204.41509;
},
{
layerId = "CD0E3B44-F66A-4791-B84C-A1128DC61275";
shapes = (
{
closed = 1;
nodes = (
(1102,1608,l),
(1102,1860,o),
(882,2016,o),
(614,2016,cs),
(334,2016,o),
(118,1836,o),
(118,1516,cs),
(118,1194,o),
(330,1032,o),
(608,1032,c),
(662,1032,l),
(662,1240,l),
(614,1240,ls),
(428,1240,o),
(372,1348,o),
(372,1520,cs),
(372,1690,o),
(440,1802,o),
(612,1802,cs),
(750,1802,o),
(834,1720,o),
(844,1608,c)
);
},
{
closed = 1;
nodes = (
(732,1240,l),
(478,1240,l),
(478,896,l),
(732,896,l)
);
}
);
width = 1220;
}
);
unicode = 740;
userData = {
interface.gridadjust.original = "{'width': 1176, 'leftMargin': 96, 'rightMargin': 97}";
"interface.width-adjustments" = (
-16
);
};
}
{
color = (204,240,242,1);
glyphname = tonebarlowmod.cn;
layers = (
{
layerId = "5C20EF92-B63D-42A8-8878-93C2863E0093";
shapes = (
{
closed = 1;
nodes = (
(528,2004,l),
(528,0,l),
(1044,0,l),
(1044,2004,l)
);
},
{
closed = 1;
nodes = (
(104,708,l),
(104,296,l),
(1000,296,l),
(1000,708,l)
);
}
);
width = 1140;
},
{
layerId = "B1F27B51-9973-4381-9301-4FE46FE1CA59";
shapes = (
{
closed = 1;
nodes = (
(592,2004,l),
(592,0,l),
(656,0,l),
(656,2004,l)
);
},
{
closed = 1;
nodes = (
(208,538,l),
(208,474,l),
(632,474,l),
(632,538,l)
);
}
);
width = 866;
},
{
associatedMasterId = "CD0E3B44-F66A-4791-B84C-A1128DC61275";
layerId = "00963F08-C8AE-4C9A-AD53-11C5BCE3D974";
shapes = (
{
closed = 1;
nodes = (
(512,2004,l),
(512,0,l),
(794,0,l),
(794,2004,l)
);
},
{
closed = 1;
nodes = (
(154,614,l),
(154,390,l),
(726,390,l),
(726,614,l)
);
}
);
width = 947.63019;
},
{
layerId = "CD0E3B44-F66A-4791-B84C-A1128DC61275";
shapes = (
{
closed = 1;
nodes = (
(524,2004,l),
(524,0,l),
(806,0,l),
(806,2004,l)
);
},
{
closed = 1;
nodes = (
(166,614,l),
(166,390,l),
(738,390,l),
(738,614,l)
);
}
);
width = 972;
}
);
unicode = 744;
userData = {
interface.gridadjust.original = "{'width': 919, 'leftMargin': 55, 'rightMargin': 234}";
"interface.width-adjustments" = (
-16
);
};
}
{
glyphname = uni02EC;
layers = (
{
layerId = "5C20EF92-B63D-42A8-8878-93C2863E0093";
shapes = (
{
closed = 1;
nodes = (
(236,-184,l),
(236,-196,l),
(728,-596,l),
(1060,-596,l),
(1544,-196,l),
(1544,-184,l),
(1108,-184,l),
(892,-352,l),
(684,-184,l)
);
}
);
width = 1780;
},
{
layerId = "B1F27B51-9973-4381-9301-4FE46FE1CA59";
shapes = (
{
closed = 1;
nodes = (
(148,-180,l),
(148,-192,l),
(408,-560,l),
(472,-560,l),
(752,-192,l),
(752,-180,l),
(682,-180,l),
(440,-496,l),
(218,-180,l)
);
}
);
width = 890;
},
{
associatedMasterId = "CD0E3B44-F66A-4791-B84C-A1128DC61275";
layerId = "D69F9861-E66D-4E6A-A245-FCDE6F991623";
shapes = (
{
closed = 1;
nodes = (
(170,-180,l),
(170,-192,l),
(520,-572,l),
(688,-572,l),
(1048,-192,l),
(1048,-180,l),
(806,-180,l),
(606,-406,l),
(402,-180,l)
);
}
);
width = 1213.04906;
},
{
layerId = "CD0E3B44-F66A-4791-B84C-A1128DC61275";
shapes = (
{
closed = 1;
nodes = (
(178,-180,l),
(178,-192,l),
(528,-572,l),
(696,-572,l),
(1056,-192,l),
(1056,-180,l),
(814,-180,l),
(614,-406,l),
(410,-180,l)
);
}
);
width = 1230;
}
);
unicode = 748;
userData = {
interface.gridadjust.original = "{'width': 1089.0, 'leftMargin': 110, 'rightMargin': 110.0}";
"interface.width-adjustments" = (
-16
);
};
}
{
color = (204,240,242,1);
glyphname = uni02FA;
layers = (
{
layerId = "5C20EF92-B63D-42A8-8878-93C2863E0093";
shapes = (
{
closed = 1;
nodes = (
(936,1548,l),
(936,2112,l),
(628,2112,l),
(628,1548,l)
);
},
{
closed = 1;
nodes = (
(936,1824,l),
(936,2112,l),
(324,2112,l),
(324,1824,l)
);
}
);
width = 1260;
},
{
layerId = "B1F27B51-9973-4381-9301-4FE46FE1CA59";
shapes = (
{
closed = 1;
nodes = (
(480,1664,l),
(480,2112,l),
(416,2112,l),
(416,1664,l)
);
},
{
closed = 1;
nodes = (
(480,2048,l),
(480,2112,l),
(64,2112,l),
(64,2048,l)
);
}
);
width = 544;
},
{
associatedMasterId = "CD0E3B44-F66A-4791-B84C-A1128DC61275";
layerId = "08C37FF9-7C86-45EB-AC2F-E1BC5D6DC55F";
shapes = (
{
closed = 1;
nodes = (
(628,1586,l),
(628,2112,l),
(410,2112,l),
(410,1586,l)
);
},
{
closed = 1;
nodes = (
(628,1910,l),
(628,2112,l),
(86,2112,l),
(86,1910,l)
);
}
);
width = 700.85283;
},
{
layerId = "CD0E3B44-F66A-4791-B84C-A1128DC61275";
shapes = (
{
closed = 1;
nodes = (
(624,1586,l),
(624,2112,l),
(406,2112,l),
(406,1586,l)
);
},
{
closed = 1;
nodes = (
(624,1910,l),
(624,2112,l),
(82,2112,l),
(82,1910,l)
);
}
);
width = 702;
}
);
unicode = 762;
userData = {
interface.gridadjust.original = "{'width': 767, 'leftMargin': 110, 'rightMargin': 110}";
"interface.width-adjustments" = (
-16
);
};
}
{
color = (250,227,227,1);
glyphname = breveinvnosp;
layers = (
{
anchors = (
{
name = _top;
pos = (-884,1576);
}
);
layerId = "5C20EF92-B63D-42A8-8878-93C2863E0093";
shapes = (
{
closed = 1;
nodes = (
(-1088,1560,l),
(-1090,1644,o),
(-1034,1724,o),
(-888,1724,cs),
(-742,1724,o),
(-686,1644,o),
(-684,1560,c),
(-336,1560,l),
(-338,1820,o),
(-554,2004,o),
(-888,2004,cs),
(-1226,2004,o),
(-1438,1820,o),
(-1436,1560,c)
);
}
);
width = 0;
},
{
anchors = (
{
name = _top;
pos = (-856,1664);
}
);
layerId = "B1F27B51-9973-4381-9301-4FE46FE1CA59";
shapes = (
{
closed = 1;
nodes = (
(-1010,1768,l),
(-1010,1874,o),
(-954,1932,o),
(-850,1932,cs),
(-746,1932,o),
(-690,1874,o),
(-690,1768,c),
(-626,1768,l),
(-626,1909,o),
(-710,1996,o),
(-850,1996,cs),
(-990,1996,o),
(-1074,1909,o),
(-1074,1768,c)
);
}
);
width = 0;
},
{
anchors = (
{
name = _top;
pos = (-882,1630);
}
);
associatedMasterId = "CD0E3B44-F66A-4791-B84C-A1128DC61275";
layerId = "62C4F100-5130-4050-8059-D30D62354822";
shapes = (
{
closed = 1;
nodes = (
(-1078,1630,l),
(-1078,1734,o),
(-1026,1830,o),
(-882,1830,cs),
(-746,1830,o),
(-690,1738,o),
(-690,1630,c),
(-468,1630,l),
(-468,1848,o),
(-624,2004,o),
(-882,2004,cs),
(-1140,2004,o),
(-1302,1848,o),
(-1302,1630,c)
);
}
);
width = 0;
},
{
anchors = (
{
name = _top;
pos = (-878,1630);
}
);
layerId = "CD0E3B44-F66A-4791-B84C-A1128DC61275";
shapes = (
{
closed = 1;
nodes = (
(-1074,1630,l),
(-1074,1734,o),
(-1022,1830,o),
(-878,1830,cs),
(-742,1830,o),
(-686,1738,o),
(-686,1630,c),
(-464,1630,l),
(-464,1848,o),
(-620,2004,o),
(-878,2004,cs),
(-1136,2004,o),
(-1298,1848,o),
(-1298,1630,c)
);
}
);
width = 6;
}
);
unicode = 785;
}
{
color = (250,227,227,1);
glyphname = squaresubnosp;
layers = (
{
layerId = "5C20EF92-B63D-42A8-8878-93C2863E0093";
shapes = (
{
closed = 1;
nodes = (
(-612,-744,l),
(-612,-112,l),
(-1272,-112,l),
(-1272,-744,l)
);
},
{
closed = 1;
nodes = (
(-860,-352,l),
(-860,-504,l),
(-1028,-504,l),
(-1028,-352,l)
);
}
);
width = 0;
},
{
layerId = "B1F27B51-9973-4381-9301-4FE46FE1CA59";
shapes = (
{
closed = 1;
nodes = (
(-512,-624,l),
(-512,-112,l),
(-1004,-112,l),
(-1004,-624,l)
);
},
{
closed = 1;
nodes = (
(-576,-176,l),
(-576,-560,l),
(-940,-560,l),
(-940,-176,l)
);
}
);
width = 0;
},
{
associatedMasterId = "CD0E3B44-F66A-4791-B84C-A1128DC61275";
layerId = "33AA5603-A18E-4CC5-A1E5-C368C552CAC7";
shapes = (
{
closed = 1;
nodes = (
(-562,-670,l),
(-562,-112,l),
(-1120,-112,l),
(-1120,-670,l)
);
},
{
closed = 1;
nodes = (
(-716,-262,l),
(-716,-516,l),
(-970,-516,l),
(-970,-262,l)
);
}
);
width = 0.29434;
},
{
layerId = "CD0E3B44-F66A-4791-B84C-A1128DC61275";
shapes = (
{
closed = 1;
nodes = (
(-558,-670,l),
(-558,-112,l),
(-1116,-112,l),
(-1116,-670,l)
);
},
{
closed = 1;
nodes = (
(-712,-262,l),
(-712,-516,l),
(-966,-516,l),
(-966,-262,l)
);
}
);
width = 2;
}
);
unicode = 827;
}
{
color = (250,227,227,1);
glyphname = seagullsubnosp;
layers = (
{
guides = (
{
angle = 90;
pos = (-964,-260);
}
);
layerId = "5C20EF92-B63D-42A8-8878-93C2863E0093";
shapes = (
{
closed = 1;
nodes = (
(-730,-370,o),
(-666,-310,o),
(-554,-310,cs),
(-444,-310,o),
(-378,-370,o),
(-378,-480,c),
(-158,-480,l),
(-158,-264,o),
(-330,-130,o),
(-554,-130,cs),
(-780,-130,o),
(-950,-264,o),
(-950,-480,c),
(-730,-480,l)
);
},
{
closed = 1;
nodes = (
(-1302,-370,o),
(-1238,-310,o),
(-1126,-310,cs),
(-1016,-310,o),
(-950,-370,o),
(-950,-480,c),
(-730,-480,l),
(-730,-264,o),
(-902,-130,o),
(-1126,-130,cs),
(-1352,-130,o),
(-1522,-264,o),
(-1522,-480,c),
(-1302,-480,l)
);
}
);
width = 0;
},
{
guides = (
{
angle = 90;
pos = (-836,382);
}
);
layerId = "B1F27B51-9973-4381-9301-4FE46FE1CA59";
shapes = (
{
closed = 1;
nodes = (
(-704,-369,o),
(-639,-310,o),
(-528,-310,cs),
(-417,-310,o),
(-352,-369,o),
(-352,-480,c),
(-288,-480,l),
(-288,-335,o),
(-380,-246,o),
(-528,-246,cs),
(-676,-246,o),
(-768,-335,o),
(-768,-480,c),
(-704,-480,l)
);
},
{
closed = 1;
nodes = (
(-1120,-369,o),
(-1055,-310,o),
(-944,-310,cs),
(-833,-310,o),
(-768,-369,o),
(-768,-480,c),
(-704,-480,l),
(-704,-335,o),
(-796,-246,o),
(-944,-246,cs),
(-1092,-246,o),
(-1184,-335,o),
(-1184,-480,c),
(-1120,-480,l)
);
}
);
width = 0;
},
{
associatedMasterId = "B1F27B51-9973-4381-9301-4FE46FE1CA59";
guides = (
{
angle = 90;
pos = (-700,-202);
}
);
layerId = "51A2277C-C7E1-4F6A-AEC2-6D32D5040439";
name = wire;
shapes = (
{
closed = 0;
nodes = (
(-320,-480,l),
(-320,-369,o),
(-385,-310,o),
(-496,-310,cs),
(-607,-310,o),
(-672,-369,o),
(-672,-480,cs)
);
},
{
closed = 0;
nodes = (
(-736,-480,l),
(-736,-369,o),
(-801,-310,o),
(-912,-310,cs),
(-1023,-310,o),
(-1088,-369,o),
(-1088,-480,cs)
);
}
);
width = 0;
},
{
associatedMasterId = "5C20EF92-B63D-42A8-8878-93C2863E0093";
background = {
shapes = (
{
closed = 1;
nodes = (
(-730,-369,o),
(-665,-310,o),
(-554,-310,cs),
(-443,-310,o),
(-378,-369,o),
(-378,-480,c),
(-158,-480,l),
(-158,-263,o),
(-329,-130,o),
(-554,-130,cs),
(-779,-130,o),
(-950,-263,o),
(-950,-480,c),
(-730,-480,l)
);
},
{
closed = 1;
nodes = (
(-1302,-369,o),
(-1237,-310,o),
(-1126,-310,cs),
(-1015,-310,o),
(-950,-369,o),
(-950,-480,c),
(-730,-480,l),
(-730,-263,o),
(-901,-130,o),
(-1126,-130,cs),
(-1351,-130,o),
(-1522,-263,o),
(-1522,-480,c),
(-1302,-480,l)
);
}
);
};
guides = (
{
angle = 90;
pos = (-840,-260);
}
);
layerId = "0E70C4A2-BB33-4192-8232-2198E7B917D2";
name = wire;
shapes = (
{
closed = 0;
nodes = (
(-378,-480,l),
(-378,-369,o),
(-443,-310,o),
(-554,-310,cs),
(-665,-310,o),
(-730,-369,o),
(-730,-480,cs)
);
},
{
closed = 0;
nodes = (
(-950,-480,l),
(-950,-369,o),
(-1015,-310,o),
(-1126,-310,cs),
(-1237,-310,o),
(-1302,-369,o),
(-1302,-480,cs)
);
}
);
width = 40;
},
{
associatedMasterId = "CD0E3B44-F66A-4791-B84C-A1128DC61275";
layerId = "CE814877-FAF0-4FDE-8D8E-AC34E8D335C8";
shapes = (
{
closed = 1;
nodes = (
(-722,-402,o),
(-658,-344,o),
(-546,-344,cs),
(-436,-344,o),
(-370,-402,o),
(-370,-514,c),
(-228,-514,l),
(-228,-316,o),
(-354,-182,o),
(-546,-182,cs),
(-740,-182,o),
(-864,-316,o),
(-864,-514,c),
(-722,-514,l)
);
},
{
closed = 1;
nodes = (
(-1216,-402,o),
(-1152,-344,o),
(-1040,-344,cs),
(-930,-344,o),
(-864,-402,o),
(-864,-514,c),
(-722,-514,l),
(-722,-316,o),
(-846,-182,o),
(-1040,-182,cs),
(-1234,-182,o),
(-1358,-316,o),
(-1358,-514,c),
(-1216,-514,l)
);
}
);
width = 0;
},
{
layerId = "CD0E3B44-F66A-4791-B84C-A1128DC61275";
shapes = (
{
closed = 1;
nodes = (
(-718,-402,o),
(-654,-344,o),
(-542,-344,cs),
(-432,-344,o),
(-366,-402,o),
(-366,-514,c),
(-224,-514,l),
(-224,-316,o),
(-350,-182,o),
(-542,-182,cs),
(-736,-182,o),
(-860,-316,o),
(-860,-514,c),
(-718,-514,l)
);
},
{
closed = 1;
nodes = (
(-1212,-402,o),
(-1148,-344,o),
(-1036,-344,cs),
(-926,-344,o),
(-860,-402,o),
(-860,-514,c),
(-718,-514,l),
(-718,-316,o),
(-842,-182,o),
(-1036,-182,cs),
(-1230,-182,o),
(-1354,-316,o),
(-1354,-514,c),
(-1212,-514,l)
);
}
);
width = 6;
}
);
note = "position under \"x\".
offset curve settings:
L: 32,32,0%
R: 70,80,0%
B: 110,90,0%";
unicode = 828;
}
{
color = (250,227,227,1);
glyphname = iotasubnosp;
layers = (
{
layerId = "5C20EF92-B63D-42A8-8878-93C2863E0093";
shapes = (
{
closed = 1;
nodes = (
(-1088,-460,ls),
(-1088,-648,o),
(-960,-724,o),
(-808,-724,cs),
(-752,-724,o),
(-708,-716,o),
(-660,-700,c),
(-660,-520,l),
(-680,-524,o),
(-700,-524,o),
(-724,-524,cs),
(-792,-524,o),
(-808,-504,o),
(-808,-464,cs),
(-808,-96,l),
(-1088,-96,l)
);
}
);
width = 0;
},
{
layerId = "B1F27B51-9973-4381-9301-4FE46FE1CA59";
shapes = (
{
closed = 1;
nodes = (
(-796,-484,ls),
(-796,-575,o),
(-738,-640,o),
(-664,-640,cs),
(-646,-640,o),
(-614,-636,o),
(-600,-632,c),
(-618,-570,l),
(-627,-573,o),
(-651,-576,o),
(-664,-576,cs),
(-702,-576,o),
(-732,-539,o),
(-732,-484,cs),
(-732,-80,l),
(-796,-80,l)
);
}
);
width = 0;
},
{
layerId = "CD0E3B44-F66A-4791-B84C-A1128DC61275";
shapes = (
{
closed = 1;
nodes = (
(-948,-468,ls),
(-948,-648,o),
(-852,-724,o),
(-714,-724,cs),
(-658,-724,o),
(-622,-712,o),
(-610,-708,c),
(-610,-566,l),
(-622,-566,o),
(-650,-570,o),
(-670,-570,cs),
(-718,-570,o),
(-738,-532,o),
(-738,-462,cs),
(-738,-96,l),
(-948,-96,l)
);
}
);
width = 2;
}
);
note = "similar or identical to uni1FBE";
unicode = 837;
}
{
color = (250,227,227,1);
glyphname = uni034C;
layers = (
{
layerId = "5C20EF92-B63D-42A8-8878-93C2863E0093";
shapes = (
{
closed = 1;
nodes = (
(-692,1992,o),
(-744,1960,o),
(-800,1960,cs),
(-940,1960,o),
(-1056,2060,o),
(-1204,2060,cs),
(-1400,2060,o),
(-1540,1888,o),
(-1540,1716,c),
(-1256,1704,l),
(-1256,1780,o),
(-1208,1808,o),
(-1152,1808,cs),
(-1004,1808,o),
(-924,1704,o),
(-748,1704,cs),
(-548,1704,o),
(-408,1876,o),
(-408,2052,c),
(-692,2064,l)
);
},
{
closed = 1;
nodes = (
(-692,2380,o),
(-744,2352,o),
(-800,2352,cs),
(-940,2352,o),
(-1056,2452,o),
(-1204,2452,cs),
(-1400,2452,o),
(-1540,2280,o),
(-1540,2108,c),
(-1256,2096,l),
(-1256,2172,o),
(-1208,2200,o),
(-1152,2200,cs),
(-1004,2200,o),
(-924,2096,o),
(-748,2096,cs),
(-548,2096,o),
(-408,2264,o),
(-408,2444,c),
(-692,2456,l)
);
}
);
width = 0;
},
{
layerId = "B1F27B51-9973-4381-9301-4FE46FE1CA59";
shapes = (
{
closed = 1;
nodes = (
(-347,1868,o),
(-425,1806,o),
(-524,1806,cs),
(-663,1806,o),
(-723,1930,o),
(-908,1930,cs),
(-1044,1930,o),
(-1143,1863,o),
(-1172,1758,c),
(-1108,1750,l),
(-1085,1821,o),
(-1012,1866,o),
(-908,1866,cs),
(-738,1866,o),
(-687,1742,o),
(-526,1742,cs),
(-395,1742,o),
(-291,1824,o),
(-252,1906,c),
(-316,1922,l)
);
},
{
closed = 1;
nodes = (
(-347,2128,o),
(-425,2066,o),
(-524,2066,cs),
(-663,2066,o),
(-723,2190,o),
(-908,2190,cs),
(-1044,2190,o),
(-1143,2123,o),
(-1172,2018,c),
(-1108,2010,l),
(-1085,2081,o),
(-1012,2126,o),
(-908,2126,cs),
(-738,2126,o),
(-687,2002,o),
(-526,2002,cs),
(-395,2002,o),
(-291,2084,o),
(-252,2166,c),
(-316,2182,l)
);
}
);
width = 0;
},
{
associatedMasterId = "CD0E3B44-F66A-4791-B84C-A1128DC61275";
layerId = "5FA6ED3B-3625-477E-BF6F-D38AC2998F80";
shapes = (
{
closed = 1;
nodes = (
(-514,1938,o),
(-572,1890,o),
(-644,1890,cs),
(-792,1890,o),
(-862,1982,o),
(-1014,1982,cs),
(-1182,1982,o),
(-1314,1872,o),
(-1314,1724,c),
(-1132,1712,l),
(-1132,1776,o),
(-1072,1828,o),
(-996,1828,cs),
(-848,1828,o),
(-816,1732,o),
(-632,1732,cs),
(-462,1732,o),
(-326,1834,o),
(-326,1990,c),
(-514,2002,l)
);
},
{
closed = 1;
nodes = (
(-514,2228,o),
(-570,2176,o),
(-644,2176,cs),
(-792,2176,o),
(-862,2272,o),
(-1014,2272,cs),
(-1182,2272,o),
(-1314,2162,o),
(-1314,2010,c),
(-1132,2002,l),
(-1132,2066,o),
(-1068,2114,o),
(-996,2114,cs),
(-848,2114,o),
(-816,2022,o),
(-632,2022,cs),
(-462,2022,o),
(-326,2124,o),
(-326,2276,c),
(-514,2292,l)
);
}
);
width = 0;
},
{
layerId = "CD0E3B44-F66A-4791-B84C-A1128DC61275";
shapes = (
{
closed = 1;
nodes = (
(-508,1938,o),
(-566,1890,o),
(-638,1890,cs),
(-786,1890,o),
(-856,1982,o),
(-1008,1982,cs),
(-1176,1982,o),
(-1308,1872,o),
(-1308,1724,c),
(-1126,1712,l),
(-1126,1776,o),
(-1066,1828,o),
(-990,1828,cs),
(-842,1828,o),
(-810,1732,o),
(-626,1732,cs),
(-456,1732,o),
(-320,1834,o),
(-320,1990,c),
(-508,2002,l)
);
},
{
closed = 1;
nodes = (
(-508,2228,o),
(-564,2176,o),
(-638,2176,cs),
(-786,2176,o),
(-856,2272,o),
(-1008,2272,cs),
(-1176,2272,o),
(-1308,2162,o),
(-1308,2010,c),
(-1126,2002,l),
(-1126,2066,o),
(-1062,2114,o),
(-990,2114,cs),
(-842,2114,o),
(-810,2022,o),
(-626,2022,cs),
(-456,2022,o),
(-320,2124,o),
(-320,2276,c),
(-508,2292,l)
);
}
);
width = 4;
}
);
unicode = 844;
}
{
color = (250,227,227,1);
glyphname = uni035E;
layers = (
{
anchors = (
{
name = _top;
pos = (0,1792);
}
);
layerId = "5C20EF92-B63D-42A8-8878-93C2863E0093";
shapes = (
{
closed = 1;
nodes = (
(-828,2048,l),
(-828,1800,l),
(828,1800,l),
(828,2048,l)
);
}
);
width = 0;
},
{
anchors = (
{
name = _top;
pos = (-32,1792);
}
);
layerId = "B1F27B51-9973-4381-9301-4FE46FE1CA59";
shapes = (
{
closed = 1;
nodes = (
(-838,1920,l),
(-838,1856,l),
(774,1856,l),
(774,1920,l)
);
}
);
width = 0;
},
{
anchors = (
{
name = _top;
pos = (-32,1792);
}
);
layerId = "CD0E3B44-F66A-4791-B84C-A1128DC61275";
shapes = (
{
closed = 1;
nodes = (
(-846,2048,l),
(-846,1840,l),
(782,1840,l),
(782,2048,l)
);
}
);
width = 0;
}
);
unicode = 862;
}
{
color = (250,227,227,1);
glyphname = uni0362;
layers = (
{
layerId = "5C20EF92-B63D-42A8-8878-93C2863E0093";
shapes = (
{
closed = 1;
nodes = (
(-1332,-376,l),
(-1332,-588,l),
(1080,-588,l),
(1080,-376,l)
);
},
{
closed = 1;
nodes = (
(1304,-484,l),
(1052,-412,l),
(504,-756,l),
(868,-756,l)
);
},
{
closed = 1;
nodes = (
(1044,-548,l),
(1304,-484,l),
(868,-212,l),
(504,-212,l)
);
}
);
width = 0;
},
{
layerId = "B1F27B51-9973-4381-9301-4FE46FE1CA59";
shapes = (
{
closed = 1;
nodes = (
(-752,-406,l),
(-752,-470,l),
(988,-470,l),
(988,-406,l)
);
},
{
closed = 1;
nodes = (
(1024,-476,l),
(1024,-410,l),
(516,-768,l),
(624,-768,l)
);
},
{
closed = 1;
nodes = (
(1024,-466,l),
(1024,-400,l),
(624,-112,l),
(516,-112,l)
);
}
);
width = 0;
},
{
associatedMasterId = "CD0E3B44-F66A-4791-B84C-A1128DC61275";
layerId = "D6674AC8-74E9-4A3B-9A81-4E4B926B59E6";
shapes = (
{
closed = 1;
nodes = (
(-990,-392,l),
(-990,-518,l),
(962,-518,l),
(962,-392,l)
);
},
{
closed = 1;
nodes = (
(1120,-456,l),
(986,-376,l),
(464,-764,l),
(708,-764,l)
);
},
{
closed = 1;
nodes = (
(980,-528,l),
(1120,-456,l),
(708,-150,l),
(464,-150,l)
);
}
);
width = 0;
},
{
layerId = "CD0E3B44-F66A-4791-B84C-A1128DC61275";
shapes = (
{
closed = 1;
nodes = (
(-980,-392,l),
(-980,-518,l),
(972,-518,l),
(972,-392,l)
);
},
{
closed = 1;
nodes = (
(1130,-456,l),
(996,-376,l),
(474,-764,l),
(718,-764,l)
);
},
{
closed = 1;
nodes = (
(990,-528,l),
(1130,-456,l),
(718,-150,l),
(474,-150,l)
);
}
);
width = 14;
}
);
unicode = 866;
}
{
color = (250,227,227,1);
glyphname = uni0369;
layers = (
{
anchors = (
{
name = _marktop;
pos = (-952,1608);
},
{
name = _mkmktop;
pos = (-952,2776);
}
);
layerId = "5C20EF92-B63D-42A8-8878-93C2863E0093";
shapes = (
{
closed = 1;
nodes = (
(-846,1640,o),
(-754,1826,o),
(-720,2016,c),
(-720,2032,l),
(-752,2242,o),
(-840,2420,o),
(-1012,2420,cs),
(-1212,2420,o),
(-1316,2268,o),
(-1316,2036,cs),
(-1316,2024,ls),
(-1316,1804,o),
(-1212,1640,o),
(-1012,1640,cs)
);
},
{
closed = 1;
nodes = (
(-1040,1836,o),
(-1068,1924,o),
(-1068,2024,cs),
(-1068,2036,ls),
(-1068,2144,o),
(-1036,2232,o),
(-944,2232,cs),
(-848,2232,o),
(-812,2164,o),
(-808,2032,cs),
(-808,2020,ls),
(-808,1908,o),
(-848,1836,o),
(-944,1836,cs)
);
},
{
closed = 1;
nodes = (
(-584,1652,l),
(-584,2736,l),
(-840,2736,l),
(-840,1840,l),
(-804,1652,l)
);
}
);
width = 0;
},
{
anchors = (
{
name = _marktop;
pos = (-728,1608);
},
{
name = _mkmktop;
pos = (-728,2776);
}
);
layerId = "B1F27B51-9973-4381-9301-4FE46FE1CA59";
shapes = (
{
closed = 1;
nodes = (
(-600,1628,o),
(-460,1766,o),
(-438,1936,c),
(-438,2112,l),
(-460,2284,o),
(-600,2420,o),
(-766,2420,cs),
(-940,2420,o),
(-1070,2274,o),
(-1070,2032,cs),
(-1070,2012,ls),
(-1070,1778,o),
(-940,1628,o),
(-766,1628,cs)
);
},
{
closed = 1;
nodes = (
(-910,1692,o),
(-1006,1808,o),
(-1006,2012,cs),
(-1006,2032,ls),
(-1006,2240,o),
(-904,2356,o),
(-766,2356,cs),
(-644,2356,o),
(-532,2264,o),
(-486,2148,c),
(-486,1902,l),
(-528,1786,o),
(-644,1692,o),
(-772,1692,cs)
);
},
{
closed = 1;
nodes = (
(-426,1652,l),
(-426,2744,l),
(-488,2744,l),
(-488,1764,l),
(-472,1652,l)
);
}
);
width = 0;
},
{
anchors = (
{
name = _marktop;
pos = (-728,1608);
},
{
name = _mkmktop;
pos = (-728,2776);
}
);
associatedMasterId = "B1F27B51-9973-4381-9301-4FE46FE1CA59";
layerId = "FB48BC4A-A4C2-4258-BEBE-49F47DD907E9";
name = "May 19, 21 9:38";
shapes = (
{
closed = 1;
nodes = (
(-600,1628,o),
(-460,1766,o),
(-438,1936,c),
(-438,2112,l),
(-460,2284,o),
(-600,2420,o),
(-766,2420,cs),
(-940,2420,o),
(-1070,2274,o),
(-1070,2032,cs),
(-1070,2012,ls),
(-1070,1778,o),
(-940,1628,o),
(-766,1628,cs)
);
},
{
closed = 1;
nodes = (
(-910,1692,o),
(-1006,1808,o),
(-1006,2012,cs),
(-1006,2032,ls),
(-1006,2240,o),
(-904,2356,o),
(-766,2356,cs),
(-644,2356,o),
(-532,2264,o),
(-486,2148,c),
(-486,1902,l),
(-528,1786,o),
(-644,1692,o),
(-772,1692,cs)
);
},
{
closed = 1;
nodes = (
(-426,1652,l),
(-426,2744,l),
(-488,2744,l),
(-488,1764,l),
(-472,1652,l)
);
}
);
width = 0;
},
{
anchors = (
{
name = _marktop;
pos = (-976,1608);
},
{
name = _mkmktop;
pos = (-976,2776);
}
);
associatedMasterId = "5C20EF92-B63D-42A8-8878-93C2863E0093";
layerId = "55604F08-D5F5-44A1-938D-4662CA038F31";
name = "May 19, 21 9:38";
shapes = (
{
closed = 1;
nodes = (
(-864,1640,o),
(-772,1836,o),
(-740,2032,c),
(-740,2016,l),
(-772,2232,o),
(-860,2420,o),
(-1036,2420,cs),
(-1236,2420,o),
(-1340,2268,o),
(-1340,2036,cs),
(-1340,2024,ls),
(-1340,1804,o),
(-1236,1640,o),
(-1036,1640,cs)
);
},
{
closed = 1;
nodes = (
(-1064,1836,o),
(-1092,1924,o),
(-1092,2024,cs),
(-1092,2036,ls),
(-1092,2144,o),
(-1060,2232,o),
(-968,2232,cs),
(-872,2232,o),
(-836,2164,o),
(-832,2032,cs),
(-832,2020,ls),
(-832,1908,o),
(-872,1836,o),
(-968,1836,cs)
);
},
{
closed = 1;
nodes = (
(-608,1652,l),
(-608,2736,l),
(-864,2736,l),
(-864,1840,l),
(-828,1652,l)
);
}
);
width = 12;
},
{
anchors = (
{
name = _marktop;
pos = (-828,1608);
},
{
name = _mkmktop;
pos = (-828,2776);
}
);
associatedMasterId = "CD0E3B44-F66A-4791-B84C-A1128DC61275";
layerId = "3012451D-814F-4E3F-97B3-E11844C07C50";
shapes = (
{
closed = 1;
nodes = (
(-666,1632,o),
(-578,1762,o),
(-560,1976,c),
(-560,2074,l),
(-578,2290,o),
(-666,2420,o),
(-868,2420,cs),
(-1060,2420,o),
(-1180,2260,o),
(-1180,2032,cs),
(-1180,2016,ls),
(-1180,1796,o),
(-1056,1632,o),
(-868,1632,cs)
);
},
{
closed = 1;
nodes = (
(-940,1782,o),
(-998,1874,o),
(-998,2018,cs),
(-998,2032,ls),
(-998,2176,o),
(-940,2272,o),
(-832,2272,cs),
(-732,2272,o),
(-660,2210,o),
(-640,2102,c),
(-640,1946,l),
(-668,1842,o),
(-732,1782,o),
(-832,1782,cs)
);
},
{
closed = 1;
nodes = (
(-480,1652,l),
(-480,2740,l),
(-662,2740,l),
(-662,1794,l),
(-636,1652,l)
);
}
);
width = 0.29434;
},
{
anchors = (
{
name = _marktop;
pos = (-824,1608);
},
{
name = _mkmktop;
pos = (-824,2776);
}
);
layerId = "CD0E3B44-F66A-4791-B84C-A1128DC61275";
shapes = (
{
closed = 1;
nodes = (
(-662,1632,o),
(-574,1762,o),
(-556,1976,c),
(-556,2074,l),
(-574,2290,o),
(-662,2420,o),
(-864,2420,cs),
(-1056,2420,o),
(-1176,2260,o),
(-1176,2032,cs),
(-1176,2016,ls),
(-1176,1796,o),
(-1052,1632,o),
(-864,1632,cs)
);
},
{
closed = 1;
nodes = (
(-936,1782,o),
(-994,1874,o),
(-994,2018,cs),
(-994,2032,ls),
(-994,2176,o),
(-936,2272,o),
(-828,2272,cs),
(-728,2272,o),
(-656,2210,o),
(-636,2102,c),
(-636,1946,l),
(-664,1842,o),
(-728,1782,o),
(-828,1782,cs)
);
},
{
closed = 1;
nodes = (
(-476,1652,l),
(-476,2740,l),
(-658,2740,l),
(-658,1794,l),
(-632,1652,l)
);
}
);
width = 0;
}
);
unicode = 873;
}
{
color = (250,227,227,1);
glyphname = uni036D;
layers = (
{
layerId = "5C20EF92-B63D-42A8-8878-93C2863E0093";
shapes = (
{
closed = 1;
nodes = (
(-1300,2420,l),
(-1300,2248,l),
(-828,2248,l),
(-828,2420,l)
);
},
{
closed = 1;
nodes = (
(-1208,1900,ls),
(-1206,1716,o),
(-1106,1636,o),
(-952,1636,cs),
(-906,1636,o),
(-850,1644,o),
(-808,1660,c),
(-808,1840,l),
(-826,1836,o),
(-834,1840,o),
(-872,1840,cs),
(-934,1840,o),
(-954,1856,o),
(-956,1900,cs),
(-956,2604,l),
(-1208,2604,l)
);
}
);
width = 0;
},
{
layerId = "B1F27B51-9973-4381-9301-4FE46FE1CA59";
shapes = (
{
closed = 1;
nodes = (
(-864,2386,l),
(-864,2322,l),
(-500,2322,l),
(-500,2386,l)
);
},
{
closed = 1;
nodes = (
(-716,1820,ls),
(-716,1710,o),
(-682,1656,o),
(-600,1656,cs),
(-576,1656,o),
(-548,1660,o),
(-528,1666,c),
(-528,1728,l),
(-554,1722,o),
(-574,1720,o),
(-586,1720,cs),
(-633,1720,o),
(-652,1752,o),
(-652,1822,cs),
(-652,2604,l),
(-716,2604,l)
);
}
);
width = 0;
},
{
associatedMasterId = "CD0E3B44-F66A-4791-B84C-A1128DC61275";
layerId = "DDE1398D-CD97-4399-8E2C-CC096363F9AF";
shapes = (
{
closed = 1;
nodes = (
(-1078,2420,l),
(-1078,2272,l),
(-622,2272,l),
(-622,2420,l)
);
},
{
closed = 1;
nodes = (
(-944,1900,ls),
(-944,1744,o),
(-890,1648,o),
(-738,1648,cs),
(-682,1648,o),
(-646,1656,o),
(-634,1660,c),
(-634,1804,l),
(-642,1800,o),
(-672,1798,o),
(-694,1798,cs),
(-738,1798,o),
(-758,1836,o),
(-758,1908,cs),
(-758,2604,l),
(-944,2604,l)
);
}
);
width = 0.78491;
},
{
layerId = "CD0E3B44-F66A-4791-B84C-A1128DC61275";
shapes = (
{
closed = 1;
nodes = (
(-1072,2420,l),
(-1072,2272,l),
(-616,2272,l),
(-616,2420,l)
);
},
{
closed = 1;
nodes = (
(-938,1900,ls),
(-938,1744,o),
(-884,1648,o),
(-732,1648,cs),
(-676,1648,o),
(-640,1656,o),
(-628,1660,c),
(-628,1804,l),
(-636,1800,o),
(-666,1798,o),
(-688,1798,cs),
(-732,1798,o),
(-752,1836,o),
(-752,1908,cs),
(-752,2604,l),
(-938,2604,l)
);
}
);
width = 0;
}
);
unicode = 877;
}
{
glyphname = Sigma;
layers = (
{
layerId = "5C20EF92-B63D-42A8-8878-93C2863E0093";
shapes = (
{
closed = 1;
nodes = (
(436,440,l),
(436,0,l),
(1736,0,l),
(1736,440,l)
);
},
{
closed = 1;
nodes = (
(544,2064,l),
(544,1620,l),
(1728,1620,l),
(1728,2064,l)
);
},
{
closed = 1;
nodes = (
(696,2064,l),
(236,2064,l),
(236,1852,l),
(832,1036,l),
(236,212,l),
(236,0,l),
(696,0,l),
(1396,1028,l),
(1396,1044,l)
);
}
);
width = 1972;
},
{
layerId = "B1F27B51-9973-4381-9301-4FE46FE1CA59";
shapes = (
{
closed = 1;
nodes = (
(168,64,l),
(148,0,l),
(1560,0,l),
(1560,64,l)
);
},
{
closed = 1;
nodes = (
(136,2048,l),
(136,1984,l),
(1504,1984,l),
(1504,2048,l)
);
},
{
closed = 1;
nodes = (
(164,2048,l),
(128,2048,l),
(128,1992,l),
(970,978,l),
(128,56,l),
(128,0,l),
(162,0,l),
(1040,960,l),
(1040,992,l)
);
}
);
width = 1688;
},
{
associatedMasterId = "CD0E3B44-F66A-4791-B84C-A1128DC61275";
layerId = "3F13A4FB-142B-4BE5-8CAC-1FE7C94E9A91";
shapes = (
{
closed = 1;
nodes = (
(268,238,l),
(268,0,l),
(1564,0,l),
(1564,238,l)
);
},
{
closed = 1;
nodes = (
(224,2006,l),
(224,1768,l),
(1502,1768,l),
(1502,2006,l)
);
},
{
closed = 1;
nodes = (
(332,2006,l),
(154,2006,l),
(154,1794,l),
(804,996,l),
(154,208,l),
(154,0,l),
(332,0,l),
(1114,986,l),
(1114,1012,l)
);
}
);
width = 1717.2;
},
{
layerId = "CD0E3B44-F66A-4791-B84C-A1128DC61275";
shapes = (
{
closed = 1;
nodes = (
(276,238,l),
(276,0,l),
(1572,0,l),
(1572,238,l)
);
},
{
closed = 1;
nodes = (
(232,2006,l),
(232,1768,l),
(1510,1768,l),
(1510,2006,l)
);
},
{
closed = 1;
nodes = (
(340,2006,l),
(162,2006,l),
(162,1794,l),
(812,996,l),
(162,208,l),
(162,0,l),
(340,0,l),
(1122,986,l),
(1122,1012,l)
);
}
);
width = 1734;
}
);
unicode = 931;
userData = {
interface.gridadjust.original = "{'width': 1616, 'leftMargin': 98, 'rightMargin': 108}";
"interface.width-adjustments" = (
-16
);
};
}
{
glyphname = Phi;
kernLeft = Omicrongreek;
kernRight = Omicrongreek;
layers = (
{
layerId = "5C20EF92-B63D-42A8-8878-93C2863E0093";
shapes = (
{
closed = 1;
nodes = (
(2029,236,o),
(2393,532,o),
(2392,1004,cs),
(2391,1508,o),
(2033,1812,o),
(1492,1812,cs),
(1088,1812,ls),
(545,1812,o),
(185,1504,o),
(184,1000,cs),
(183,524,o),
(553,236,o),
(1088,236,cs),
(1496,236,l)
);
},
{
closed = 1;
nodes = (
(885,712,o),
(713,788,o),
(712,1000,cs),
(711,1248,o),
(885,1340,o),
(1088,1340,cs),
(1496,1340,ls),
(1705,1340,o),
(1873,1252,o),
(1872,1004,cs),
(1871,792,o),
(1701,712,o),
(1500,712,cs),
(1088,712,l)
);
},
{
closed = 1;
nodes = (
(1028,2048,l),
(1028,0,l),
(1560,0,l),
(1560,2048,l)
);
}
);
width = 2576;
},
{
background = {
shapes = (
{
closed = 1;
nodes = (
(449,1728,o),
(120,1419,o),
(120,992,cs),
(120,566,o),
(444,258,o),
(876,258,cs),
(960,258,ls),
(1392,258,o),
(1716,566,o),
(1716,992,cs),
(1716,1421,o),
(1394,1726,o),
(960,1726,cs),
(876,1726,l)
);
},
{
closed = 1;
nodes = (
(1382,1664,o),
(1654,1362,o),
(1652,992,cs),
(1650,621,o),
(1381,322,o),
(960,322,cs),
(876,322,ls),
(454,322,o),
(184,622,o),
(184,992,cs),
(184,1364,o),
(444,1662,o),
(880,1662,cs),
(960,1662,l)
);
},
{
closed = 1;
nodes = (
(950,-22,l),
(950,1982,l),
(886,1982,l),
(886,-22,l)
);
}
);
};
layerId = "B1F27B51-9973-4381-9301-4FE46FE1CA59";
shapes = (
{
closed = 1;
nodes = (
(1360,288,o),
(1684,596,o),
(1684,1022,cs),
(1684,1451,o),
(1364,1756,o),
(928,1756,cs),
(844,1756,l),
(417,1758,o),
(88,1449,o),
(88,1022,cs),
(88,596,o),
(412,288,o),
(844,288,cs),
(928,288,ls)
);
},
{
closed = 1;
nodes = (
(422,352,o),
(152,652,o),
(152,1022,cs),
(152,1394,o),
(412,1692,o),
(848,1692,cs),
(928,1692,l),
(1350,1694,o),
(1622,1392,o),
(1620,1022,cs),
(1618,651,o),
(1349,352,o),
(928,352,cs),
(844,352,ls)
);
},
{
closed = 1;
nodes = (
(854,2048,l),
(854,-2,l),
(918,-2,l),
(918,2048,l)
);
}
);
width = 1770;
},
{
layerId = "CD0E3B44-F66A-4791-B84C-A1128DC61275";
shapes = (
{
closed = 1;
nodes = (
(1614,270,o),
(1954,572,o),
(1954,1026,cs),
(1954,1474,o),
(1606,1778,o),
(1148,1778,cs),
(932,1778,ls),
(474,1778,o),
(122,1470,o),
(122,1022,cs),
(122,572,o),
(466,270,o),
(936,270,cs),
(1144,270,l)
);
},
{
closed = 1;
nodes = (
(594,504,o),
(368,704,o),
(368,1022,cs),
(368,1340,o),
(598,1544,o),
(932,1544,cs),
(1152,1544,ls),
(1482,1544,o),
(1708,1344,o),
(1708,1026,cs),
(1708,708,o),
(1488,504,o),
(1144,504,cs),
(936,504,l)
);
},
{
closed = 1;
nodes = (
(918,2048,l),
(918,0,l),
(1166,0,l),
(1166,2048,l)
);
}
);
width = 2076;
}
);
unicode = 934;
userData = {
interface.gridadjust.original = "{'width': 2019, 'leftMargin': 103, 'rightMargin': 94}";
"interface.width-adjustments" = (
-16
);
};
}
{
glyphname = chi;
kernLeft = v;
kernRight = rthook;
layers = (
{
layerId = "B1F27B51-9973-4381-9301-4FE46FE1CA59";
shapes = (
{
closed = 1;
nodes = (
(416,-576,l),
(944,416,l),
(1328,-334,ls),
(1435,-542,o),
(1488,-576,o),
(1684,-576,cs),
(1742,-576,l),
(1742,-512,l),
(1684,-512,ls),
(1514,-512,o),
(1481,-493,o),
(1384,-304,cs),
(970,504,l),
(920,504,l),
(344,-576,l)
);
},
{
closed = 1;
nodes = (
(970,466,l),
(1546,1536,l),
(1474,1536,l),
(944,552,l),
(558,1294,ls),
(450,1502,o),
(400,1536,o),
(202,1536,cs),
(144,1536,l),
(144,1472,l),
(202,1472,ls),
(372,1472,o),
(405,1451,o),
(502,1264,cs),
(918,466,l)
);
}
);
width = 1758;
},
{
background = {
shapes = (
{
closed = 1;
nodes = (
(590,-562,l),
(892,-16,l),
(1012,-232,ls),
(1155,-490,o),
(1288,-562,o),
(1618,-562,cs),
(1732,-562,l),
(1732,-162,l),
(1618,-162,ls),
(1518,-162,o),
(1512,-154,o),
(1450,-40,cs),
(986,808,l),
(800,808,l),
(44,-562,l)
);
},
{
closed = 1;
nodes = (
(988,148,l),
(1750,1536,l),
(1204,1536,l),
(894,974,l),
(766,1208,ls),
(626,1463,o),
(482,1536,o),
(158,1536,cs),
(44,1536,l),
(44,1136,l),
(158,1136,ls),
(256,1136,o),
(265,1128,o),
(328,1014,cs),
(808,148,l)
);
},
{
pos = (-4,0);
ref = x;
}
);
};
guides = (
{
pos = (82,1336);
},
{
pos = (1490,-362);
},
{
pos = (1130,-562);
}
);
layerId = "5C20EF92-B63D-42A8-8878-93C2863E0093";
shapes = (
{
closed = 1;
nodes = (
(582,-576,l),
(892,-16,l),
(1020,-246,ls),
(1163,-503,o),
(1297,-576,o),
(1626,-576,cs),
(1740,-576,l),
(1740,-176,l),
(1626,-176,ls),
(1532,-176,o),
(1520,-167,o),
(1458,-54,cs),
(986,808,l),
(800,808,l),
(36,-576,l)
);
},
{
closed = 1;
nodes = (
(988,148,l),
(1750,1536,l),
(1204,1536,l),
(894,974,l),
(766,1208,ls),
(628,1460,o),
(486,1536,o),
(158,1536,cs),
(44,1536,l),
(44,1136,l),
(158,1136,ls),
(255,1136,o),
(264,1129,o),
(328,1014,cs),
(808,148,l)
);
}
);
width = 1774;
},
{
associatedMasterId = "B1F27B51-9973-4381-9301-4FE46FE1CA59";
layerId = "A1C0A2E2-8CC7-43DF-A656-420FFD7C0802";
name = wire;
shapes = (
{
closed = 0;
nodes = (
(96,1504,l),
(154,1504,ls),
(328,1504,o),
(374,1486,o),
(482,1278,cs),
(896,480,l),
(1502,1610,ls)
);
},
{
closed = 0;
nodes = (
(1694,-544,l),
(1636,-544,ls),
(1462,-544,o),
(1416,-526,o),
(1308,-318,cs),
(896,478,l),
(290,-652,ls)
);
}
);
width = 1820;
},
{
associatedMasterId = "5C20EF92-B63D-42A8-8878-93C2863E0093";
guides = (
{
pos = (234,1336);
},
{
pos = (1642,-362);
}
);
layerId = "30A7B82E-D137-4F16-B80A-7612C5C1AAD7";
name = wire;
shapes = (
{
closed = 0;
nodes = (
(108,1336,l),
(162,1336,ls),
(368,1336,o),
(452,1287,o),
(550,1110,cs),
(896,480,l),
(1572,1700,ls)
);
},
{
closed = 0;
nodes = (
(1676,-362,l),
(1622,-362,ls),
(1415,-362,o),
(1331,-313,o),
(1234,-136,cs),
(896,478,l),
(270,-652,ls)
);
}
);
width = 1792;
},
{
associatedMasterId = "CD0E3B44-F66A-4791-B84C-A1128DC61275";
layerId = "5FDFF5AC-B5DE-42DF-BCD0-2D763751B896";
shapes = (
{
closed = 1;
nodes = (
(420,-576,l),
(854,256,l),
(1136,-308,ls),
(1248,-532,o),
(1336,-576,o),
(1566,-576,cs),
(1626,-576,l),
(1626,-352,l),
(1566,-352,ls),
(1432,-352,o),
(1406,-342,o),
(1336,-204,cs),
(914,632,l),
(802,632,l),
(162,-576,l)
);
},
{
closed = 1;
nodes = (
(946,416,l),
(1552,1536,l),
(1296,1536,l),
(858,722,l),
(576,1266,ls),
(454,1500,o),
(376,1552,o),
(146,1552,cs),
(86,1552,l),
(86,1328,l),
(146,1328,ls),
(284,1328,o),
(292,1322,o),
(376,1162,cs),
(766,416,l)
);
}
);
width = 1626.50189;
},
{
layerId = "CD0E3B44-F66A-4791-B84C-A1128DC61275";
shapes = (
{
closed = 1;
nodes = (
(432,-576,l),
(866,256,l),
(1148,-308,ls),
(1260,-532,o),
(1348,-576,o),
(1578,-576,cs),
(1638,-576,l),
(1638,-352,l),
(1578,-352,ls),
(1444,-352,o),
(1418,-342,o),
(1348,-204,cs),
(926,632,l),
(814,632,l),
(174,-576,l)
);
},
{
closed = 1;
nodes = (
(958,416,l),
(1564,1536,l),
(1308,1536,l),
(870,722,l),
(588,1266,ls),
(466,1500,o),
(388,1552,o),
(158,1552,cs),
(98,1552,l),
(98,1328,l),
(158,1328,ls),
(296,1328,o),
(304,1322,o),
(388,1162,cs),
(778,416,l)
);
}
);
width = 1648;
}
);
metricLeft = x;
note = "stroke R: 110, 50%
stroke B: ({Filter=\"OffsetCurve;250;200;1;0.5;\";})";
unicode = 967;
}
{
glyphname = uni03D8;
layers = (
{
guides = (
{
angle = 90;
pos = (888,1632);
}
);
layerId = "5C20EF92-B63D-42A8-8878-93C2863E0093";
shapes = (
{
closed = 1;
nodes = (
(796,56,l),
(796,-572,l),
(1352,-572,l),
(1352,56,l,{
name = hr00;
})
);
},
{
closed = 1;
nodes = (
(2011,1704,o),
(1599,2076,o),
(1072,2076,cs),
(539,2076,o),
(123,1704,o),
(124,1020,c),
(123,340,o),
(539,-28,o),
(1072,-28,cs),
(1599,-28,o),
(2011,336,o),
(2012,1020,c)
);
},
{
closed = 1;
nodes = (
(1447,588,o),
(1299,460,o),
(1072,460,cs),
(847,460,o),
(687,588,o),
(688,1020,c),
(687,1444,o),
(843,1588,o),
(1072,1588,cs),
(1299,1588,o),
(1447,1448,o),
(1448,1020,c)
);
}
);
width = 2136;
},
{
layerId = "B1F27B51-9973-4381-9301-4FE46FE1CA59";
shapes = (
{
closed = 1;
nodes = (
(982,18,l),
(982,-572,l),
(1046,-572,l),
(1046,18,l,{
name = hr00;
})
);
},
{
closed = 1;
nodes = (
(1860,1650,o),
(1516,2076,o),
(1012,2076,cs),
(507,2076,o),
(164,1649,o),
(164,1024,cs),
(164,400,o),
(506,-28,o),
(1012,-28,cs),
(1516,-28,o),
(1860,398,o),
(1860,1024,cs)
);
},
{
closed = 1;
nodes = (
(1797,436,o),
(1478,36,o),
(1012,36,cs),
(541,36,o),
(228,440,o),
(228,1024,cs),
(228,1616,o),
(548,2012,o),
(1012,2012,cs),
(1478,2012,o),
(1795,1612,o),
(1796,1024,cs)
);
}
);
width = 2024;
},
{
associatedMasterId = "CD0E3B44-F66A-4791-B84C-A1128DC61275";
layerId = "AFC5B1CA-CC76-43AF-9899-270F7169F30A";
shapes = (
{
closed = 1;
nodes = (
(912,56,l),
(912,-572,l),
(1168,-572,l),
(1168,56,l,{
name = hr00;
})
);
},
{
closed = 1;
nodes = (
(1946,1672,o),
(1564,2076,o),
(1040,2076,cs),
(516,2076,o),
(136,1672,o),
(136,1024,c),
(136,376,o),
(516,-28,o),
(1040,-28,cs),
(1564,-28,o),
(1946,376,o),
(1946,1024,c)
);
},
{
closed = 1;
nodes = (
(1698,494,o),
(1408,210,o),
(1040,210,cs),
(672,210,o),
(384,494,o),
(384,1024,c),
(384,1554,o),
(672,1838,o),
(1040,1838,cs),
(1408,1838,o),
(1698,1554,o),
(1698,1024,c)
);
}
);
width = 2080.19623;
},
{
layerId = "CD0E3B44-F66A-4791-B84C-A1128DC61275";
shapes = (
{
closed = 1;
nodes = (
(922,56,l),
(922,-572,l),
(1178,-572,l),
(1178,56,l,{
name = hr00;
})
);
},
{
closed = 1;
nodes = (
(1956,1672,o),
(1574,2076,o),
(1050,2076,cs),
(526,2076,o),
(146,1672,o),
(146,1024,c),
(146,376,o),
(526,-28,o),
(1050,-28,cs),
(1574,-28,o),
(1956,376,o),
(1956,1024,c)
);
},
{
closed = 1;
nodes = (
(1708,494,o),
(1418,210,o),
(1050,210,cs),
(682,210,o),
(394,494,o),
(394,1024,c),
(394,1554,o),
(682,1838,o),
(1050,1838,cs),
(1418,1838,o),
(1708,1554,o),
(1708,1024,c)
);
}
);
width = 2102;
}
);
unicode = 984;
userData = {
com.typemytype.robofont.guideline.magnetic.6gQqaROkV3 = 5;
interface.gridadjust.original = "{'width': 1944, 'leftMargin': 256, 'rightMargin': 152}";
"interface.width-adjustments" = (
-16
);
};
}
{
glyphname = stigma;
layers = (
{
background = {
shapes = (
{
closed = 1;
nodes = (
(1198,-564,o),
(1570,-508,o),
(1572,-88,cs),
(1570,156,o),
(1442,272,o),
(1284,324,c),
(1032,396,l),
(794,464,o),
(634,548,o),
(636,800,cs),
(636,824,ls),
(634,1004,o),
(666,1104,o),
(840,1104,cs),
(978,1104,o),
(1034,1008,o),
(1036,896,c),
(1520,896,l),
(1522,1304,o),
(1242,1516,o),
(852,1516,cs),
(362,1516,o),
(114,1212,o),
(116,812,cs),
(116,788,ls),
(114,332,o),
(370,188,o),
(676,80,c),
(980,-24,l),
(1038,-40,o),
(1050,-64,o),
(1052,-88,cs),
(1050,-156,o),
(982,-180,o),
(864,-180,c),
(864,-568,l)
);
}
);
};
layerId = "5C20EF92-B63D-42A8-8878-93C2863E0093";
shapes = (
{
closed = 1;
nodes = (
(1198,-564,o),
(1570,-508,o),
(1572,-88,cs),
(1570,156,o),
(1442,272,o),
(1284,324,c),
(1032,396,l),
(794,464,o),
(636,548,o),
(636,800,cs),
(636,864,ls),
(636,1044,o),
(666,1144,o),
(840,1144,cs),
(978,1144,o),
(1034,1048,o),
(1036,896,c),
(1520,896,l),
(1522,1344,o),
(1242,1556,o),
(852,1556,cs),
(362,1556,o),
(116,1252,o),
(116,852,cs),
(116,788,ls),
(116,332,o),
(370,188,o),
(676,80,c),
(980,-24,l),
(1038,-40,o),
(1050,-64,o),
(1052,-88,cs),
(1050,-156,o),
(982,-180,o),
(864,-180,c),
(864,-568,l)
);
}
);
width = 1688;
},
{
background = {
shapes = (
{
closed = 1;
nodes = (
(1140,-512,o),
(1260,-402,o),
(1260,-232,cs),
(1260,-70,o),
(1145,12,o),
(854,88,cs),
(724,122,ls),
(311,231,o),
(188,388,o),
(192,748,cs),
(192,764,ls),
(192,1192,o),
(398,1452,o),
(734,1452,cs),
(1006,1454,o),
(1194,1280,o),
(1196,1024,c),
(1260,1024,l),
(1260,1318,o),
(1046,1516,o),
(728,1516,cs),
(364,1516,o),
(130,1224,o),
(128,764,cs),
(128,748,ls),
(122,364,o),
(261,179,o),
(710,60,cs),
(816,32,ls),
(1101,-43,o),
(1196,-102,o),
(1196,-238,cs),
(1196,-364,o),
(1106,-448,o),
(956,-448,c),
(956,-512,l)
);
}
);
};
layerId = "B1F27B51-9973-4381-9301-4FE46FE1CA59";
shapes = (
{
closed = 1;
nodes = (
(1108,-512,o),
(1228,-402,o),
(1228,-232,cs),
(1228,-70,o),
(1113,12,o),
(822,88,cs),
(692,122,ls),
(279,231,o),
(160,388,o),
(160,748,cs),
(160,806,ls),
(160,1234,o),
(366,1494,o),
(702,1496,cs),
(974,1498,o),
(1162,1322,o),
(1164,1024,c),
(1228,1024,l),
(1228,1360,o),
(1014,1558,o),
(696,1558,cs),
(332,1558,o),
(96,1266,o),
(96,806,cs),
(96,748,ls),
(96,364,o),
(229,179,o),
(678,60,cs),
(784,32,ls),
(1069,-43,o),
(1164,-102,o),
(1164,-238,cs),
(1164,-364,o),
(1074,-448,o),
(924,-448,c),
(924,-512,l)
);
}
);
width = 1308;
},
{
associatedMasterId = "CD0E3B44-F66A-4791-B84C-A1128DC61275";
layerId = "9C809638-7439-4FD5-A24E-2F91904230E4";
shapes = (
{
closed = 1;
nodes = (
(1222,-524,o),
(1368,-380,o),
(1368,-158,cs),
(1368,28,o),
(1268,112,o),
(1096,164,c),
(708,276,l),
(522,332,o),
(374,442,o),
(374,718,cs),
(374,814,ls),
(374,1064,o),
(456,1332,o),
(762,1332,cs),
(960,1332,o),
(1082,1184,o),
(1094,974,c),
(1360,974,l),
(1348,1316,o),
(1118,1556,o),
(762,1556,cs),
(308,1556,o),
(92,1210,o),
(92,812,cs),
(92,718,ls),
(92,278,o),
(324,126,o),
(586,56,c),
(940,-28,l),
(1024,-44,o),
(1090,-88,o),
(1090,-170,cs),
(1090,-250,o),
(1022,-294,o),
(918,-294,c),
(918,-526,l)
);
}
);
width = 1460.51321;
},
{
layerId = "CD0E3B44-F66A-4791-B84C-A1128DC61275";
shapes = (
{
closed = 1;
nodes = (
(1232,-524,o),
(1378,-380,o),
(1378,-158,cs),
(1378,28,o),
(1278,112,o),
(1106,164,c),
(718,276,l),
(532,332,o),
(384,442,o),
(384,718,cs),
(384,814,ls),
(384,1064,o),
(466,1332,o),
(772,1332,cs),
(970,1332,o),
(1092,1184,o),
(1104,974,c),
(1370,974,l),
(1358,1316,o),
(1128,1556,o),
(772,1556,cs),
(318,1556,o),
(102,1210,o),
(102,812,cs),
(102,718,ls),
(102,278,o),
(334,126,o),
(596,56,c),
(950,-28,l),
(1034,-44,o),
(1100,-88,o),
(1100,-170,cs),
(1100,-250,o),
(1032,-294,o),
(928,-294,c),
(928,-526,l)
);
}
);
width = 1480;
}
);
unicode = 987;
userData = {
interface.gridadjust.original = "{'width': 1480, 'leftMargin': 127, 'rightMargin': 80}";
"interface.width-adjustments" = (
-16
);
};
}
{
glyphname = afii10058;
kernLeft = Elcyrillic;
kernRight = b;
layers = (
{
layerId = "5C20EF92-B63D-42A8-8878-93C2863E0093";
shapes = (
{
closed = 1;
nodes = (
(312,0,ls),
(772,0,o),
(1028,176,o),
(1068,972,cs),
(1100,1612,l),
(1720,1612,l),
(1720,2048,l),
(588,2048,l),
(556,1188,ls),
(532,564,o),
(414,450,o),
(236,436,cs),
(184,432,l),
(184,0,l)
);
},
{
pos = (1392,0);
ref = afii10046;
}
);
width = 3240;
},
{
layerId = "B1F27B51-9973-4381-9301-4FE46FE1CA59";
shapes = (
{
closed = 1;
nodes = (
(8,0,ls),
(321,0,o),
(452,256,o),
(474,916,cs),
(510,1984,l),
(1454,1984,l),
(1456,2048,l),
(448,2048,l),
(410,944,ls),
(388,317,o),
(281,64,o),
(32,64,cs),
(-12,64,l),
(-12,0,l)
);
},
{
alignment = -1;
pos = (1134,0);
ref = afii10046;
}
);
width = 2910;
},
{
layerId = "CD0E3B44-F66A-4791-B84C-A1128DC61275";
shapes = (
{
closed = 1;
nodes = (
(110,0,ls),
(562,0,o),
(652,312,o),
(684,1012,cs),
(720,1822,l),
(1472,1822,l),
(1472,2048,l),
(472,2048,l),
(436,1064,ls),
(412,380,o),
(310,234,o),
(90,234,cs),
(34,234,l),
(34,0,l)
);
},
{
alignment = -1;
pos = (1208,0);
ref = afii10046;
}
);
width = 3008;
}
);
metricRight = b;
unicode = 1033;
userData = {
interface.gridadjust.original = "{'width': 3026, 'leftMargin': 67, 'rightMargin': 111}";
"interface.width-adjustments" = (
-16
);
};
}
{
glyphname = afii10059;
kernLeft = B;
kernRight = b;
layers = (
{
layerId = "5C20EF92-B63D-42A8-8878-93C2863E0093";
shapes = (
{
closed = 1;
nodes = (
(688,0,l),
(688,936,l),
(1624,936,l),
(1624,1360,l),
(688,1360,l),
(688,2048,l),
(132,2048,l),
(132,0,l)
);
},
{
pos = (1280,0);
ref = afii10046;
}
);
width = 3128;
},
{
layerId = "B1F27B51-9973-4381-9301-4FE46FE1CA59";
shapes = (
{
closed = 1;
nodes = (
(352,0,l),
(352,1004,l),
(1572,1004,l),
(1572,1068,l),
(352,1068,l),
(352,2048,l),
(288,2048,l),
(288,0,l)
);
},
{
alignment = -1;
pos = (1220,0);
ref = afii10046;
}
);
width = 2996;
},
{
associatedMasterId = "CD0E3B44-F66A-4791-B84C-A1128DC61275";
layerId = "D2FF07C7-2FB4-4C84-91C6-DD4444F95D91";
shapes = (
{
closed = 1;
nodes = (
(468,0,l),
(468,968,l),
(1674,968,l),
(1674,1192,l),
(468,1192,l),
(468,2048,l),
(214,2048,l),
(214,0,l)
);
},
{
alignment = -1;
pos = (1338,0);
ref = afii10046;
}
);
width = 3115.11698;
},
{
layerId = "CD0E3B44-F66A-4791-B84C-A1128DC61275";
shapes = (
{
closed = 1;
nodes = (
(480,0,l),
(480,968,l),
(1686,968,l),
(1686,1192,l),
(480,1192,l),
(480,2048,l),
(226,2048,l),
(226,0,l)
);
},
{
alignment = -1;
pos = (1340,0);
ref = afii10046;
}
);
width = 3140;
}
);
metricLeft = H;
metricRight = b;
unicode = 1034;
userData = {
interface.gridadjust.original = "{'width': 3043, 'leftMargin': 242, 'rightMargin': 113}";
"interface.width-adjustments" = (
-16
);
};
}
{
glyphname = Kacyr;
kernLeft = B;
kernRight = K;
layers = (
{
anchors = (
{
name = cyrtic;
pos = (1852,248);
}
);
layerId = "5C20EF92-B63D-42A8-8878-93C2863E0093";
shapes = (
{
closed = 1;
nodes = (
(2092,0,l),
(1268,1064,l),
(2048,2048,l),
(1348,2048,l),
(760,1276,l),
(688,1276,l),
(688,2048,l),
(132,2048,l),
(132,0,l),
(688,0,l),
(688,828,l),
(766,828,l),
(1394,0,l)
);
}
);
width = 2108;
},
{
anchors = (
{
name = cyrtic;
pos = (1468,88);
}
);
layerId = "B1F27B51-9973-4381-9301-4FE46FE1CA59";
shapes = (
{
closed = 1;
nodes = (
(1520,0,l),
(770,1050,l),
(1392,2048,l),
(1316,2048,l),
(714,1080,l),
(352,1080,l),
(352,2048,l),
(288,2048,l),
(288,0,l),
(352,0,l),
(352,1018,l),
(714,1018,l),
(1442,0,l)
);
}
);
width = 1584;
},
{
anchors = (
{
name = cyrtic;
pos = (1674,92);
}
);
layerId = "CD0E3B44-F66A-4791-B84C-A1128DC61275";
shapes = (
{
closed = 1;
nodes = (
(1736,0,l),
(882,1050,l),
(1708,2048,l),
(1402,2048,l),
(668,1162,l),
(482,1162,l),
(482,2048,l),
(226,2048,l),
(226,0,l),
(482,0,l),
(482,938,l),
(668,938,l),
(1432,0,l)
);
}
);
width = 1786;
},
{
anchors = (
{
name = cyrtic;
pos = (1468,88);
}
);
associatedMasterId = "B1F27B51-9973-4381-9301-4FE46FE1CA59";
layerId = "11E9D6F2-FD2A-4358-885F-7248B70CF2E9";
name = "Mar 6, 22 0:01";
shapes = (
{
closed = 1;
nodes = (
(1520,0,l),
(770,1080,l),
(1392,2048,l),
(1316,2048,l),
(692,1080,l),
(352,1080,l),
(352,2048,l),
(288,2048,l),
(288,0,l),
(352,0,l),
(352,1018,l),
(734,1018,l),
(1442,0,l)
);
}
);
width = 1584;
}
);
metricLeft = K;
metricRight = K;
unicode = 1050;
}
{
glyphname = afii10037;
kernLeft = Y;
kernRight = Y;
layers = (
{
anchors = (
{
name = top;
pos = (988,2304);
}
);
guides = (
{
pos = (-124,1240);
},
{
pos = (-124,764);
}
);
layerId = "5C20EF92-B63D-42A8-8878-93C2863E0093";
shapes = (
{
closed = 1;
nodes = (
(596,-28,ls),
(948,-28,o),
(1112,196,o),
(1228,448,cs),
(1932,2048,l),
(1372,2048,l),
(1044,1216,l),
(616,2048,l),
(48,2048,l),
(816,636,l),
(796,576,ls),
(756,440,o),
(704,404,o),
(528,404,cs),
(428,404,l),
(428,-28,l)
);
}
);
width = 1980;
},
{
anchors = (
{
name = top;
pos = (784,2304);
}
);
layerId = "B1F27B51-9973-4381-9301-4FE46FE1CA59";
shapes = (
{
closed = 1;
nodes = (
(342,-28,ls),
(584,-28,o),
(692,46,o),
(782,272,cs),
(1486,2048,l),
(1420,2048,l),
(796,476,l),
(132,2048,l),
(64,2048,l),
(762,390,l),
(724,296,ls),
(644,94,o),
(554,34,o),
(336,34,cs),
(284,34,l),
(284,-28,l)
);
}
);
width = 1550;
},
{
anchors = (
{
name = top;
pos = (854,2304);
}
);
layerId = "CD0E3B44-F66A-4791-B84C-A1128DC61275";
shapes = (
{
closed = 1;
nodes = (
(468,-28,ls),
(782,-28,o),
(876,142,o),
(960,334,cs),
(1668,2048,l),
(1398,2048,l),
(886,786,l),
(324,2048,l),
(50,2048,l),
(760,484,l),
(728,408,ls),
(684,308,o),
(612,208,o),
(464,208,cs),
(336,208,l),
(336,-28,l)
);
}
);
width = 1718;
}
);
metricLeft = Y;
metricRight = Y;
unicode = 1059;
userData = {
interface.gridadjust.original = "{'width': 1771.0, 'leftMargin': 113, 'rightMargin': 84.0}";
"interface.width-adjustments" = (
-16
);
};
}
{
glyphname = afii10038;
kernLeft = C;
kernRight = D;
layers = (
{
layerId = "5C20EF92-B63D-42A8-8878-93C2863E0093";
shapes = (
{
closed = 1;
nodes = (
(500,1844,o),
(124,1516,o),
(124,988,cs),
(124,480,o),
(492,168,o),
(1012,168,c),
(1560,168,l),
(2076,168,o),
(2444,484,o),
(2444,984,cs),
(2444,1512,o),
(2076,1844,o),
(1560,1844,c),
(1012,1844,l)
);
},
{
closed = 1;
nodes = (
(1564,1388,ls),
(1768,1388,o),
(1936,1276,o),
(1936,984,cs),
(1936,728,o),
(1768,624,o),
(1564,624,c),
(1012,624,l),
(812,624,o),
(628,720,o),
(628,988,cs),
(628,1280,o),
(804,1388,o),
(1012,1388,cs)
);
},
{
closed = 1;
nodes = (
(1024,2084,l),
(1024,-84,l),
(1544,-84,l),
(1544,2084,l)
);
}
);
width = 2568;
},
{
layerId = "B1F27B51-9973-4381-9301-4FE46FE1CA59";
shapes = (
{
closed = 1;
nodes = (
(467,1780,o),
(174,1461,o),
(172,992,cs),
(170,514,o),
(468,196,o),
(898,196,cs),
(1092,196,ls),
(1517,196,o),
(1806,510,o),
(1808,986,cs),
(1810,1462,o),
(1510,1780,o),
(1084,1780,cs),
(896,1780,ls)
);
},
{
closed = 1;
nodes = (
(1080,1716,ls),
(1511,1716,o),
(1742,1394,o),
(1744,986,cs),
(1746,578,o),
(1511,260,o),
(1088,260,cs),
(898,260,ls),
(470,260,o),
(238,580,o),
(236,980,cs),
(234,1389,o),
(471,1716,o),
(900,1716,cs)
);
},
{
closed = 1;
nodes = (
(960,2084,l),
(960,-84,l),
(1024,-84,l),
(1024,2084,l)
);
}
);
width = 1980;
},
{
associatedMasterId = "CD0E3B44-F66A-4791-B84C-A1128DC61275";
layerId = "C9B2020D-F247-48DE-AA2C-CDA2E28D9161";
shapes = (
{
closed = 1;
nodes = (
(464,1804,o),
(136,1474,o),
(136,992,cs),
(136,512,o),
(464,184,o),
(922,184,c),
(1252,184,l),
(1708,184,o),
(2038,516,o),
(2038,996,cs),
(2038,1476,o),
(1708,1804,o),
(1252,1804,c),
(922,1804,l)
);
},
{
closed = 1;
nodes = (
(1252,1580,ls),
(1596,1580,o),
(1784,1350,o),
(1784,996,cs),
(1784,638,o),
(1596,410,o),
(1252,410,c),
(922,410,l),
(578,410,o),
(390,638,o),
(390,992,cs),
(390,1350,o),
(578,1580,o),
(922,1580,cs)
);
},
{
closed = 1;
nodes = (
(960,2084,l),
(960,-84,l),
(1216,-84,l),
(1216,2084,l)
);
}
);
width = 2172.73208;
},
{
layerId = "CD0E3B44-F66A-4791-B84C-A1128DC61275";
shapes = (
{
closed = 1;
nodes = (
(474,1804,o),
(146,1474,o),
(146,992,cs),
(146,512,o),
(474,184,o),
(932,184,c),
(1262,184,l),
(1718,184,o),
(2048,516,o),
(2048,996,cs),
(2048,1476,o),
(1718,1804,o),
(1262,1804,c),
(932,1804,l)
);
},
{
closed = 1;
nodes = (
(1262,1580,ls),
(1606,1580,o),
(1794,1350,o),
(1794,996,cs),
(1794,638,o),
(1606,410,o),
(1262,410,c),
(932,410,l),
(588,410,o),
(400,638,o),
(400,992,cs),
(400,1350,o),
(588,1580,o),
(932,1580,cs)
);
},
{
closed = 1;
nodes = (
(970,2084,l),
(970,-84,l),
(1226,-84,l),
(1226,2084,l)
);
}
);
width = 2194;
}
);
metricLeft = O;
metricRight = O;
unicode = 1060;
userData = {
interface.gridadjust.original = "{'width': 2192, 'leftMargin': 117, 'rightMargin': 102}";
"interface.width-adjustments" = (
-16
);
};
}
{
glyphname = afii10040;
kernLeft = B;
kernRight = Decyrillic;
layers = (
{
layerId = "5C20EF92-B63D-42A8-8878-93C2863E0093";
shapes = (
{
closed = 1;
nodes = (
(1576,420,l),
(1576,0,l),
(1720,0,l),
(1720,-484,l),
(2236,-484,l),
(2260,420,l)
);
},
{
closed = 1;
nodes = (
(1928,0,l),
(1928,2048,l),
(1384,2048,l),
(1384,428,l),
(668,428,l),
(668,2048,l),
(132,2048,l),
(132,0,l)
);
}
);
width = 2324;
},
{
layerId = "B1F27B51-9973-4381-9301-4FE46FE1CA59";
shapes = (
{
closed = 1;
nodes = (
(1520,64,l),
(1520,0,l),
(1696,0,l),
(1696,-484,l),
(1736,-484,l),
(1762,64,l)
);
},
{
closed = 1;
nodes = (
(1652,0,l),
(1652,2048,l),
(1588,2048,l),
(1588,64,l),
(352,64,l),
(352,2048,l),
(288,2048,l),
(288,0,l)
);
}
);
width = 1906;
},
{
associatedMasterId = "CD0E3B44-F66A-4791-B84C-A1128DC61275";
layerId = "356842C8-833C-4835-BFC5-EFCAEF9D3ADB";
shapes = (
{
closed = 1;
nodes = (
(1528,240,l),
(1528,0,l),
(1672,0,l),
(1672,-484,l),
(1934,-484,l),
(1962,240,l)
);
},
{
closed = 1;
nodes = (
(1748,0,l),
(1748,2048,l),
(1504,2048,l),
(1504,232,l),
(456,232,l),
(456,2048,l),
(214,2048,l),
(214,0,l)
);
}
);
width = 2049.69057;
},
{
layerId = "CD0E3B44-F66A-4791-B84C-A1128DC61275";
shapes = (
{
closed = 1;
nodes = (
(1540,240,l),
(1540,0,l),
(1684,0,l),
(1684,-484,l),
(1946,-484,l),
(1974,240,l)
);
},
{
closed = 1;
nodes = (
(1760,0,l),
(1760,2048,l),
(1516,2048,l),
(1516,232,l),
(468,232,l),
(468,2048,l),
(226,2048,l),
(226,0,l)
);
}
);
width = 2070;
}
);
metricLeft = H;
metricRight = t;
unicode = 1062;
userData = {
interface.gridadjust.original = "{'width': 2071, 'leftMargin': 239, 'rightMargin': 91}";
"interface.width-adjustments" = (
-16
);
};
}
{
glyphname = afii10041;
kernRight = H;
layers = (
{
anchors = (
{
name = cyrtic;
pos = (2248,224);
},
{
name = left;
pos = (1468,0);
},
{
name = right;
pos = (1980,0);
},
{
name = top;
pos = (1124,2304);
}
);
layerId = "5C20EF92-B63D-42A8-8878-93C2863E0093";
shapes = (
{
closed = 1;
nodes = (
(256,1404,l),
(255,928,o),
(615,700,o),
(1156,700,cs),
(1191,700,o),
(1491,712,o),
(1560,736,c),
(1560,1156,l),
(1499,1136,o),
(1223,1128,o),
(1156,1128,cs),
(879,1128,o),
(792,1212,o),
(792,1404,cs),
(792,2048,l),
(256,2048,l)
);
},
{
closed = 1;
nodes = (
(1456,0,l),
(1996,0,l),
(1996,2048,l),
(1456,2048,l)
);
}
);
width = 2128;
},
{
anchors = (
{
name = cyrtic;
pos = (1602,8);
},
{
name = left;
pos = (1520,0);
},
{
name = right;
pos = (1574,0);
},
{
name = top;
pos = (908,2304);
}
);
layerId = "B1F27B51-9973-4381-9301-4FE46FE1CA59";
shapes = (
{
closed = 1;
nodes = (
(244,1380,ls),
(244,995,o),
(452,794,o),
(854,792,cs),
(1044,791,o),
(1264,831,o),
(1528,916,c),
(1528,984,l),
(1303,902,o),
(1058,856,o),
(850,856,cs),
(489,856,o),
(308,1031,o),
(308,1380,cs),
(308,2048,l),
(244,2048,l)
);
},
{
closed = 1;
nodes = (
(1520,0,l),
(1574,0,l),
(1574,2048,l),
(1520,2048,l)
);
}
);
width = 1862;
},
{
anchors = (
{
name = cyrtic;
pos = (1858,92);
},
{
name = left;
pos = (1484,0);
},
{
name = right;
pos = (1734,0);
},
{
name = top;
pos = (986,2304);
}
);
associatedMasterId = "CD0E3B44-F66A-4791-B84C-A1128DC61275";
layerId = "D1170F66-9770-437A-B808-82384789E226";
shapes = (
{
closed = 1;
nodes = (
(236,1364,l),
(236,912,o),
(494,742,o),
(922,742,cs),
(1180,742,o),
(1340,778,o),
(1516,834,c),
(1516,1062,l),
(1336,1008,o),
(1138,972,o),
(922,972,cs),
(656,972,o),
(490,1064,o),
(490,1364,cs),
(490,2048,l),
(236,2048,l)
);
},
{
closed = 1;
nodes = (
(1482,0,l),
(1738,0,l),
(1738,2048,l),
(1482,2048,l)
);
}
);
width = 1951.23774;
},
{
anchors = (
{
name = cyrtic;
pos = (1868,92);
},
{
name = left;
pos = (1494,0);
},
{
name = right;
pos = (1744,0);
},
{
name = top;
pos = (996,2304);
}
);
layerId = "CD0E3B44-F66A-4791-B84C-A1128DC61275";
shapes = (
{
closed = 1;
nodes = (
(246,1364,l),
(246,912,o),
(504,742,o),
(932,742,cs),
(1190,742,o),
(1350,778,o),
(1526,834,c),
(1526,1062,l),
(1346,1008,o),
(1148,972,o),
(932,972,cs),
(666,972,o),
(500,1064,o),
(500,1364,cs),
(500,2048,l),
(246,2048,l)
);
},
{
closed = 1;
nodes = (
(1492,0,l),
(1748,0,l),
(1748,2048,l),
(1492,2048,l)
);
}
);
width = 1974;
}
);
metricRight = H;
unicode = 1063;
userData = {
interface.gridadjust.original = "{'width': 1940, 'leftMargin': 201, 'rightMargin': 242}";
"interface.width-adjustments" = (
-16
);
};
}
{
glyphname = afii10046;
kernLeft = B;
kernRight = b;
layers = (
{
anchors = (
{
name = cross;
pos = (468,1620);
}
);
layerId = "5C20EF92-B63D-42A8-8878-93C2863E0093";
shapes = (
{
closed = 1;
nodes = (
(472,936,l),
(896,936,l),
(1097,936,o),
(1205,832,o),
(1204,692,c),
(1205,544,o),
(1097,436,o),
(896,436,c),
(688,436,l),
(688,2048,l),
(132,2048,l),
(132,0,l),
(896,0,l),
(1413,0,o),
(1757,280,o),
(1756,688,c),
(1757,1096,o),
(1413,1360,o),
(896,1360,c),
(472,1360,l)
);
}
);
width = 1848;
},
{
anchors = (
{
name = cross;
pos = (318,1616);
}
);
layerId = "B1F27B51-9973-4381-9301-4FE46FE1CA59";
shapes = (
{
closed = 1;
nodes = (
(324,1004,l),
(1056,1004,ls),
(1364,1004,o),
(1565,828,o),
(1564,560,cs),
(1563,247,o),
(1376,64,o),
(1056,64,cs),
(352,64,l),
(352,2048,l),
(288,2048,l),
(288,0,l),
(1056,0,ls),
(1409,0,o),
(1628,213,o),
(1628,556,cs),
(1628,867,o),
(1403,1068,o),
(1056,1068,cs),
(324,1068,l)
);
}
);
width = 1776;
},
{
anchors = (
{
name = cross;
pos = (362,1616);
}
);
associatedMasterId = "CD0E3B44-F66A-4791-B84C-A1128DC61275";
layerId = "6EEC63A2-6546-4AEA-9098-8F4858603D58";
shapes = (
{
closed = 1;
nodes = (
(402,968,l),
(982,968,l),
(1260,968,o),
(1414,804,o),
(1414,610,c),
(1414,412,o),
(1260,222,o),
(982,222,c),
(468,222,l),
(468,2048,l),
(214,2048,l),
(214,0,l),
(982,0,l),
(1424,0,o),
(1666,248,o),
(1666,606,c),
(1666,964,o),
(1424,1192,o),
(982,1192,c),
(402,1192,l)
);
}
);
width = 1776.58868;
},
{
anchors = (
{
name = cross;
pos = (374,1616);
}
);
layerId = "CD0E3B44-F66A-4791-B84C-A1128DC61275";
shapes = (
{
closed = 1;
nodes = (
(414,968,l),
(994,968,l),
(1272,968,o),
(1426,804,o),
(1426,610,c),
(1426,412,o),
(1272,222,o),
(994,222,c),
(480,222,l),
(480,2048,l),
(226,2048,l),
(226,0,l),
(994,0,l),
(1436,0,o),
(1678,248,o),
(1678,606,c),
(1678,964,o),
(1436,1192,o),
(994,1192,c),
(414,1192,l)
);
}
);
width = 1800;
}
);
metricLeft = B;
metricRight = b;
unicode = 1068;
userData = {
interface.gridadjust.original = "{'width': 1777, 'leftMargin': 220, 'rightMargin': 108}";
"interface.width-adjustments" = (
-16
);
};
}
{
glyphname = encyrillic;
kernLeft = m;
kernRight = a;
layers = (
{
anchors = (
{
name = cyrtic;
pos = (1820,224);
},
{
name = right;
pos = (1560,0);
}
);
layerId = "5C20EF92-B63D-42A8-8878-93C2863E0093";
shapes = (
{
closed = 1;
nodes = (
(464,980,l),
(464,568,l),
(1236,568,l),
(1236,980,l)
);
},
{
closed = 1;
nodes = (
(140,1536,l),
(140,0,l),
(660,0,l),
(660,1536,l)
);
},
{
closed = 1;
nodes = (
(1044,1536,l),
(1044,0,l),
(1560,0,l),
(1560,1536,l)
);
}
);
width = 1684;
},
{
anchors = (
{
name = cyrtic;
pos = (1354,8);
},
{
name = right;
pos = (1330,0);
}
);
layerId = "B1F27B51-9973-4381-9301-4FE46FE1CA59";
shapes = (
{
closed = 1;
nodes = (
(282,800,l),
(282,736,l),
(1296,736,l),
(1296,800,l)
);
},
{
closed = 1;
nodes = (
(240,1536,l),
(240,0,l),
(304,0,l),
(304,1536,l)
);
},
{
closed = 1;
nodes = (
(1266,1536,l),
(1266,0,l),
(1330,0,l),
(1330,1536,l)
);
}
);
width = 1578;
},
{
anchors = (
{
name = cyrtic;
pos = (1512,92);
},
{
name = right;
pos = (1396,0);
}
);
associatedMasterId = "CD0E3B44-F66A-4791-B84C-A1128DC61275";
layerId = "313BDF25-11C2-4432-9415-E6D95771F2C1";
shapes = (
{
closed = 1;
nodes = (
(366,878,l),
(366,654,l),
(1212,654,l),
(1212,878,l)
);
},
{
closed = 1;
nodes = (
(182,1536,l),
(182,0,l),
(426,0,l),
(426,1536,l)
);
},
{
closed = 1;
nodes = (
(1152,1536,l),
(1152,0,l),
(1396,0,l),
(1396,1536,l)
);
}
);
width = 1577.4717;
},
{
anchors = (
{
name = cyrtic;
pos = (1524,92);
},
{
name = right;
pos = (1408,0);
}
);
layerId = "CD0E3B44-F66A-4791-B84C-A1128DC61275";
shapes = (
{
closed = 1;
nodes = (
(378,878,l),
(378,654,l),
(1224,654,l),
(1224,878,l)
);
},
{
closed = 1;
nodes = (
(194,1536,l),
(194,0,l),
(438,0,l),
(438,1536,l)
);
},
{
closed = 1;
nodes = (
(1164,1536,l),
(1164,0,l),
(1408,0,l),
(1408,1536,l)
);
}
);
width = 1602;
}
);
metricLeft = m;
metricRight = a;
unicode = 1085;
userData = {
interface.gridadjust.original = "{'width': 1634, 'leftMargin': 213, 'rightMargin': 214}";
"interface.width-adjustments" = (
-16
);
};
}
{
glyphname = shacyrillic;
kernLeft = m;
kernRight = a;
layers = (
{
layerId = "5C20EF92-B63D-42A8-8878-93C2863E0093";
shapes = (
{
closed = 1;
nodes = (
(140,0,l),
(2372,0,l),
(2372,1536,l),
(1852,1536,l),
(1852,416,l),
(1516,416,l),
(1516,1536,l),
(996,1536,l),
(996,416,l),
(660,416,l),
(660,1536,l),
(140,1536,l)
);
}
);
width = 2496;
},
{
layerId = "B1F27B51-9973-4381-9301-4FE46FE1CA59";
shapes = (
{
closed = 1;
nodes = (
(240,0,l),
(1888,0,l),
(1888,1536,l),
(1824,1536,l),
(1824,64,l),
(1096,64,l),
(1096,1536,l),
(1032,1536,l),
(1032,64,l),
(304,64,l),
(304,1536,l),
(240,1536,l)
);
}
);
width = 2136;
},
{
associatedMasterId = "CD0E3B44-F66A-4791-B84C-A1128DC61275";
layerId = "8AAD1C00-5E84-447A-A22E-CB3AAD397B24";
shapes = (
{
closed = 1;
nodes = (
(182,0,l),
(2060,0,l),
(2060,1536,l),
(1816,1536,l),
(1816,224,l),
(1242,224,l),
(1242,1536,l),
(1000,1536,l),
(1000,224,l),
(426,224,l),
(426,1536,l),
(182,1536,l)
);
}
);
width = 2241.2;
},
{
layerId = "CD0E3B44-F66A-4791-B84C-A1128DC61275";
shapes = (
{
closed = 1;
nodes = (
(194,0,l),
(2072,0,l),
(2072,1536,l),
(1828,1536,l),
(1828,224,l),
(1254,224,l),
(1254,1536,l),
(1012,1536,l),
(1012,224,l),
(438,224,l),
(438,1536,l),
(194,1536,l)
);
}
);
width = 2266;
}
);
metricLeft = m;
metricRight = a;
unicode = 1096;
userData = {
interface.gridadjust.original = "{'width': 2288.0, 'leftMargin': 213, 'rightMargin': 213.0}";
"interface.width-adjustments" = (
-16
);
};
}
{
glyphname = hardsigncyrillic;
kernLeft = T.sc;
kernRight = bsmcyrillic;
layers = (
{
layerId = "5C20EF92-B63D-42A8-8878-93C2863E0093";
shapes = (
{
closed = 1;
nodes = (
(128,1536,l),
(128,1120,l),
(500,1120,l),
(500,1536,l)
);
},
{
pos = (360,0);
ref = softsigncyrillic;
}
);
width = 2080;
},
{
layerId = "B1F27B51-9973-4381-9301-4FE46FE1CA59";
shapes = (
{
closed = 1;
nodes = (
(8,1536,l),
(8,1472,l),
(488,1472,l),
(488,1536,l)
);
},
{
alignment = -1;
pos = (240,0);
ref = softsigncyrillic;
}
);
width = 1644;
},
{
associatedMasterId = "CD0E3B44-F66A-4791-B84C-A1128DC61275";
layerId = "DCA64EF6-FD23-405C-BEF5-71E2F151F54F";
shapes = (
{
closed = 1;
nodes = (
(42,1536,l),
(42,1312,l),
(468,1312,l),
(468,1536,l)
);
},
{
alignment = -1;
pos = (286,0);
ref = softsigncyrillic;
}
);
width = 1786.18113;
},
{
layerId = "CD0E3B44-F66A-4791-B84C-A1128DC61275";
shapes = (
{
closed = 1;
nodes = (
(50,1536,l),
(50,1312,l),
(476,1312,l),
(476,1536,l)
);
},
{
alignment = -1;
pos = (284,0);
ref = softsigncyrillic;
}
);
width = 1808;
}
);
metricRight = b;
unicode = 1098;
userData = {
interface.gridadjust.original = "{'width': 1742, 'leftMargin': 40, 'rightMargin': 67}";
"interface.width-adjustments" = (
-16
);
};
}
